<?xml version="1.0" encoding="utf-8" standalone="no"?>
<!DOCTYPE svg PUBLIC "-//W3C//DTD SVG 1.1//EN"
  "http://www.w3.org/Graphics/SVG/1.1/DTD/svg11.dtd">
<svg xmlns:xlink="http://www.w3.org/1999/xlink" width="621.441563pt" height="400.392812pt" viewBox="0 0 621.441563 400.392812" xmlns="http://www.w3.org/2000/svg" version="1.1">
 <metadata>
  <rdf:RDF xmlns:dc="http://purl.org/dc/elements/1.1/" xmlns:cc="http://creativecommons.org/ns#" xmlns:rdf="http://www.w3.org/1999/02/22-rdf-syntax-ns#">
   <cc:Work>
    <dc:type rdf:resource="http://purl.org/dc/dcmitype/StillImage"/>
    <dc:date>2025-09-04T00:06:08.824536</dc:date>
    <dc:format>image/svg+xml</dc:format>
    <dc:creator>
     <cc:Agent>
      <dc:title>Matplotlib v3.10.5, https://matplotlib.org/</dc:title>
     </cc:Agent>
    </dc:creator>
   </cc:Work>
  </rdf:RDF>
 </metadata>
 <defs>
  <style type="text/css">*{stroke-linejoin: round; stroke-linecap: butt}</style>
 </defs>
 <g id="figure_1">
  <g id="patch_1">
   <path d="M 0 400.392812 
L 621.441563 400.392812 
L 621.441563 0 
L 0 0 
z
" style="fill: #ffffff"/>
  </g>
  <g id="axes_1">
   <g id="patch_2">
    <path d="M 56.241563 357.9975 
L 614.241562 357.9975 
L 614.241562 25.3575 
L 56.241563 25.3575 
z
" style="fill: #ffffff"/>
   </g>
   <g id="patch_3">
    <path d="M 56.241563 338.429412 
L 614.241562 338.429412 
L 614.241562 40.4775 
L 56.241563 40.4775 
z
" clip-path="url(#p3e7bc8ea05)" style="fill: #e8f4ff; opacity: 0.3; stroke: #e8f4ff; stroke-linejoin: miter"/>
   </g>
   <g id="matplotlib.axis_1">
    <g id="xtick_1">
     <g id="line2d_1">
      <path d="M 81.605199 357.9975 
L 81.605199 25.3575 
" clip-path="url(#p3e7bc8ea05)" style="fill: none; stroke-dasharray: 2.96,1.28; stroke-dashoffset: 0; stroke: #b0b0b0; stroke-opacity: 0.3; stroke-width: 0.8"/>
     </g>
     <g id="line2d_2">
      <defs>
       <path id="m651ed001a6" d="M 0 0 
L 0 3.5 
" style="stroke: #000000; stroke-width: 0.8"/>
      </defs>
      <g>
       <use xlink:href="#m651ed001a6" x="81.605199" y="357.9975" style="stroke: #000000; stroke-width: 0.8"/>
      </g>
     </g>
     <g id="text_1">
      <!-- 0 -->
      <g transform="translate(78.105824 373.355781) scale(0.11 -0.11)">
       <defs>
        <path id="DejaVuSans-30" d="M 2034 4250 
Q 1547 4250 1301 3770 
Q 1056 3291 1056 2328 
Q 1056 1369 1301 889 
Q 1547 409 2034 409 
Q 2525 409 2770 889 
Q 3016 1369 3016 2328 
Q 3016 3291 2770 3770 
Q 2525 4250 2034 4250 
z
M 2034 4750 
Q 2819 4750 3233 4129 
Q 3647 3509 3647 2328 
Q 3647 1150 3233 529 
Q 2819 -91 2034 -91 
Q 1250 -91 836 529 
Q 422 1150 422 2328 
Q 422 3509 836 4129 
Q 1250 4750 2034 4750 
z
" transform="scale(0.015625)"/>
       </defs>
       <use xlink:href="#DejaVuSans-30"/>
      </g>
     </g>
    </g>
    <g id="xtick_2">
     <g id="line2d_3">
      <path d="M 175.89381 357.9975 
L 175.89381 25.3575 
" clip-path="url(#p3e7bc8ea05)" style="fill: none; stroke-dasharray: 2.96,1.28; stroke-dashoffset: 0; stroke: #b0b0b0; stroke-opacity: 0.3; stroke-width: 0.8"/>
     </g>
     <g id="line2d_4">
      <g>
       <use xlink:href="#m651ed001a6" x="175.89381" y="357.9975" style="stroke: #000000; stroke-width: 0.8"/>
      </g>
     </g>
     <g id="text_2">
      <!-- 50 -->
      <g transform="translate(168.89506 373.355781) scale(0.11 -0.11)">
       <defs>
        <path id="DejaVuSans-35" d="M 691 4666 
L 3169 4666 
L 3169 4134 
L 1269 4134 
L 1269 2991 
Q 1406 3038 1543 3061 
Q 1681 3084 1819 3084 
Q 2600 3084 3056 2656 
Q 3513 2228 3513 1497 
Q 3513 744 3044 326 
Q 2575 -91 1722 -91 
Q 1428 -91 1123 -41 
Q 819 9 494 109 
L 494 744 
Q 775 591 1075 516 
Q 1375 441 1709 441 
Q 2250 441 2565 725 
Q 2881 1009 2881 1497 
Q 2881 1984 2565 2268 
Q 2250 2553 1709 2553 
Q 1456 2553 1204 2497 
Q 953 2441 691 2322 
L 691 4666 
z
" transform="scale(0.015625)"/>
       </defs>
       <use xlink:href="#DejaVuSans-35"/>
       <use xlink:href="#DejaVuSans-30" transform="translate(63.623047 0)"/>
      </g>
     </g>
    </g>
    <g id="xtick_3">
     <g id="line2d_5">
      <path d="M 270.182421 357.9975 
L 270.182421 25.3575 
" clip-path="url(#p3e7bc8ea05)" style="fill: none; stroke-dasharray: 2.96,1.28; stroke-dashoffset: 0; stroke: #b0b0b0; stroke-opacity: 0.3; stroke-width: 0.8"/>
     </g>
     <g id="line2d_6">
      <g>
       <use xlink:href="#m651ed001a6" x="270.182421" y="357.9975" style="stroke: #000000; stroke-width: 0.8"/>
      </g>
     </g>
     <g id="text_3">
      <!-- 100 -->
      <g transform="translate(259.684296 373.355781) scale(0.11 -0.11)">
       <defs>
        <path id="DejaVuSans-31" d="M 794 531 
L 1825 531 
L 1825 4091 
L 703 3866 
L 703 4441 
L 1819 4666 
L 2450 4666 
L 2450 531 
L 3481 531 
L 3481 0 
L 794 0 
L 794 531 
z
" transform="scale(0.015625)"/>
       </defs>
       <use xlink:href="#DejaVuSans-31"/>
       <use xlink:href="#DejaVuSans-30" transform="translate(63.623047 0)"/>
       <use xlink:href="#DejaVuSans-30" transform="translate(127.246094 0)"/>
      </g>
     </g>
    </g>
    <g id="xtick_4">
     <g id="line2d_7">
      <path d="M 364.471032 357.9975 
L 364.471032 25.3575 
" clip-path="url(#p3e7bc8ea05)" style="fill: none; stroke-dasharray: 2.96,1.28; stroke-dashoffset: 0; stroke: #b0b0b0; stroke-opacity: 0.3; stroke-width: 0.8"/>
     </g>
     <g id="line2d_8">
      <g>
       <use xlink:href="#m651ed001a6" x="364.471032" y="357.9975" style="stroke: #000000; stroke-width: 0.8"/>
      </g>
     </g>
     <g id="text_4">
      <!-- 150 -->
      <g transform="translate(353.972907 373.355781) scale(0.11 -0.11)">
       <use xlink:href="#DejaVuSans-31"/>
       <use xlink:href="#DejaVuSans-35" transform="translate(63.623047 0)"/>
       <use xlink:href="#DejaVuSans-30" transform="translate(127.246094 0)"/>
      </g>
     </g>
    </g>
    <g id="xtick_5">
     <g id="line2d_9">
      <path d="M 458.759643 357.9975 
L 458.759643 25.3575 
" clip-path="url(#p3e7bc8ea05)" style="fill: none; stroke-dasharray: 2.96,1.28; stroke-dashoffset: 0; stroke: #b0b0b0; stroke-opacity: 0.3; stroke-width: 0.8"/>
     </g>
     <g id="line2d_10">
      <g>
       <use xlink:href="#m651ed001a6" x="458.759643" y="357.9975" style="stroke: #000000; stroke-width: 0.8"/>
      </g>
     </g>
     <g id="text_5">
      <!-- 200 -->
      <g transform="translate(448.261518 373.355781) scale(0.11 -0.11)">
       <defs>
        <path id="DejaVuSans-32" d="M 1228 531 
L 3431 531 
L 3431 0 
L 469 0 
L 469 531 
Q 828 903 1448 1529 
Q 2069 2156 2228 2338 
Q 2531 2678 2651 2914 
Q 2772 3150 2772 3378 
Q 2772 3750 2511 3984 
Q 2250 4219 1831 4219 
Q 1534 4219 1204 4116 
Q 875 4013 500 3803 
L 500 4441 
Q 881 4594 1212 4672 
Q 1544 4750 1819 4750 
Q 2544 4750 2975 4387 
Q 3406 4025 3406 3419 
Q 3406 3131 3298 2873 
Q 3191 2616 2906 2266 
Q 2828 2175 2409 1742 
Q 1991 1309 1228 531 
z
" transform="scale(0.015625)"/>
       </defs>
       <use xlink:href="#DejaVuSans-32"/>
       <use xlink:href="#DejaVuSans-30" transform="translate(63.623047 0)"/>
       <use xlink:href="#DejaVuSans-30" transform="translate(127.246094 0)"/>
      </g>
     </g>
    </g>
    <g id="xtick_6">
     <g id="line2d_11">
      <path d="M 553.048254 357.9975 
L 553.048254 25.3575 
" clip-path="url(#p3e7bc8ea05)" style="fill: none; stroke-dasharray: 2.96,1.28; stroke-dashoffset: 0; stroke: #b0b0b0; stroke-opacity: 0.3; stroke-width: 0.8"/>
     </g>
     <g id="line2d_12">
      <g>
       <use xlink:href="#m651ed001a6" x="553.048254" y="357.9975" style="stroke: #000000; stroke-width: 0.8"/>
      </g>
     </g>
     <g id="text_6">
      <!-- 250 -->
      <g transform="translate(542.550129 373.355781) scale(0.11 -0.11)">
       <use xlink:href="#DejaVuSans-32"/>
       <use xlink:href="#DejaVuSans-35" transform="translate(63.623047 0)"/>
       <use xlink:href="#DejaVuSans-30" transform="translate(127.246094 0)"/>
      </g>
     </g>
    </g>
    <g id="text_7">
     <!-- Training Step -->
     <g transform="translate(289.461563 390.28125) scale(0.14 -0.14)">
      <defs>
       <path id="DejaVuSans-54" d="M -19 4666 
L 3928 4666 
L 3928 4134 
L 2272 4134 
L 2272 0 
L 1638 0 
L 1638 4134 
L -19 4134 
L -19 4666 
z
" transform="scale(0.015625)"/>
       <path id="DejaVuSans-72" d="M 2631 2963 
Q 2534 3019 2420 3045 
Q 2306 3072 2169 3072 
Q 1681 3072 1420 2755 
Q 1159 2438 1159 1844 
L 1159 0 
L 581 0 
L 581 3500 
L 1159 3500 
L 1159 2956 
Q 1341 3275 1631 3429 
Q 1922 3584 2338 3584 
Q 2397 3584 2469 3576 
Q 2541 3569 2628 3553 
L 2631 2963 
z
" transform="scale(0.015625)"/>
       <path id="DejaVuSans-61" d="M 2194 1759 
Q 1497 1759 1228 1600 
Q 959 1441 959 1056 
Q 959 750 1161 570 
Q 1363 391 1709 391 
Q 2188 391 2477 730 
Q 2766 1069 2766 1631 
L 2766 1759 
L 2194 1759 
z
M 3341 1997 
L 3341 0 
L 2766 0 
L 2766 531 
Q 2569 213 2275 61 
Q 1981 -91 1556 -91 
Q 1019 -91 701 211 
Q 384 513 384 1019 
Q 384 1609 779 1909 
Q 1175 2209 1959 2209 
L 2766 2209 
L 2766 2266 
Q 2766 2663 2505 2880 
Q 2244 3097 1772 3097 
Q 1472 3097 1187 3025 
Q 903 2953 641 2809 
L 641 3341 
Q 956 3463 1253 3523 
Q 1550 3584 1831 3584 
Q 2591 3584 2966 3190 
Q 3341 2797 3341 1997 
z
" transform="scale(0.015625)"/>
       <path id="DejaVuSans-69" d="M 603 3500 
L 1178 3500 
L 1178 0 
L 603 0 
L 603 3500 
z
M 603 4863 
L 1178 4863 
L 1178 4134 
L 603 4134 
L 603 4863 
z
" transform="scale(0.015625)"/>
       <path id="DejaVuSans-6e" d="M 3513 2113 
L 3513 0 
L 2938 0 
L 2938 2094 
Q 2938 2591 2744 2837 
Q 2550 3084 2163 3084 
Q 1697 3084 1428 2787 
Q 1159 2491 1159 1978 
L 1159 0 
L 581 0 
L 581 3500 
L 1159 3500 
L 1159 2956 
Q 1366 3272 1645 3428 
Q 1925 3584 2291 3584 
Q 2894 3584 3203 3211 
Q 3513 2838 3513 2113 
z
" transform="scale(0.015625)"/>
       <path id="DejaVuSans-67" d="M 2906 1791 
Q 2906 2416 2648 2759 
Q 2391 3103 1925 3103 
Q 1463 3103 1205 2759 
Q 947 2416 947 1791 
Q 947 1169 1205 825 
Q 1463 481 1925 481 
Q 2391 481 2648 825 
Q 2906 1169 2906 1791 
z
M 3481 434 
Q 3481 -459 3084 -895 
Q 2688 -1331 1869 -1331 
Q 1566 -1331 1297 -1286 
Q 1028 -1241 775 -1147 
L 775 -588 
Q 1028 -725 1275 -790 
Q 1522 -856 1778 -856 
Q 2344 -856 2625 -561 
Q 2906 -266 2906 331 
L 2906 616 
Q 2728 306 2450 153 
Q 2172 0 1784 0 
Q 1141 0 747 490 
Q 353 981 353 1791 
Q 353 2603 747 3093 
Q 1141 3584 1784 3584 
Q 2172 3584 2450 3431 
Q 2728 3278 2906 2969 
L 2906 3500 
L 3481 3500 
L 3481 434 
z
" transform="scale(0.015625)"/>
       <path id="DejaVuSans-20" transform="scale(0.015625)"/>
       <path id="DejaVuSans-53" d="M 3425 4513 
L 3425 3897 
Q 3066 4069 2747 4153 
Q 2428 4238 2131 4238 
Q 1616 4238 1336 4038 
Q 1056 3838 1056 3469 
Q 1056 3159 1242 3001 
Q 1428 2844 1947 2747 
L 2328 2669 
Q 3034 2534 3370 2195 
Q 3706 1856 3706 1288 
Q 3706 609 3251 259 
Q 2797 -91 1919 -91 
Q 1588 -91 1214 -16 
Q 841 59 441 206 
L 441 856 
Q 825 641 1194 531 
Q 1563 422 1919 422 
Q 2459 422 2753 634 
Q 3047 847 3047 1241 
Q 3047 1584 2836 1778 
Q 2625 1972 2144 2069 
L 1759 2144 
Q 1053 2284 737 2584 
Q 422 2884 422 3419 
Q 422 4038 858 4394 
Q 1294 4750 2059 4750 
Q 2388 4750 2728 4690 
Q 3069 4631 3425 4513 
z
" transform="scale(0.015625)"/>
       <path id="DejaVuSans-74" d="M 1172 4494 
L 1172 3500 
L 2356 3500 
L 2356 3053 
L 1172 3053 
L 1172 1153 
Q 1172 725 1289 603 
Q 1406 481 1766 481 
L 2356 481 
L 2356 0 
L 1766 0 
Q 1100 0 847 248 
Q 594 497 594 1153 
L 594 3053 
L 172 3053 
L 172 3500 
L 594 3500 
L 594 4494 
L 1172 4494 
z
" transform="scale(0.015625)"/>
       <path id="DejaVuSans-65" d="M 3597 1894 
L 3597 1613 
L 953 1613 
Q 991 1019 1311 708 
Q 1631 397 2203 397 
Q 2534 397 2845 478 
Q 3156 559 3463 722 
L 3463 178 
Q 3153 47 2828 -22 
Q 2503 -91 2169 -91 
Q 1331 -91 842 396 
Q 353 884 353 1716 
Q 353 2575 817 3079 
Q 1281 3584 2069 3584 
Q 2775 3584 3186 3129 
Q 3597 2675 3597 1894 
z
M 3022 2063 
Q 3016 2534 2758 2815 
Q 2500 3097 2075 3097 
Q 1594 3097 1305 2825 
Q 1016 2553 972 2059 
L 3022 2063 
z
" transform="scale(0.015625)"/>
       <path id="DejaVuSans-70" d="M 1159 525 
L 1159 -1331 
L 581 -1331 
L 581 3500 
L 1159 3500 
L 1159 2969 
Q 1341 3281 1617 3432 
Q 1894 3584 2278 3584 
Q 2916 3584 3314 3078 
Q 3713 2572 3713 1747 
Q 3713 922 3314 415 
Q 2916 -91 2278 -91 
Q 1894 -91 1617 61 
Q 1341 213 1159 525 
z
M 3116 1747 
Q 3116 2381 2855 2742 
Q 2594 3103 2138 3103 
Q 1681 3103 1420 2742 
Q 1159 2381 1159 1747 
Q 1159 1113 1420 752 
Q 1681 391 2138 391 
Q 2594 391 2855 752 
Q 3116 1113 3116 1747 
z
" transform="scale(0.015625)"/>
      </defs>
      <use xlink:href="#DejaVuSans-54"/>
      <use xlink:href="#DejaVuSans-72" transform="translate(46.333984 0)"/>
      <use xlink:href="#DejaVuSans-61" transform="translate(87.447266 0)"/>
      <use xlink:href="#DejaVuSans-69" transform="translate(148.726562 0)"/>
      <use xlink:href="#DejaVuSans-6e" transform="translate(176.509766 0)"/>
      <use xlink:href="#DejaVuSans-69" transform="translate(239.888672 0)"/>
      <use xlink:href="#DejaVuSans-6e" transform="translate(267.671875 0)"/>
      <use xlink:href="#DejaVuSans-67" transform="translate(331.050781 0)"/>
      <use xlink:href="#DejaVuSans-20" transform="translate(394.527344 0)"/>
      <use xlink:href="#DejaVuSans-53" transform="translate(426.314453 0)"/>
      <use xlink:href="#DejaVuSans-74" transform="translate(489.791016 0)"/>
      <use xlink:href="#DejaVuSans-65" transform="translate(529 0)"/>
      <use xlink:href="#DejaVuSans-70" transform="translate(590.523438 0)"/>
     </g>
    </g>
   </g>
   <g id="matplotlib.axis_2">
    <g id="ytick_1">
     <g id="line2d_13">
      <path d="M 56.241563 338.429412 
L 614.241562 338.429412 
" clip-path="url(#p3e7bc8ea05)" style="fill: none; stroke-dasharray: 2.96,1.28; stroke-dashoffset: 0; stroke: #b0b0b0; stroke-opacity: 0.3; stroke-width: 0.8"/>
     </g>
     <g id="line2d_14">
      <defs>
       <path id="m6c82f9e7d4" d="M 0 0 
L -3.5 0 
" style="stroke: #000000; stroke-width: 0.8"/>
      </defs>
      <g>
       <use xlink:href="#m6c82f9e7d4" x="56.241563" y="338.429412" style="stroke: #000000; stroke-width: 0.8"/>
      </g>
     </g>
     <g id="text_8">
      <!-- 0.80 -->
      <g transform="translate(24.749375 342.608553) scale(0.11 -0.11)">
       <defs>
        <path id="DejaVuSans-2e" d="M 684 794 
L 1344 794 
L 1344 0 
L 684 0 
L 684 794 
z
" transform="scale(0.015625)"/>
        <path id="DejaVuSans-38" d="M 2034 2216 
Q 1584 2216 1326 1975 
Q 1069 1734 1069 1313 
Q 1069 891 1326 650 
Q 1584 409 2034 409 
Q 2484 409 2743 651 
Q 3003 894 3003 1313 
Q 3003 1734 2745 1975 
Q 2488 2216 2034 2216 
z
M 1403 2484 
Q 997 2584 770 2862 
Q 544 3141 544 3541 
Q 544 4100 942 4425 
Q 1341 4750 2034 4750 
Q 2731 4750 3128 4425 
Q 3525 4100 3525 3541 
Q 3525 3141 3298 2862 
Q 3072 2584 2669 2484 
Q 3125 2378 3379 2068 
Q 3634 1759 3634 1313 
Q 3634 634 3220 271 
Q 2806 -91 2034 -91 
Q 1263 -91 848 271 
Q 434 634 434 1313 
Q 434 1759 690 2068 
Q 947 2378 1403 2484 
z
M 1172 3481 
Q 1172 3119 1398 2916 
Q 1625 2713 2034 2713 
Q 2441 2713 2670 2916 
Q 2900 3119 2900 3481 
Q 2900 3844 2670 4047 
Q 2441 4250 2034 4250 
Q 1625 4250 1398 4047 
Q 1172 3844 1172 3481 
z
" transform="scale(0.015625)"/>
       </defs>
       <use xlink:href="#DejaVuSans-30"/>
       <use xlink:href="#DejaVuSans-2e" transform="translate(63.623047 0)"/>
       <use xlink:href="#DejaVuSans-38" transform="translate(95.410156 0)"/>
       <use xlink:href="#DejaVuSans-30" transform="translate(159.033203 0)"/>
      </g>
     </g>
    </g>
    <g id="ytick_2">
     <g id="line2d_15">
      <path d="M 56.241563 301.185423 
L 614.241562 301.185423 
" clip-path="url(#p3e7bc8ea05)" style="fill: none; stroke-dasharray: 2.96,1.28; stroke-dashoffset: 0; stroke: #b0b0b0; stroke-opacity: 0.3; stroke-width: 0.8"/>
     </g>
     <g id="line2d_16">
      <g>
       <use xlink:href="#m6c82f9e7d4" x="56.241563" y="301.185423" style="stroke: #000000; stroke-width: 0.8"/>
      </g>
     </g>
     <g id="text_9">
      <!-- 0.85 -->
      <g transform="translate(24.749375 305.364564) scale(0.11 -0.11)">
       <use xlink:href="#DejaVuSans-30"/>
       <use xlink:href="#DejaVuSans-2e" transform="translate(63.623047 0)"/>
       <use xlink:href="#DejaVuSans-38" transform="translate(95.410156 0)"/>
       <use xlink:href="#DejaVuSans-35" transform="translate(159.033203 0)"/>
      </g>
     </g>
    </g>
    <g id="ytick_3">
     <g id="line2d_17">
      <path d="M 56.241563 263.941434 
L 614.241562 263.941434 
" clip-path="url(#p3e7bc8ea05)" style="fill: none; stroke-dasharray: 2.96,1.28; stroke-dashoffset: 0; stroke: #b0b0b0; stroke-opacity: 0.3; stroke-width: 0.8"/>
     </g>
     <g id="line2d_18">
      <g>
       <use xlink:href="#m6c82f9e7d4" x="56.241563" y="263.941434" style="stroke: #000000; stroke-width: 0.8"/>
      </g>
     </g>
     <g id="text_10">
      <!-- 0.90 -->
      <g transform="translate(24.749375 268.120575) scale(0.11 -0.11)">
       <defs>
        <path id="DejaVuSans-39" d="M 703 97 
L 703 672 
Q 941 559 1184 500 
Q 1428 441 1663 441 
Q 2288 441 2617 861 
Q 2947 1281 2994 2138 
Q 2813 1869 2534 1725 
Q 2256 1581 1919 1581 
Q 1219 1581 811 2004 
Q 403 2428 403 3163 
Q 403 3881 828 4315 
Q 1253 4750 1959 4750 
Q 2769 4750 3195 4129 
Q 3622 3509 3622 2328 
Q 3622 1225 3098 567 
Q 2575 -91 1691 -91 
Q 1453 -91 1209 -44 
Q 966 3 703 97 
z
M 1959 2075 
Q 2384 2075 2632 2365 
Q 2881 2656 2881 3163 
Q 2881 3666 2632 3958 
Q 2384 4250 1959 4250 
Q 1534 4250 1286 3958 
Q 1038 3666 1038 3163 
Q 1038 2656 1286 2365 
Q 1534 2075 1959 2075 
z
" transform="scale(0.015625)"/>
       </defs>
       <use xlink:href="#DejaVuSans-30"/>
       <use xlink:href="#DejaVuSans-2e" transform="translate(63.623047 0)"/>
       <use xlink:href="#DejaVuSans-39" transform="translate(95.410156 0)"/>
       <use xlink:href="#DejaVuSans-30" transform="translate(159.033203 0)"/>
      </g>
     </g>
    </g>
    <g id="ytick_4">
     <g id="line2d_19">
      <path d="M 56.241563 226.697445 
L 614.241562 226.697445 
" clip-path="url(#p3e7bc8ea05)" style="fill: none; stroke-dasharray: 2.96,1.28; stroke-dashoffset: 0; stroke: #b0b0b0; stroke-opacity: 0.3; stroke-width: 0.8"/>
     </g>
     <g id="line2d_20">
      <g>
       <use xlink:href="#m6c82f9e7d4" x="56.241563" y="226.697445" style="stroke: #000000; stroke-width: 0.8"/>
      </g>
     </g>
     <g id="text_11">
      <!-- 0.95 -->
      <g transform="translate(24.749375 230.876586) scale(0.11 -0.11)">
       <use xlink:href="#DejaVuSans-30"/>
       <use xlink:href="#DejaVuSans-2e" transform="translate(63.623047 0)"/>
       <use xlink:href="#DejaVuSans-39" transform="translate(95.410156 0)"/>
       <use xlink:href="#DejaVuSans-35" transform="translate(159.033203 0)"/>
      </g>
     </g>
    </g>
    <g id="ytick_5">
     <g id="line2d_21">
      <path d="M 56.241563 189.453456 
L 614.241562 189.453456 
" clip-path="url(#p3e7bc8ea05)" style="fill: none; stroke-dasharray: 2.96,1.28; stroke-dashoffset: 0; stroke: #b0b0b0; stroke-opacity: 0.3; stroke-width: 0.8"/>
     </g>
     <g id="line2d_22">
      <g>
       <use xlink:href="#m6c82f9e7d4" x="56.241563" y="189.453456" style="stroke: #000000; stroke-width: 0.8"/>
      </g>
     </g>
     <g id="text_12">
      <!-- 1.00 -->
      <g transform="translate(24.749375 193.632597) scale(0.11 -0.11)">
       <use xlink:href="#DejaVuSans-31"/>
       <use xlink:href="#DejaVuSans-2e" transform="translate(63.623047 0)"/>
       <use xlink:href="#DejaVuSans-30" transform="translate(95.410156 0)"/>
       <use xlink:href="#DejaVuSans-30" transform="translate(159.033203 0)"/>
      </g>
     </g>
    </g>
    <g id="ytick_6">
     <g id="line2d_23">
      <path d="M 56.241563 152.209467 
L 614.241562 152.209467 
" clip-path="url(#p3e7bc8ea05)" style="fill: none; stroke-dasharray: 2.96,1.28; stroke-dashoffset: 0; stroke: #b0b0b0; stroke-opacity: 0.3; stroke-width: 0.8"/>
     </g>
     <g id="line2d_24">
      <g>
       <use xlink:href="#m6c82f9e7d4" x="56.241563" y="152.209467" style="stroke: #000000; stroke-width: 0.8"/>
      </g>
     </g>
     <g id="text_13">
      <!-- 1.05 -->
      <g transform="translate(24.749375 156.388608) scale(0.11 -0.11)">
       <use xlink:href="#DejaVuSans-31"/>
       <use xlink:href="#DejaVuSans-2e" transform="translate(63.623047 0)"/>
       <use xlink:href="#DejaVuSans-30" transform="translate(95.410156 0)"/>
       <use xlink:href="#DejaVuSans-35" transform="translate(159.033203 0)"/>
      </g>
     </g>
    </g>
    <g id="ytick_7">
     <g id="line2d_25">
      <path d="M 56.241563 114.965478 
L 614.241562 114.965478 
" clip-path="url(#p3e7bc8ea05)" style="fill: none; stroke-dasharray: 2.96,1.28; stroke-dashoffset: 0; stroke: #b0b0b0; stroke-opacity: 0.3; stroke-width: 0.8"/>
     </g>
     <g id="line2d_26">
      <g>
       <use xlink:href="#m6c82f9e7d4" x="56.241563" y="114.965478" style="stroke: #000000; stroke-width: 0.8"/>
      </g>
     </g>
     <g id="text_14">
      <!-- 1.10 -->
      <g transform="translate(24.749375 119.144619) scale(0.11 -0.11)">
       <use xlink:href="#DejaVuSans-31"/>
       <use xlink:href="#DejaVuSans-2e" transform="translate(63.623047 0)"/>
       <use xlink:href="#DejaVuSans-31" transform="translate(95.410156 0)"/>
       <use xlink:href="#DejaVuSans-30" transform="translate(159.033203 0)"/>
      </g>
     </g>
    </g>
    <g id="ytick_8">
     <g id="line2d_27">
      <path d="M 56.241563 77.721489 
L 614.241562 77.721489 
" clip-path="url(#p3e7bc8ea05)" style="fill: none; stroke-dasharray: 2.96,1.28; stroke-dashoffset: 0; stroke: #b0b0b0; stroke-opacity: 0.3; stroke-width: 0.8"/>
     </g>
     <g id="line2d_28">
      <g>
       <use xlink:href="#m6c82f9e7d4" x="56.241563" y="77.721489" style="stroke: #000000; stroke-width: 0.8"/>
      </g>
     </g>
     <g id="text_15">
      <!-- 1.15 -->
      <g transform="translate(24.749375 81.90063) scale(0.11 -0.11)">
       <use xlink:href="#DejaVuSans-31"/>
       <use xlink:href="#DejaVuSans-2e" transform="translate(63.623047 0)"/>
       <use xlink:href="#DejaVuSans-31" transform="translate(95.410156 0)"/>
       <use xlink:href="#DejaVuSans-35" transform="translate(159.033203 0)"/>
      </g>
     </g>
    </g>
    <g id="ytick_9">
     <g id="line2d_29">
      <path d="M 56.241563 40.4775 
L 614.241562 40.4775 
" clip-path="url(#p3e7bc8ea05)" style="fill: none; stroke-dasharray: 2.96,1.28; stroke-dashoffset: 0; stroke: #b0b0b0; stroke-opacity: 0.3; stroke-width: 0.8"/>
     </g>
     <g id="line2d_30">
      <g>
       <use xlink:href="#m6c82f9e7d4" x="56.241563" y="40.4775" style="stroke: #000000; stroke-width: 0.8"/>
      </g>
     </g>
     <g id="text_16">
      <!-- 1.20 -->
      <g transform="translate(24.749375 44.656641) scale(0.11 -0.11)">
       <use xlink:href="#DejaVuSans-31"/>
       <use xlink:href="#DejaVuSans-2e" transform="translate(63.623047 0)"/>
       <use xlink:href="#DejaVuSans-32" transform="translate(95.410156 0)"/>
       <use xlink:href="#DejaVuSans-30" transform="translate(159.033203 0)"/>
      </g>
     </g>
    </g>
    <g id="text_17">
     <!-- S (%) -->
     <g transform="translate(17.837813 210.459375) rotate(-90) scale(0.14 -0.14)">
      <defs>
       <path id="DejaVuSans-28" d="M 1984 4856 
Q 1566 4138 1362 3434 
Q 1159 2731 1159 2009 
Q 1159 1288 1364 580 
Q 1569 -128 1984 -844 
L 1484 -844 
Q 1016 -109 783 600 
Q 550 1309 550 2009 
Q 550 2706 781 3412 
Q 1013 4119 1484 4856 
L 1984 4856 
z
" transform="scale(0.015625)"/>
       <path id="DejaVuSans-25" d="M 4653 2053 
Q 4381 2053 4226 1822 
Q 4072 1591 4072 1178 
Q 4072 772 4226 539 
Q 4381 306 4653 306 
Q 4919 306 5073 539 
Q 5228 772 5228 1178 
Q 5228 1588 5073 1820 
Q 4919 2053 4653 2053 
z
M 4653 2450 
Q 5147 2450 5437 2106 
Q 5728 1763 5728 1178 
Q 5728 594 5436 251 
Q 5144 -91 4653 -91 
Q 4153 -91 3862 251 
Q 3572 594 3572 1178 
Q 3572 1766 3864 2108 
Q 4156 2450 4653 2450 
z
M 1428 4353 
Q 1159 4353 1004 4120 
Q 850 3888 850 3481 
Q 850 3069 1003 2837 
Q 1156 2606 1428 2606 
Q 1700 2606 1854 2837 
Q 2009 3069 2009 3481 
Q 2009 3884 1853 4118 
Q 1697 4353 1428 4353 
z
M 4250 4750 
L 4750 4750 
L 1831 -91 
L 1331 -91 
L 4250 4750 
z
M 1428 4750 
Q 1922 4750 2215 4408 
Q 2509 4066 2509 3481 
Q 2509 2891 2217 2550 
Q 1925 2209 1428 2209 
Q 931 2209 642 2551 
Q 353 2894 353 3481 
Q 353 4063 643 4406 
Q 934 4750 1428 4750 
z
" transform="scale(0.015625)"/>
       <path id="DejaVuSans-29" d="M 513 4856 
L 1013 4856 
Q 1481 4119 1714 3412 
Q 1947 2706 1947 2009 
Q 1947 1309 1714 600 
Q 1481 -109 1013 -844 
L 513 -844 
Q 928 -128 1133 580 
Q 1338 1288 1338 2009 
Q 1338 2731 1133 3434 
Q 928 4138 513 4856 
z
" transform="scale(0.015625)"/>
      </defs>
      <use xlink:href="#DejaVuSans-53"/>
      <use xlink:href="#DejaVuSans-20" transform="translate(63.476562 0)"/>
      <use xlink:href="#DejaVuSans-28" transform="translate(95.263672 0)"/>
      <use xlink:href="#DejaVuSans-25" transform="translate(134.277344 0)"/>
      <use xlink:href="#DejaVuSans-29" transform="translate(229.296875 0)"/>
     </g>
    </g>
   </g>
   <g id="line2d_31">
    <path d="M 81.605199 272.571491 
L 83.490971 269.911462 
L 85.376743 268.58276 
L 87.262516 215.823611 
L 89.148288 190.215412 
L 91.03406 243.958701 
L 92.919832 319.761134 
L 94.805604 277.432925 
L 96.691377 246.086116 
L 98.577149 244.819394 
L 100.462921 185.69137 
L 102.348693 280.107839 
L 104.234466 200.395072 
L 106.120238 292.060965 
L 108.00601 219.083622 
L 109.891782 245.039631 
L 111.777554 239.314571 
L 113.663327 280.430755 
L 115.549099 304.987928 
L 117.434871 274.139471 
L 119.320643 328.938491 
L 121.206415 278.800291 
L 123.092188 245.230589 
L 124.97796 306.944351 
L 126.863732 261.981376 
L 128.749504 253.438632 
L 130.635277 258.930151 
L 132.521049 263.295633 
L 134.406821 239.718889 
L 136.292593 287.190696 
L 138.178365 267.120125 
L 140.064138 211.410415 
L 141.94991 273.026106 
L 143.835682 294.271455 
L 145.721454 339.323768 
L 147.607227 246.292175 
L 149.492999 217.086927 
L 151.378771 199.866841 
L 153.264543 299.873035 
L 155.150315 258.210952 
L 157.036088 251.993572 
L 158.92186 313.816565 
L 160.807632 341.33662 
L 162.693404 301.552635 
L 164.579177 290.12148 
L 166.464949 310.790936 
L 168.350721 256.064214 
L 170.236493 173.322245 
L 172.122265 284.731962 
L 174.008038 253.593495 
L 175.89381 261.579793 
L 177.779582 234.563303 
L 179.665354 229.141022 
L 181.551127 238.454858 
L 183.436899 228.964096 
L 185.322671 274.829079 
L 187.208443 241.729138 
L 189.094215 248.913533 
L 190.979988 237.094638 
L 192.86576 308.644213 
L 194.751532 298.031162 
L 196.637304 247.961047 
L 198.523077 247.938043 
L 200.408849 220.26756 
L 202.294621 284.123623 
L 204.180393 253.059211 
L 206.066165 314.428079 
L 207.951938 242.557475 
L 209.83771 229.732843 
L 211.723482 297.32139 
L 213.609254 241.424884 
L 215.495027 277.484259 
L 217.380799 289.297763 
L 219.266571 234.203976 
L 221.152343 292.855751 
L 223.038115 237.171631 
L 224.923888 282.573115 
L 226.80966 322.838937 
L 228.695432 200.717458 
L 230.581204 267.735427 
L 232.466976 283.668845 
L 234.352749 292.215809 
L 236.238521 266.863067 
L 238.124293 243.854681 
L 240.010065 305.695691 
L 241.895838 235.65738 
L 243.78161 269.229032 
L 245.667382 281.930041 
L 247.553154 337.624556 
L 249.438926 297.31958 
L 251.324699 253.80102 
L 253.210471 301.144128 
L 255.096243 244.230445 
L 256.982015 299.463631 
L 258.867788 226.68945 
L 260.75356 260.488751 
L 262.639332 250.922861 
L 264.525104 288.914754 
L 266.410876 337.073811 
L 268.296649 218.013529 
L 270.182421 213.400393 
L 272.068193 282.893195 
L 273.953965 275.042937 
L 277.72551 306.577432 
L 279.611282 241.050485 
L 281.497054 217.114983 
L 283.382826 254.598863 
L 285.268599 333.679384 
L 287.154371 342.8775 
L 289.040143 310.525431 
L 290.925915 245.854779 
L 292.811688 301.347391 
L 294.69746 291.336034 
L 296.583232 287.187484 
L 298.469004 227.084238 
L 300.354776 199.938518 
L 302.240549 256.747341 
L 304.126321 225.436079 
L 306.012093 288.236964 
L 307.897865 293.164952 
L 309.783638 199.350774 
L 311.66941 157.159625 
L 313.555182 326.654749 
L 315.440954 215.397942 
L 317.326726 279.160403 
L 319.212499 298.958466 
L 321.098271 321.091933 
L 322.984043 299.068296 
L 324.869815 262.044167 
L 326.755588 184.623647 
L 328.64136 254.544562 
L 330.527132 240.676338 
L 332.412904 239.643357 
L 334.298676 287.359992 
L 336.184449 275.428681 
L 338.070221 238.842425 
L 339.955993 210.586574 
L 341.841765 334.451261 
L 343.727537 282.988884 
L 345.61331 292.847595 
L 347.499082 248.542044 
L 349.384854 209.516511 
L 351.270626 261.750541 
L 353.156399 252.21704 
L 355.042171 145.167954 
L 356.927943 193.298329 
L 358.813715 253.70985 
L 360.699487 184.769812 
L 362.58526 272.691246 
L 364.471032 278.474829 
L 366.356804 263.914679 
L 368.242576 286.405438 
L 370.128349 248.454732 
L 372.014121 251.290569 
L 373.899893 312.302143 
L 377.671437 238.642749 
L 379.55721 221.946726 
L 381.442982 245.874829 
L 383.328754 260.393454 
L 385.214526 268.642962 
L 387.100299 318.833454 
L 388.986071 258.262608 
L 390.871843 257.874075 
L 392.757615 286.879618 
L 394.643387 272.801594 
L 396.52916 228.736792 
L 398.414932 273.043492 
L 400.300704 259.472216 
L 402.186476 265.819961 
L 404.072249 200.896129 
L 405.958021 284.440747 
L 407.843793 266.509255 
L 409.729565 295.429466 
L 411.615337 259.506107 
L 413.50111 203.810871 
L 415.386882 229.700862 
L 417.272654 264.687039 
L 419.158426 217.823891 
L 421.044199 302.104073 
L 422.929971 226.605328 
L 424.815743 280.117012 
L 426.701515 254.756339 
L 428.587287 231.371416 
L 430.47306 291.419268 
L 432.358832 196.826542 
L 434.244604 239.046076 
L 436.130376 242.22896 
L 438.016149 169.74517 
L 439.901921 258.472716 
L 441.787693 228.036631 
L 443.673465 208.49431 
L 445.559237 241.294598 
L 447.44501 109.977927 
L 449.330782 320.470781 
L 451.216554 248.466761 
L 453.102326 223.946464 
L 454.988098 237.101429 
L 456.873871 253.695918 
L 458.759643 288.933193 
L 460.645415 282.51766 
L 462.531187 242.128148 
L 464.41696 214.287181 
L 466.302732 320.046375 
L 468.188504 259.412124 
L 470.074276 284.776062 
L 471.960048 254.949456 
L 473.845821 229.425083 
L 475.731593 277.735761 
L 477.617365 304.039679 
L 479.503137 258.482895 
L 481.38891 230.568911 
L 483.274682 304.879807 
L 485.160454 226.741534 
L 487.046226 261.447015 
L 488.931998 330.62876 
L 490.817771 209.028937 
L 492.703543 295.008366 
L 494.589315 280.020966 
L 496.475087 223.709308 
L 498.36086 250.287362 
L 500.246632 233.240209 
L 502.132404 275.355827 
L 504.018176 283.171625 
L 505.903948 228.387121 
L 507.789721 180.701715 
L 509.675493 229.623854 
L 511.561265 268.871829 
L 513.447037 228.121731 
L 515.33281 233.634625 
L 517.218582 249.063062 
L 519.104354 229.702037 
L 520.990126 255.708792 
L 522.875898 111.281836 
L 524.761671 261.57876 
L 526.647443 169.413707 
L 528.533215 248.710973 
L 530.418987 257.9429 
L 532.30476 228.213787 
L 534.190532 218.499095 
L 536.076304 226.621041 
L 537.962076 223.633377 
L 539.847848 226.15997 
L 541.733621 211.357348 
L 543.619393 226.192736 
L 545.505165 259.435325 
L 547.390937 215.629356 
L 549.27671 268.561887 
L 551.162482 228.049036 
L 553.048254 172.016307 
L 554.934026 142.800756 
L 556.819798 211.076771 
L 558.705571 320.496321 
L 560.591343 244.330624 
L 562.477115 205.821945 
L 564.362887 207.765985 
L 566.248659 174.043507 
L 568.134432 195.046418 
L 570.020204 264.296819 
L 571.905976 228.29964 
L 573.791748 231.743423 
L 575.677521 203.182155 
L 577.563293 267.249188 
L 579.449065 206.730376 
L 581.334837 236.454238 
L 583.220609 295.485769 
L 585.106382 226.589461 
L 586.992154 238.16059 
L 588.877926 255.957335 
L 588.877926 255.957335 
" clip-path="url(#p3e7bc8ea05)" style="fill: none; stroke: #0052e0; stroke-width: 2; stroke-linecap: square"/>
   </g>
   <g id="line2d_32">
    <path d="M 56.241563 189.453456 
L 614.241562 189.453456 
" clip-path="url(#p3e7bc8ea05)" style="fill: none; stroke-dasharray: 5.55,2.4; stroke-dashoffset: 0; stroke: #00a86b; stroke-opacity: 0.5; stroke-width: 1.5"/>
   </g>
   <g id="line2d_33">
    <path d="M 81.605199 357.9975 
L 81.605199 25.3575 
" clip-path="url(#p3e7bc8ea05)" style="fill: none; stroke-dasharray: 1.5,2.475; stroke-dashoffset: 0; stroke: #ff6b35; stroke-opacity: 0.7; stroke-width: 1.5"/>
   </g>
   <g id="patch_4">
    <path d="M 56.241563 357.9975 
L 56.241563 25.3575 
" style="fill: none; stroke: #000000; stroke-width: 0.8; stroke-linejoin: miter; stroke-linecap: square"/>
   </g>
   <g id="patch_5">
    <path d="M 56.241563 357.9975 
L 614.241563 357.9975 
" style="fill: none; stroke: #000000; stroke-width: 0.8; stroke-linejoin: miter; stroke-linecap: square"/>
   </g>
   <g id="text_18">
    <g id="patch_6">
     <path d="M 67.401563 47.22405 
L 147.666563 47.22405 
Q 151.266563 47.22405 151.266563 43.62405 
L 151.266563 32.0103 
Q 151.266563 28.4103 147.666563 28.4103 
L 67.401563 28.4103 
Q 63.801563 28.4103 63.801563 32.0103 
L 63.801563 43.62405 
Q 63.801563 47.22405 67.401563 47.22405 
z
" style="fill: #ffffff; opacity: 0.8; stroke: #000000; stroke-linejoin: miter"/>
    </g>
    <!-- SSE: 0.068pp -->
    <g transform="translate(67.401563 41.128425) scale(0.12 -0.12)">
     <defs>
      <path id="DejaVuSans-45" d="M 628 4666 
L 3578 4666 
L 3578 4134 
L 1259 4134 
L 1259 2753 
L 3481 2753 
L 3481 2222 
L 1259 2222 
L 1259 531 
L 3634 531 
L 3634 0 
L 628 0 
L 628 4666 
z
" transform="scale(0.015625)"/>
      <path id="DejaVuSans-3a" d="M 750 794 
L 1409 794 
L 1409 0 
L 750 0 
L 750 794 
z
M 750 3309 
L 1409 3309 
L 1409 2516 
L 750 2516 
L 750 3309 
z
" transform="scale(0.015625)"/>
      <path id="DejaVuSans-36" d="M 2113 2584 
Q 1688 2584 1439 2293 
Q 1191 2003 1191 1497 
Q 1191 994 1439 701 
Q 1688 409 2113 409 
Q 2538 409 2786 701 
Q 3034 994 3034 1497 
Q 3034 2003 2786 2293 
Q 2538 2584 2113 2584 
z
M 3366 4563 
L 3366 3988 
Q 3128 4100 2886 4159 
Q 2644 4219 2406 4219 
Q 1781 4219 1451 3797 
Q 1122 3375 1075 2522 
Q 1259 2794 1537 2939 
Q 1816 3084 2150 3084 
Q 2853 3084 3261 2657 
Q 3669 2231 3669 1497 
Q 3669 778 3244 343 
Q 2819 -91 2113 -91 
Q 1303 -91 875 529 
Q 447 1150 447 2328 
Q 447 3434 972 4092 
Q 1497 4750 2381 4750 
Q 2619 4750 2861 4703 
Q 3103 4656 3366 4563 
z
" transform="scale(0.015625)"/>
     </defs>
     <use xlink:href="#DejaVuSans-53"/>
     <use xlink:href="#DejaVuSans-53" transform="translate(63.476562 0)"/>
     <use xlink:href="#DejaVuSans-45" transform="translate(126.953125 0)"/>
     <use xlink:href="#DejaVuSans-3a" transform="translate(190.136719 0)"/>
     <use xlink:href="#DejaVuSans-20" transform="translate(223.828125 0)"/>
     <use xlink:href="#DejaVuSans-30" transform="translate(255.615234 0)"/>
     <use xlink:href="#DejaVuSans-2e" transform="translate(319.238281 0)"/>
     <use xlink:href="#DejaVuSans-30" transform="translate(351.025391 0)"/>
     <use xlink:href="#DejaVuSans-36" transform="translate(414.648438 0)"/>
     <use xlink:href="#DejaVuSans-38" transform="translate(478.271484 0)"/>
     <use xlink:href="#DejaVuSans-70" transform="translate(541.894531 0)"/>
     <use xlink:href="#DejaVuSans-70" transform="translate(605.371094 0)"/>
    </g>
   </g>
   <g id="text_19">
    <!-- SCU Control: S(t) Tracking Target -->
    <g transform="translate(185.911562 19.3575) scale(0.16 -0.16)">
     <defs>
      <path id="DejaVuSans-Bold-53" d="M 3834 4519 
L 3834 3531 
Q 3450 3703 3084 3790 
Q 2719 3878 2394 3878 
Q 1963 3878 1756 3759 
Q 1550 3641 1550 3391 
Q 1550 3203 1689 3098 
Q 1828 2994 2194 2919 
L 2706 2816 
Q 3484 2659 3812 2340 
Q 4141 2022 4141 1434 
Q 4141 663 3683 286 
Q 3225 -91 2284 -91 
Q 1841 -91 1394 -6 
Q 947 78 500 244 
L 500 1259 
Q 947 1022 1364 901 
Q 1781 781 2169 781 
Q 2563 781 2772 912 
Q 2981 1044 2981 1288 
Q 2981 1506 2839 1625 
Q 2697 1744 2272 1838 
L 1806 1941 
Q 1106 2091 782 2419 
Q 459 2747 459 3303 
Q 459 4000 909 4375 
Q 1359 4750 2203 4750 
Q 2588 4750 2994 4692 
Q 3400 4634 3834 4519 
z
" transform="scale(0.015625)"/>
      <path id="DejaVuSans-Bold-43" d="M 4288 256 
Q 3956 84 3597 -3 
Q 3238 -91 2847 -91 
Q 1681 -91 1000 561 
Q 319 1213 319 2328 
Q 319 3447 1000 4098 
Q 1681 4750 2847 4750 
Q 3238 4750 3597 4662 
Q 3956 4575 4288 4403 
L 4288 3438 
Q 3953 3666 3628 3772 
Q 3303 3878 2944 3878 
Q 2300 3878 1931 3465 
Q 1563 3053 1563 2328 
Q 1563 1606 1931 1193 
Q 2300 781 2944 781 
Q 3303 781 3628 887 
Q 3953 994 4288 1222 
L 4288 256 
z
" transform="scale(0.015625)"/>
      <path id="DejaVuSans-Bold-55" d="M 588 4666 
L 1791 4666 
L 1791 1869 
Q 1791 1291 1980 1042 
Q 2169 794 2597 794 
Q 3028 794 3217 1042 
Q 3406 1291 3406 1869 
L 3406 4666 
L 4609 4666 
L 4609 1869 
Q 4609 878 4112 393 
Q 3616 -91 2597 -91 
Q 1581 -91 1084 393 
Q 588 878 588 1869 
L 588 4666 
z
" transform="scale(0.015625)"/>
      <path id="DejaVuSans-Bold-20" transform="scale(0.015625)"/>
      <path id="DejaVuSans-Bold-6f" d="M 2203 2784 
Q 1831 2784 1636 2517 
Q 1441 2250 1441 1747 
Q 1441 1244 1636 976 
Q 1831 709 2203 709 
Q 2569 709 2762 976 
Q 2956 1244 2956 1747 
Q 2956 2250 2762 2517 
Q 2569 2784 2203 2784 
z
M 2203 3584 
Q 3106 3584 3614 3096 
Q 4122 2609 4122 1747 
Q 4122 884 3614 396 
Q 3106 -91 2203 -91 
Q 1297 -91 786 396 
Q 275 884 275 1747 
Q 275 2609 786 3096 
Q 1297 3584 2203 3584 
z
" transform="scale(0.015625)"/>
      <path id="DejaVuSans-Bold-6e" d="M 4056 2131 
L 4056 0 
L 2931 0 
L 2931 347 
L 2931 1631 
Q 2931 2084 2911 2256 
Q 2891 2428 2841 2509 
Q 2775 2619 2662 2680 
Q 2550 2741 2406 2741 
Q 2056 2741 1856 2470 
Q 1656 2200 1656 1722 
L 1656 0 
L 538 0 
L 538 3500 
L 1656 3500 
L 1656 2988 
Q 1909 3294 2193 3439 
Q 2478 3584 2822 3584 
Q 3428 3584 3742 3212 
Q 4056 2841 4056 2131 
z
" transform="scale(0.015625)"/>
      <path id="DejaVuSans-Bold-74" d="M 1759 4494 
L 1759 3500 
L 2913 3500 
L 2913 2700 
L 1759 2700 
L 1759 1216 
Q 1759 972 1856 886 
Q 1953 800 2241 800 
L 2816 800 
L 2816 0 
L 1856 0 
Q 1194 0 917 276 
Q 641 553 641 1216 
L 641 2700 
L 84 2700 
L 84 3500 
L 641 3500 
L 641 4494 
L 1759 4494 
z
" transform="scale(0.015625)"/>
      <path id="DejaVuSans-Bold-72" d="M 3138 2547 
Q 2991 2616 2845 2648 
Q 2700 2681 2553 2681 
Q 2122 2681 1889 2404 
Q 1656 2128 1656 1613 
L 1656 0 
L 538 0 
L 538 3500 
L 1656 3500 
L 1656 2925 
Q 1872 3269 2151 3426 
Q 2431 3584 2822 3584 
Q 2878 3584 2943 3579 
Q 3009 3575 3134 3559 
L 3138 2547 
z
" transform="scale(0.015625)"/>
      <path id="DejaVuSans-Bold-6c" d="M 538 4863 
L 1656 4863 
L 1656 0 
L 538 0 
L 538 4863 
z
" transform="scale(0.015625)"/>
      <path id="DejaVuSans-Bold-3a" d="M 716 3500 
L 1844 3500 
L 1844 2291 
L 716 2291 
L 716 3500 
z
M 716 1209 
L 1844 1209 
L 1844 0 
L 716 0 
L 716 1209 
z
" transform="scale(0.015625)"/>
      <path id="DejaVuSans-Bold-28" d="M 2413 -844 
L 1484 -844 
Q 1006 -72 778 623 
Q 550 1319 550 2003 
Q 550 2688 779 3389 
Q 1009 4091 1484 4856 
L 2413 4856 
Q 2013 4116 1813 3408 
Q 1613 2700 1613 2009 
Q 1613 1319 1811 609 
Q 2009 -100 2413 -844 
z
" transform="scale(0.015625)"/>
      <path id="DejaVuSans-Bold-29" d="M 513 -844 
Q 913 -100 1113 609 
Q 1313 1319 1313 2009 
Q 1313 2700 1113 3408 
Q 913 4116 513 4856 
L 1441 4856 
Q 1916 4091 2145 3389 
Q 2375 2688 2375 2003 
Q 2375 1319 2147 623 
Q 1919 -72 1441 -844 
L 513 -844 
z
" transform="scale(0.015625)"/>
      <path id="DejaVuSans-Bold-54" d="M 31 4666 
L 4331 4666 
L 4331 3756 
L 2784 3756 
L 2784 0 
L 1581 0 
L 1581 3756 
L 31 3756 
L 31 4666 
z
" transform="scale(0.015625)"/>
      <path id="DejaVuSans-Bold-61" d="M 2106 1575 
Q 1756 1575 1579 1456 
Q 1403 1338 1403 1106 
Q 1403 894 1545 773 
Q 1688 653 1941 653 
Q 2256 653 2472 879 
Q 2688 1106 2688 1447 
L 2688 1575 
L 2106 1575 
z
M 3816 1997 
L 3816 0 
L 2688 0 
L 2688 519 
Q 2463 200 2181 54 
Q 1900 -91 1497 -91 
Q 953 -91 614 226 
Q 275 544 275 1050 
Q 275 1666 698 1953 
Q 1122 2241 2028 2241 
L 2688 2241 
L 2688 2328 
Q 2688 2594 2478 2717 
Q 2269 2841 1825 2841 
Q 1466 2841 1156 2769 
Q 847 2697 581 2553 
L 581 3406 
Q 941 3494 1303 3539 
Q 1666 3584 2028 3584 
Q 2975 3584 3395 3211 
Q 3816 2838 3816 1997 
z
" transform="scale(0.015625)"/>
      <path id="DejaVuSans-Bold-63" d="M 3366 3391 
L 3366 2478 
Q 3138 2634 2908 2709 
Q 2678 2784 2431 2784 
Q 1963 2784 1702 2511 
Q 1441 2238 1441 1747 
Q 1441 1256 1702 982 
Q 1963 709 2431 709 
Q 2694 709 2930 787 
Q 3166 866 3366 1019 
L 3366 103 
Q 3103 6 2833 -42 
Q 2563 -91 2291 -91 
Q 1344 -91 809 395 
Q 275 881 275 1747 
Q 275 2613 809 3098 
Q 1344 3584 2291 3584 
Q 2566 3584 2833 3536 
Q 3100 3488 3366 3391 
z
" transform="scale(0.015625)"/>
      <path id="DejaVuSans-Bold-6b" d="M 538 4863 
L 1656 4863 
L 1656 2216 
L 2944 3500 
L 4244 3500 
L 2534 1894 
L 4378 0 
L 3022 0 
L 1656 1459 
L 1656 0 
L 538 0 
L 538 4863 
z
" transform="scale(0.015625)"/>
      <path id="DejaVuSans-Bold-69" d="M 538 3500 
L 1656 3500 
L 1656 0 
L 538 0 
L 538 3500 
z
M 538 4863 
L 1656 4863 
L 1656 3950 
L 538 3950 
L 538 4863 
z
" transform="scale(0.015625)"/>
      <path id="DejaVuSans-Bold-67" d="M 2919 594 
Q 2688 288 2409 144 
Q 2131 0 1766 0 
Q 1125 0 706 504 
Q 288 1009 288 1791 
Q 288 2575 706 3076 
Q 1125 3578 1766 3578 
Q 2131 3578 2409 3434 
Q 2688 3291 2919 2981 
L 2919 3500 
L 4044 3500 
L 4044 353 
Q 4044 -491 3511 -936 
Q 2978 -1381 1966 -1381 
Q 1638 -1381 1331 -1331 
Q 1025 -1281 716 -1178 
L 716 -306 
Q 1009 -475 1290 -558 
Q 1572 -641 1856 -641 
Q 2406 -641 2662 -400 
Q 2919 -159 2919 353 
L 2919 594 
z
M 2181 2772 
Q 1834 2772 1640 2515 
Q 1447 2259 1447 1791 
Q 1447 1309 1634 1061 
Q 1822 813 2181 813 
Q 2531 813 2725 1069 
Q 2919 1325 2919 1791 
Q 2919 2259 2725 2515 
Q 2531 2772 2181 2772 
z
" transform="scale(0.015625)"/>
      <path id="DejaVuSans-Bold-65" d="M 4031 1759 
L 4031 1441 
L 1416 1441 
Q 1456 1047 1700 850 
Q 1944 653 2381 653 
Q 2734 653 3104 758 
Q 3475 863 3866 1075 
L 3866 213 
Q 3469 63 3072 -14 
Q 2675 -91 2278 -91 
Q 1328 -91 801 392 
Q 275 875 275 1747 
Q 275 2603 792 3093 
Q 1309 3584 2216 3584 
Q 3041 3584 3536 3087 
Q 4031 2591 4031 1759 
z
M 2881 2131 
Q 2881 2450 2695 2645 
Q 2509 2841 2209 2841 
Q 1884 2841 1681 2658 
Q 1478 2475 1428 2131 
L 2881 2131 
z
" transform="scale(0.015625)"/>
     </defs>
     <use xlink:href="#DejaVuSans-Bold-53"/>
     <use xlink:href="#DejaVuSans-Bold-43" transform="translate(72.021484 0)"/>
     <use xlink:href="#DejaVuSans-Bold-55" transform="translate(145.410156 0)"/>
     <use xlink:href="#DejaVuSans-Bold-20" transform="translate(226.611328 0)"/>
     <use xlink:href="#DejaVuSans-Bold-43" transform="translate(261.425781 0)"/>
     <use xlink:href="#DejaVuSans-Bold-6f" transform="translate(334.814453 0)"/>
     <use xlink:href="#DejaVuSans-Bold-6e" transform="translate(403.515625 0)"/>
     <use xlink:href="#DejaVuSans-Bold-74" transform="translate(474.707031 0)"/>
     <use xlink:href="#DejaVuSans-Bold-72" transform="translate(522.509766 0)"/>
     <use xlink:href="#DejaVuSans-Bold-6f" transform="translate(571.826172 0)"/>
     <use xlink:href="#DejaVuSans-Bold-6c" transform="translate(640.527344 0)"/>
     <use xlink:href="#DejaVuSans-Bold-3a" transform="translate(674.804688 0)"/>
     <use xlink:href="#DejaVuSans-Bold-20" transform="translate(714.794922 0)"/>
     <use xlink:href="#DejaVuSans-Bold-53" transform="translate(749.609375 0)"/>
     <use xlink:href="#DejaVuSans-Bold-28" transform="translate(821.630859 0)"/>
     <use xlink:href="#DejaVuSans-Bold-74" transform="translate(867.333984 0)"/>
     <use xlink:href="#DejaVuSans-Bold-29" transform="translate(915.136719 0)"/>
     <use xlink:href="#DejaVuSans-Bold-20" transform="translate(960.839844 0)"/>
     <use xlink:href="#DejaVuSans-Bold-54" transform="translate(995.654297 0)"/>
     <use xlink:href="#DejaVuSans-Bold-72" transform="translate(1052.867188 0)"/>
     <use xlink:href="#DejaVuSans-Bold-61" transform="translate(1102.183594 0)"/>
     <use xlink:href="#DejaVuSans-Bold-63" transform="translate(1169.664062 0)"/>
     <use xlink:href="#DejaVuSans-Bold-6b" transform="translate(1228.941406 0)"/>
     <use xlink:href="#DejaVuSans-Bold-69" transform="translate(1295.445312 0)"/>
     <use xlink:href="#DejaVuSans-Bold-6e" transform="translate(1329.722656 0)"/>
     <use xlink:href="#DejaVuSans-Bold-67" transform="translate(1400.914062 0)"/>
     <use xlink:href="#DejaVuSans-Bold-20" transform="translate(1472.496094 0)"/>
     <use xlink:href="#DejaVuSans-Bold-54" transform="translate(1507.310547 0)"/>
     <use xlink:href="#DejaVuSans-Bold-61" transform="translate(1562.648438 0)"/>
     <use xlink:href="#DejaVuSans-Bold-72" transform="translate(1630.128906 0)"/>
     <use xlink:href="#DejaVuSans-Bold-67" transform="translate(1679.445312 0)"/>
     <use xlink:href="#DejaVuSans-Bold-65" transform="translate(1751.027344 0)"/>
     <use xlink:href="#DejaVuSans-Bold-74" transform="translate(1818.849609 0)"/>
    </g>
   </g>
   <g id="legend_1">
    <g id="patch_7">
     <path d="M 454.487187 82.595312 
L 606.541562 82.595312 
Q 608.741562 82.595312 608.741562 80.395312 
L 608.741562 33.0575 
Q 608.741562 30.8575 606.541562 30.8575 
L 454.487187 30.8575 
Q 452.287187 30.8575 452.287187 33.0575 
L 452.287187 80.395312 
Q 452.287187 82.595312 454.487187 82.595312 
z
" style="fill: #ffffff; opacity: 0.8; stroke: #cccccc; stroke-linejoin: miter"/>
    </g>
    <g id="line2d_34">
     <path d="M 456.687187 39.765781 
L 467.687187 39.765781 
L 478.687187 39.765781 
" style="fill: none; stroke: #0052e0; stroke-width: 2; stroke-linecap: square"/>
    </g>
    <g id="text_20">
     <!-- S(t) -->
     <g transform="translate(487.487187 43.615781) scale(0.11 -0.11)">
      <use xlink:href="#DejaVuSans-53"/>
      <use xlink:href="#DejaVuSans-28" transform="translate(63.476562 0)"/>
      <use xlink:href="#DejaVuSans-74" transform="translate(102.490234 0)"/>
      <use xlink:href="#DejaVuSans-29" transform="translate(141.699219 0)"/>
     </g>
    </g>
    <g id="patch_8">
     <path d="M 456.687187 59.761719 
L 478.687187 59.761719 
L 478.687187 52.061719 
L 456.687187 52.061719 
z
" style="fill: #e8f4ff; opacity: 0.3; stroke: #e8f4ff; stroke-linejoin: miter"/>
    </g>
    <g id="text_21">
     <!-- Target: 1.0% ± 0.2pp -->
     <g transform="translate(487.487187 59.761719) scale(0.11 -0.11)">
      <defs>
       <path id="DejaVuSans-b1" d="M 2944 4013 
L 2944 2803 
L 4684 2803 
L 4684 2272 
L 2944 2272 
L 2944 1063 
L 2419 1063 
L 2419 2272 
L 678 2272 
L 678 2803 
L 2419 2803 
L 2419 4013 
L 2944 4013 
z
M 678 531 
L 4684 531 
L 4684 0 
L 678 0 
L 678 531 
z
" transform="scale(0.015625)"/>
      </defs>
      <use xlink:href="#DejaVuSans-54"/>
      <use xlink:href="#DejaVuSans-61" transform="translate(44.583984 0)"/>
      <use xlink:href="#DejaVuSans-72" transform="translate(105.863281 0)"/>
      <use xlink:href="#DejaVuSans-67" transform="translate(145.226562 0)"/>
      <use xlink:href="#DejaVuSans-65" transform="translate(208.703125 0)"/>
      <use xlink:href="#DejaVuSans-74" transform="translate(270.226562 0)"/>
      <use xlink:href="#DejaVuSans-3a" transform="translate(309.435547 0)"/>
      <use xlink:href="#DejaVuSans-20" transform="translate(343.126953 0)"/>
      <use xlink:href="#DejaVuSans-31" transform="translate(374.914062 0)"/>
      <use xlink:href="#DejaVuSans-2e" transform="translate(438.537109 0)"/>
      <use xlink:href="#DejaVuSans-30" transform="translate(470.324219 0)"/>
      <use xlink:href="#DejaVuSans-25" transform="translate(533.947266 0)"/>
      <use xlink:href="#DejaVuSans-20" transform="translate(628.966797 0)"/>
      <use xlink:href="#DejaVuSans-b1" transform="translate(660.753906 0)"/>
      <use xlink:href="#DejaVuSans-20" transform="translate(744.542969 0)"/>
      <use xlink:href="#DejaVuSans-30" transform="translate(776.330078 0)"/>
      <use xlink:href="#DejaVuSans-2e" transform="translate(839.953125 0)"/>
      <use xlink:href="#DejaVuSans-32" transform="translate(871.740234 0)"/>
      <use xlink:href="#DejaVuSans-70" transform="translate(935.363281 0)"/>
      <use xlink:href="#DejaVuSans-70" transform="translate(998.839844 0)"/>
     </g>
    </g>
    <g id="line2d_35">
     <path d="M 456.687187 72.057656 
L 467.687187 72.057656 
L 478.687187 72.057656 
" style="fill: none; stroke-dasharray: 1.5,2.475; stroke-dashoffset: 0; stroke: #ff6b35; stroke-opacity: 0.7; stroke-width: 1.5"/>
    </g>
    <g id="text_22">
     <!-- Settling: 0 steps -->
     <g transform="translate(487.487187 75.907656) scale(0.11 -0.11)">
      <defs>
       <path id="DejaVuSans-6c" d="M 603 4863 
L 1178 4863 
L 1178 0 
L 603 0 
L 603 4863 
z
" transform="scale(0.015625)"/>
       <path id="DejaVuSans-73" d="M 2834 3397 
L 2834 2853 
Q 2591 2978 2328 3040 
Q 2066 3103 1784 3103 
Q 1356 3103 1142 2972 
Q 928 2841 928 2578 
Q 928 2378 1081 2264 
Q 1234 2150 1697 2047 
L 1894 2003 
Q 2506 1872 2764 1633 
Q 3022 1394 3022 966 
Q 3022 478 2636 193 
Q 2250 -91 1575 -91 
Q 1294 -91 989 -36 
Q 684 19 347 128 
L 347 722 
Q 666 556 975 473 
Q 1284 391 1588 391 
Q 1994 391 2212 530 
Q 2431 669 2431 922 
Q 2431 1156 2273 1281 
Q 2116 1406 1581 1522 
L 1381 1569 
Q 847 1681 609 1914 
Q 372 2147 372 2553 
Q 372 3047 722 3315 
Q 1072 3584 1716 3584 
Q 2034 3584 2315 3537 
Q 2597 3491 2834 3397 
z
" transform="scale(0.015625)"/>
      </defs>
      <use xlink:href="#DejaVuSans-53"/>
      <use xlink:href="#DejaVuSans-65" transform="translate(63.476562 0)"/>
      <use xlink:href="#DejaVuSans-74" transform="translate(125 0)"/>
      <use xlink:href="#DejaVuSans-74" transform="translate(164.208984 0)"/>
      <use xlink:href="#DejaVuSans-6c" transform="translate(203.417969 0)"/>
      <use xlink:href="#DejaVuSans-69" transform="translate(231.201172 0)"/>
      <use xlink:href="#DejaVuSans-6e" transform="translate(258.984375 0)"/>
      <use xlink:href="#DejaVuSans-67" transform="translate(322.363281 0)"/>
      <use xlink:href="#DejaVuSans-3a" transform="translate(385.839844 0)"/>
      <use xlink:href="#DejaVuSans-20" transform="translate(419.53125 0)"/>
      <use xlink:href="#DejaVuSans-30" transform="translate(451.318359 0)"/>
      <use xlink:href="#DejaVuSans-20" transform="translate(514.941406 0)"/>
      <use xlink:href="#DejaVuSans-73" transform="translate(546.728516 0)"/>
      <use xlink:href="#DejaVuSans-74" transform="translate(598.828125 0)"/>
      <use xlink:href="#DejaVuSans-65" transform="translate(638.037109 0)"/>
      <use xlink:href="#DejaVuSans-70" transform="translate(699.560547 0)"/>
      <use xlink:href="#DejaVuSans-73" transform="translate(763.037109 0)"/>
     </g>
    </g>
   </g>
  </g>
 </g>
 <defs>
  <clipPath id="p3e7bc8ea05">
   <rect x="56.241563" y="25.3575" width="558" height="332.64"/>
  </clipPath>
 </defs>
</svg>
