<?xml version="1.0" encoding="utf-8" standalone="no"?>
<!DOCTYPE svg PUBLIC "-//W3C//DTD SVG 1.1//EN"
  "http://www.w3.org/Graphics/SVG/1.1/DTD/svg11.dtd">
<svg xmlns:xlink="http://www.w3.org/1999/xlink" width="856.461875pt" height="567.916pt" viewBox="0 0 856.461875 567.916" xmlns="http://www.w3.org/2000/svg" version="1.1">
 <metadata>
  <rdf:RDF xmlns:dc="http://purl.org/dc/elements/1.1/" xmlns:cc="http://creativecommons.org/ns#" xmlns:rdf="http://www.w3.org/1999/02/22-rdf-syntax-ns#">
   <cc:Work>
    <dc:type rdf:resource="http://purl.org/dc/dcmitype/StillImage"/>
    <dc:date>2025-09-04T23:43:02.348390</dc:date>
    <dc:format>image/svg+xml</dc:format>
    <dc:creator>
     <cc:Agent>
      <dc:title>Matplotlib v3.10.5, https://matplotlib.org/</dc:title>
     </cc:Agent>
    </dc:creator>
   </cc:Work>
  </rdf:RDF>
 </metadata>
 <defs>
  <style type="text/css">*{stroke-linejoin: round; stroke-linecap: butt}</style>
 </defs>
 <g id="figure_1">
  <g id="patch_1">
   <path d="M 0 567.916 
L 856.461875 567.916 
L 856.461875 0 
L 0 0 
z
" style="fill: #ffffff"/>
  </g>
  <g id="axes_1">
   <g id="patch_2">
    <path d="M 45.716875 528.424125 
L 849.261875 528.424125 
L 849.261875 53.624125 
L 45.716875 53.624125 
z
" style="fill: #ffffff"/>
   </g>
   <g id="patch_3">
    <path d="M 45.716875 506.842307 
L 849.261875 506.842307 
L 849.261875 506.306445 
L 45.716875 506.306445 
z
" clip-path="url(#pf074593a65)" style="fill: #e8e8e8; opacity: 0.3; stroke: #e8e8e8; stroke-linejoin: miter"/>
   </g>
   <g id="matplotlib.axis_1">
    <g id="xtick_1">
     <g id="line2d_1">
      <path d="M 82.241648 528.424125 
L 82.241648 53.624125 
" clip-path="url(#pf074593a65)" style="fill: none; stroke: #b0b0b0; stroke-opacity: 0.3; stroke-width: 0.8; stroke-linecap: square"/>
     </g>
     <g id="line2d_2">
      <defs>
       <path id="m9e0b08594a" d="M 0 0 
L 0 3.5 
" style="stroke: #000000; stroke-width: 0.8"/>
      </defs>
      <g>
       <use xlink:href="#m9e0b08594a" x="82.241648" y="528.424125" style="stroke: #000000; stroke-width: 0.8"/>
      </g>
     </g>
     <g id="text_1">
      <!-- 0 -->
      <g transform="translate(79.060398 543.022562) scale(0.1 -0.1)">
       <defs>
        <path id="DejaVuSans-30" d="M 2034 4250 
Q 1547 4250 1301 3770 
Q 1056 3291 1056 2328 
Q 1056 1369 1301 889 
Q 1547 409 2034 409 
Q 2525 409 2770 889 
Q 3016 1369 3016 2328 
Q 3016 3291 2770 3770 
Q 2525 4250 2034 4250 
z
M 2034 4750 
Q 2819 4750 3233 4129 
Q 3647 3509 3647 2328 
Q 3647 1150 3233 529 
Q 2819 -91 2034 -91 
Q 1250 -91 836 529 
Q 422 1150 422 2328 
Q 422 3509 836 4129 
Q 1250 4750 2034 4750 
z
" transform="scale(0.015625)"/>
       </defs>
       <use xlink:href="#DejaVuSans-30"/>
      </g>
     </g>
    </g>
    <g id="xtick_2">
     <g id="line2d_3">
      <path d="M 218.021472 528.424125 
L 218.021472 53.624125 
" clip-path="url(#pf074593a65)" style="fill: none; stroke: #b0b0b0; stroke-opacity: 0.3; stroke-width: 0.8; stroke-linecap: square"/>
     </g>
     <g id="line2d_4">
      <g>
       <use xlink:href="#m9e0b08594a" x="218.021472" y="528.424125" style="stroke: #000000; stroke-width: 0.8"/>
      </g>
     </g>
     <g id="text_2">
      <!-- 50 -->
      <g transform="translate(211.658972 543.022562) scale(0.1 -0.1)">
       <defs>
        <path id="DejaVuSans-35" d="M 691 4666 
L 3169 4666 
L 3169 4134 
L 1269 4134 
L 1269 2991 
Q 1406 3038 1543 3061 
Q 1681 3084 1819 3084 
Q 2600 3084 3056 2656 
Q 3513 2228 3513 1497 
Q 3513 744 3044 326 
Q 2575 -91 1722 -91 
Q 1428 -91 1123 -41 
Q 819 9 494 109 
L 494 744 
Q 775 591 1075 516 
Q 1375 441 1709 441 
Q 2250 441 2565 725 
Q 2881 1009 2881 1497 
Q 2881 1984 2565 2268 
Q 2250 2553 1709 2553 
Q 1456 2553 1204 2497 
Q 953 2441 691 2322 
L 691 4666 
z
" transform="scale(0.015625)"/>
       </defs>
       <use xlink:href="#DejaVuSans-35"/>
       <use xlink:href="#DejaVuSans-30" transform="translate(63.623047 0)"/>
      </g>
     </g>
    </g>
    <g id="xtick_3">
     <g id="line2d_5">
      <path d="M 353.801296 528.424125 
L 353.801296 53.624125 
" clip-path="url(#pf074593a65)" style="fill: none; stroke: #b0b0b0; stroke-opacity: 0.3; stroke-width: 0.8; stroke-linecap: square"/>
     </g>
     <g id="line2d_6">
      <g>
       <use xlink:href="#m9e0b08594a" x="353.801296" y="528.424125" style="stroke: #000000; stroke-width: 0.8"/>
      </g>
     </g>
     <g id="text_3">
      <!-- 100 -->
      <g transform="translate(344.257546 543.022562) scale(0.1 -0.1)">
       <defs>
        <path id="DejaVuSans-31" d="M 794 531 
L 1825 531 
L 1825 4091 
L 703 3866 
L 703 4441 
L 1819 4666 
L 2450 4666 
L 2450 531 
L 3481 531 
L 3481 0 
L 794 0 
L 794 531 
z
" transform="scale(0.015625)"/>
       </defs>
       <use xlink:href="#DejaVuSans-31"/>
       <use xlink:href="#DejaVuSans-30" transform="translate(63.623047 0)"/>
       <use xlink:href="#DejaVuSans-30" transform="translate(127.246094 0)"/>
      </g>
     </g>
    </g>
    <g id="xtick_4">
     <g id="line2d_7">
      <path d="M 489.581121 528.424125 
L 489.581121 53.624125 
" clip-path="url(#pf074593a65)" style="fill: none; stroke: #b0b0b0; stroke-opacity: 0.3; stroke-width: 0.8; stroke-linecap: square"/>
     </g>
     <g id="line2d_8">
      <g>
       <use xlink:href="#m9e0b08594a" x="489.581121" y="528.424125" style="stroke: #000000; stroke-width: 0.8"/>
      </g>
     </g>
     <g id="text_4">
      <!-- 150 -->
      <g transform="translate(480.037371 543.022562) scale(0.1 -0.1)">
       <use xlink:href="#DejaVuSans-31"/>
       <use xlink:href="#DejaVuSans-35" transform="translate(63.623047 0)"/>
       <use xlink:href="#DejaVuSans-30" transform="translate(127.246094 0)"/>
      </g>
     </g>
    </g>
    <g id="xtick_5">
     <g id="line2d_9">
      <path d="M 625.360945 528.424125 
L 625.360945 53.624125 
" clip-path="url(#pf074593a65)" style="fill: none; stroke: #b0b0b0; stroke-opacity: 0.3; stroke-width: 0.8; stroke-linecap: square"/>
     </g>
     <g id="line2d_10">
      <g>
       <use xlink:href="#m9e0b08594a" x="625.360945" y="528.424125" style="stroke: #000000; stroke-width: 0.8"/>
      </g>
     </g>
     <g id="text_5">
      <!-- 200 -->
      <g transform="translate(615.817195 543.022562) scale(0.1 -0.1)">
       <defs>
        <path id="DejaVuSans-32" d="M 1228 531 
L 3431 531 
L 3431 0 
L 469 0 
L 469 531 
Q 828 903 1448 1529 
Q 2069 2156 2228 2338 
Q 2531 2678 2651 2914 
Q 2772 3150 2772 3378 
Q 2772 3750 2511 3984 
Q 2250 4219 1831 4219 
Q 1534 4219 1204 4116 
Q 875 4013 500 3803 
L 500 4441 
Q 881 4594 1212 4672 
Q 1544 4750 1819 4750 
Q 2544 4750 2975 4387 
Q 3406 4025 3406 3419 
Q 3406 3131 3298 2873 
Q 3191 2616 2906 2266 
Q 2828 2175 2409 1742 
Q 1991 1309 1228 531 
z
" transform="scale(0.015625)"/>
       </defs>
       <use xlink:href="#DejaVuSans-32"/>
       <use xlink:href="#DejaVuSans-30" transform="translate(63.623047 0)"/>
       <use xlink:href="#DejaVuSans-30" transform="translate(127.246094 0)"/>
      </g>
     </g>
    </g>
    <g id="xtick_6">
     <g id="line2d_11">
      <path d="M 761.140769 528.424125 
L 761.140769 53.624125 
" clip-path="url(#pf074593a65)" style="fill: none; stroke: #b0b0b0; stroke-opacity: 0.3; stroke-width: 0.8; stroke-linecap: square"/>
     </g>
     <g id="line2d_12">
      <g>
       <use xlink:href="#m9e0b08594a" x="761.140769" y="528.424125" style="stroke: #000000; stroke-width: 0.8"/>
      </g>
     </g>
     <g id="text_6">
      <!-- 250 -->
      <g transform="translate(751.597019 543.022562) scale(0.1 -0.1)">
       <use xlink:href="#DejaVuSans-32"/>
       <use xlink:href="#DejaVuSans-35" transform="translate(63.623047 0)"/>
       <use xlink:href="#DejaVuSans-30" transform="translate(127.246094 0)"/>
      </g>
     </g>
    </g>
    <g id="text_7">
     <!-- Training Step -->
     <g transform="translate(408.249375 558.220375) scale(0.12 -0.12)">
      <defs>
       <path id="DejaVuSans-54" d="M -19 4666 
L 3928 4666 
L 3928 4134 
L 2272 4134 
L 2272 0 
L 1638 0 
L 1638 4134 
L -19 4134 
L -19 4666 
z
" transform="scale(0.015625)"/>
       <path id="DejaVuSans-72" d="M 2631 2963 
Q 2534 3019 2420 3045 
Q 2306 3072 2169 3072 
Q 1681 3072 1420 2755 
Q 1159 2438 1159 1844 
L 1159 0 
L 581 0 
L 581 3500 
L 1159 3500 
L 1159 2956 
Q 1341 3275 1631 3429 
Q 1922 3584 2338 3584 
Q 2397 3584 2469 3576 
Q 2541 3569 2628 3553 
L 2631 2963 
z
" transform="scale(0.015625)"/>
       <path id="DejaVuSans-61" d="M 2194 1759 
Q 1497 1759 1228 1600 
Q 959 1441 959 1056 
Q 959 750 1161 570 
Q 1363 391 1709 391 
Q 2188 391 2477 730 
Q 2766 1069 2766 1631 
L 2766 1759 
L 2194 1759 
z
M 3341 1997 
L 3341 0 
L 2766 0 
L 2766 531 
Q 2569 213 2275 61 
Q 1981 -91 1556 -91 
Q 1019 -91 701 211 
Q 384 513 384 1019 
Q 384 1609 779 1909 
Q 1175 2209 1959 2209 
L 2766 2209 
L 2766 2266 
Q 2766 2663 2505 2880 
Q 2244 3097 1772 3097 
Q 1472 3097 1187 3025 
Q 903 2953 641 2809 
L 641 3341 
Q 956 3463 1253 3523 
Q 1550 3584 1831 3584 
Q 2591 3584 2966 3190 
Q 3341 2797 3341 1997 
z
" transform="scale(0.015625)"/>
       <path id="DejaVuSans-69" d="M 603 3500 
L 1178 3500 
L 1178 0 
L 603 0 
L 603 3500 
z
M 603 4863 
L 1178 4863 
L 1178 4134 
L 603 4134 
L 603 4863 
z
" transform="scale(0.015625)"/>
       <path id="DejaVuSans-6e" d="M 3513 2113 
L 3513 0 
L 2938 0 
L 2938 2094 
Q 2938 2591 2744 2837 
Q 2550 3084 2163 3084 
Q 1697 3084 1428 2787 
Q 1159 2491 1159 1978 
L 1159 0 
L 581 0 
L 581 3500 
L 1159 3500 
L 1159 2956 
Q 1366 3272 1645 3428 
Q 1925 3584 2291 3584 
Q 2894 3584 3203 3211 
Q 3513 2838 3513 2113 
z
" transform="scale(0.015625)"/>
       <path id="DejaVuSans-67" d="M 2906 1791 
Q 2906 2416 2648 2759 
Q 2391 3103 1925 3103 
Q 1463 3103 1205 2759 
Q 947 2416 947 1791 
Q 947 1169 1205 825 
Q 1463 481 1925 481 
Q 2391 481 2648 825 
Q 2906 1169 2906 1791 
z
M 3481 434 
Q 3481 -459 3084 -895 
Q 2688 -1331 1869 -1331 
Q 1566 -1331 1297 -1286 
Q 1028 -1241 775 -1147 
L 775 -588 
Q 1028 -725 1275 -790 
Q 1522 -856 1778 -856 
Q 2344 -856 2625 -561 
Q 2906 -266 2906 331 
L 2906 616 
Q 2728 306 2450 153 
Q 2172 0 1784 0 
Q 1141 0 747 490 
Q 353 981 353 1791 
Q 353 2603 747 3093 
Q 1141 3584 1784 3584 
Q 2172 3584 2450 3431 
Q 2728 3278 2906 2969 
L 2906 3500 
L 3481 3500 
L 3481 434 
z
" transform="scale(0.015625)"/>
       <path id="DejaVuSans-20" transform="scale(0.015625)"/>
       <path id="DejaVuSans-53" d="M 3425 4513 
L 3425 3897 
Q 3066 4069 2747 4153 
Q 2428 4238 2131 4238 
Q 1616 4238 1336 4038 
Q 1056 3838 1056 3469 
Q 1056 3159 1242 3001 
Q 1428 2844 1947 2747 
L 2328 2669 
Q 3034 2534 3370 2195 
Q 3706 1856 3706 1288 
Q 3706 609 3251 259 
Q 2797 -91 1919 -91 
Q 1588 -91 1214 -16 
Q 841 59 441 206 
L 441 856 
Q 825 641 1194 531 
Q 1563 422 1919 422 
Q 2459 422 2753 634 
Q 3047 847 3047 1241 
Q 3047 1584 2836 1778 
Q 2625 1972 2144 2069 
L 1759 2144 
Q 1053 2284 737 2584 
Q 422 2884 422 3419 
Q 422 4038 858 4394 
Q 1294 4750 2059 4750 
Q 2388 4750 2728 4690 
Q 3069 4631 3425 4513 
z
" transform="scale(0.015625)"/>
       <path id="DejaVuSans-74" d="M 1172 4494 
L 1172 3500 
L 2356 3500 
L 2356 3053 
L 1172 3053 
L 1172 1153 
Q 1172 725 1289 603 
Q 1406 481 1766 481 
L 2356 481 
L 2356 0 
L 1766 0 
Q 1100 0 847 248 
Q 594 497 594 1153 
L 594 3053 
L 172 3053 
L 172 3500 
L 594 3500 
L 594 4494 
L 1172 4494 
z
" transform="scale(0.015625)"/>
       <path id="DejaVuSans-65" d="M 3597 1894 
L 3597 1613 
L 953 1613 
Q 991 1019 1311 708 
Q 1631 397 2203 397 
Q 2534 397 2845 478 
Q 3156 559 3463 722 
L 3463 178 
Q 3153 47 2828 -22 
Q 2503 -91 2169 -91 
Q 1331 -91 842 396 
Q 353 884 353 1716 
Q 353 2575 817 3079 
Q 1281 3584 2069 3584 
Q 2775 3584 3186 3129 
Q 3597 2675 3597 1894 
z
M 3022 2063 
Q 3016 2534 2758 2815 
Q 2500 3097 2075 3097 
Q 1594 3097 1305 2825 
Q 1016 2553 972 2059 
L 3022 2063 
z
" transform="scale(0.015625)"/>
       <path id="DejaVuSans-70" d="M 1159 525 
L 1159 -1331 
L 581 -1331 
L 581 3500 
L 1159 3500 
L 1159 2969 
Q 1341 3281 1617 3432 
Q 1894 3584 2278 3584 
Q 2916 3584 3314 3078 
Q 3713 2572 3713 1747 
Q 3713 922 3314 415 
Q 2916 -91 2278 -91 
Q 1894 -91 1617 61 
Q 1341 213 1159 525 
z
M 3116 1747 
Q 3116 2381 2855 2742 
Q 2594 3103 2138 3103 
Q 1681 3103 1420 2742 
Q 1159 2381 1159 1747 
Q 1159 1113 1420 752 
Q 1681 391 2138 391 
Q 2594 391 2855 752 
Q 3116 1113 3116 1747 
z
" transform="scale(0.015625)"/>
      </defs>
      <use xlink:href="#DejaVuSans-54"/>
      <use xlink:href="#DejaVuSans-72" transform="translate(46.333984 0)"/>
      <use xlink:href="#DejaVuSans-61" transform="translate(87.447266 0)"/>
      <use xlink:href="#DejaVuSans-69" transform="translate(148.726562 0)"/>
      <use xlink:href="#DejaVuSans-6e" transform="translate(176.509766 0)"/>
      <use xlink:href="#DejaVuSans-69" transform="translate(239.888672 0)"/>
      <use xlink:href="#DejaVuSans-6e" transform="translate(267.671875 0)"/>
      <use xlink:href="#DejaVuSans-67" transform="translate(331.050781 0)"/>
      <use xlink:href="#DejaVuSans-20" transform="translate(394.527344 0)"/>
      <use xlink:href="#DejaVuSans-53" transform="translate(426.314453 0)"/>
      <use xlink:href="#DejaVuSans-74" transform="translate(489.791016 0)"/>
      <use xlink:href="#DejaVuSans-65" transform="translate(529 0)"/>
      <use xlink:href="#DejaVuSans-70" transform="translate(590.523438 0)"/>
     </g>
    </g>
   </g>
   <g id="matplotlib.axis_2">
    <g id="ytick_1">
     <g id="line2d_13">
      <path d="M 45.716875 507.91403 
L 849.261875 507.91403 
" clip-path="url(#pf074593a65)" style="fill: none; stroke: #b0b0b0; stroke-opacity: 0.3; stroke-width: 0.8; stroke-linecap: square"/>
     </g>
     <g id="line2d_14">
      <defs>
       <path id="m17c45f80c6" d="M 0 0 
L -3.5 0 
" style="stroke: #000000; stroke-width: 0.8"/>
      </defs>
      <g>
       <use xlink:href="#m17c45f80c6" x="45.716875" y="507.91403" style="stroke: #000000; stroke-width: 0.8"/>
      </g>
     </g>
     <g id="text_8">
      <!-- 0.0 -->
      <g transform="translate(22.81375 511.713248) scale(0.1 -0.1)">
       <defs>
        <path id="DejaVuSans-2e" d="M 684 794 
L 1344 794 
L 1344 0 
L 684 0 
L 684 794 
z
" transform="scale(0.015625)"/>
       </defs>
       <use xlink:href="#DejaVuSans-30"/>
       <use xlink:href="#DejaVuSans-2e" transform="translate(63.623047 0)"/>
       <use xlink:href="#DejaVuSans-30" transform="translate(95.410156 0)"/>
      </g>
     </g>
    </g>
    <g id="ytick_2">
     <g id="line2d_15">
      <path d="M 45.716875 440.931354 
L 849.261875 440.931354 
" clip-path="url(#pf074593a65)" style="fill: none; stroke: #b0b0b0; stroke-opacity: 0.3; stroke-width: 0.8; stroke-linecap: square"/>
     </g>
     <g id="line2d_16">
      <g>
       <use xlink:href="#m17c45f80c6" x="45.716875" y="440.931354" style="stroke: #000000; stroke-width: 0.8"/>
      </g>
     </g>
     <g id="text_9">
      <!-- 0.5 -->
      <g transform="translate(22.81375 444.730572) scale(0.1 -0.1)">
       <use xlink:href="#DejaVuSans-30"/>
       <use xlink:href="#DejaVuSans-2e" transform="translate(63.623047 0)"/>
       <use xlink:href="#DejaVuSans-35" transform="translate(95.410156 0)"/>
      </g>
     </g>
    </g>
    <g id="ytick_3">
     <g id="line2d_17">
      <path d="M 45.716875 373.948678 
L 849.261875 373.948678 
" clip-path="url(#pf074593a65)" style="fill: none; stroke: #b0b0b0; stroke-opacity: 0.3; stroke-width: 0.8; stroke-linecap: square"/>
     </g>
     <g id="line2d_18">
      <g>
       <use xlink:href="#m17c45f80c6" x="45.716875" y="373.948678" style="stroke: #000000; stroke-width: 0.8"/>
      </g>
     </g>
     <g id="text_10">
      <!-- 1.0 -->
      <g transform="translate(22.81375 377.747897) scale(0.1 -0.1)">
       <use xlink:href="#DejaVuSans-31"/>
       <use xlink:href="#DejaVuSans-2e" transform="translate(63.623047 0)"/>
       <use xlink:href="#DejaVuSans-30" transform="translate(95.410156 0)"/>
      </g>
     </g>
    </g>
    <g id="ytick_4">
     <g id="line2d_19">
      <path d="M 45.716875 306.966002 
L 849.261875 306.966002 
" clip-path="url(#pf074593a65)" style="fill: none; stroke: #b0b0b0; stroke-opacity: 0.3; stroke-width: 0.8; stroke-linecap: square"/>
     </g>
     <g id="line2d_20">
      <g>
       <use xlink:href="#m17c45f80c6" x="45.716875" y="306.966002" style="stroke: #000000; stroke-width: 0.8"/>
      </g>
     </g>
     <g id="text_11">
      <!-- 1.5 -->
      <g transform="translate(22.81375 310.765221) scale(0.1 -0.1)">
       <use xlink:href="#DejaVuSans-31"/>
       <use xlink:href="#DejaVuSans-2e" transform="translate(63.623047 0)"/>
       <use xlink:href="#DejaVuSans-35" transform="translate(95.410156 0)"/>
      </g>
     </g>
    </g>
    <g id="ytick_5">
     <g id="line2d_21">
      <path d="M 45.716875 239.983326 
L 849.261875 239.983326 
" clip-path="url(#pf074593a65)" style="fill: none; stroke: #b0b0b0; stroke-opacity: 0.3; stroke-width: 0.8; stroke-linecap: square"/>
     </g>
     <g id="line2d_22">
      <g>
       <use xlink:href="#m17c45f80c6" x="45.716875" y="239.983326" style="stroke: #000000; stroke-width: 0.8"/>
      </g>
     </g>
     <g id="text_12">
      <!-- 2.0 -->
      <g transform="translate(22.81375 243.782545) scale(0.1 -0.1)">
       <use xlink:href="#DejaVuSans-32"/>
       <use xlink:href="#DejaVuSans-2e" transform="translate(63.623047 0)"/>
       <use xlink:href="#DejaVuSans-30" transform="translate(95.410156 0)"/>
      </g>
     </g>
    </g>
    <g id="ytick_6">
     <g id="line2d_23">
      <path d="M 45.716875 173.00065 
L 849.261875 173.00065 
" clip-path="url(#pf074593a65)" style="fill: none; stroke: #b0b0b0; stroke-opacity: 0.3; stroke-width: 0.8; stroke-linecap: square"/>
     </g>
     <g id="line2d_24">
      <g>
       <use xlink:href="#m17c45f80c6" x="45.716875" y="173.00065" style="stroke: #000000; stroke-width: 0.8"/>
      </g>
     </g>
     <g id="text_13">
      <!-- 2.5 -->
      <g transform="translate(22.81375 176.799869) scale(0.1 -0.1)">
       <use xlink:href="#DejaVuSans-32"/>
       <use xlink:href="#DejaVuSans-2e" transform="translate(63.623047 0)"/>
       <use xlink:href="#DejaVuSans-35" transform="translate(95.410156 0)"/>
      </g>
     </g>
    </g>
    <g id="ytick_7">
     <g id="line2d_25">
      <path d="M 45.716875 106.017974 
L 849.261875 106.017974 
" clip-path="url(#pf074593a65)" style="fill: none; stroke: #b0b0b0; stroke-opacity: 0.3; stroke-width: 0.8; stroke-linecap: square"/>
     </g>
     <g id="line2d_26">
      <g>
       <use xlink:href="#m17c45f80c6" x="45.716875" y="106.017974" style="stroke: #000000; stroke-width: 0.8"/>
      </g>
     </g>
     <g id="text_14">
      <!-- 3.0 -->
      <g transform="translate(22.81375 109.817193) scale(0.1 -0.1)">
       <defs>
        <path id="DejaVuSans-33" d="M 2597 2516 
Q 3050 2419 3304 2112 
Q 3559 1806 3559 1356 
Q 3559 666 3084 287 
Q 2609 -91 1734 -91 
Q 1441 -91 1130 -33 
Q 819 25 488 141 
L 488 750 
Q 750 597 1062 519 
Q 1375 441 1716 441 
Q 2309 441 2620 675 
Q 2931 909 2931 1356 
Q 2931 1769 2642 2001 
Q 2353 2234 1838 2234 
L 1294 2234 
L 1294 2753 
L 1863 2753 
Q 2328 2753 2575 2939 
Q 2822 3125 2822 3475 
Q 2822 3834 2567 4026 
Q 2313 4219 1838 4219 
Q 1578 4219 1281 4162 
Q 984 4106 628 3988 
L 628 4550 
Q 988 4650 1302 4700 
Q 1616 4750 1894 4750 
Q 2613 4750 3031 4423 
Q 3450 4097 3450 3541 
Q 3450 3153 3228 2886 
Q 3006 2619 2597 2516 
z
" transform="scale(0.015625)"/>
       </defs>
       <use xlink:href="#DejaVuSans-33"/>
       <use xlink:href="#DejaVuSans-2e" transform="translate(63.623047 0)"/>
       <use xlink:href="#DejaVuSans-30" transform="translate(95.410156 0)"/>
      </g>
     </g>
    </g>
    <g id="text_15">
     <!-- Information Ratio S (%) -->
     <g transform="translate(16.318125 361.069437) rotate(-90) scale(0.12 -0.12)">
      <defs>
       <path id="DejaVuSans-49" d="M 628 4666 
L 1259 4666 
L 1259 0 
L 628 0 
L 628 4666 
z
" transform="scale(0.015625)"/>
       <path id="DejaVuSans-66" d="M 2375 4863 
L 2375 4384 
L 1825 4384 
Q 1516 4384 1395 4259 
Q 1275 4134 1275 3809 
L 1275 3500 
L 2222 3500 
L 2222 3053 
L 1275 3053 
L 1275 0 
L 697 0 
L 697 3053 
L 147 3053 
L 147 3500 
L 697 3500 
L 697 3744 
Q 697 4328 969 4595 
Q 1241 4863 1831 4863 
L 2375 4863 
z
" transform="scale(0.015625)"/>
       <path id="DejaVuSans-6f" d="M 1959 3097 
Q 1497 3097 1228 2736 
Q 959 2375 959 1747 
Q 959 1119 1226 758 
Q 1494 397 1959 397 
Q 2419 397 2687 759 
Q 2956 1122 2956 1747 
Q 2956 2369 2687 2733 
Q 2419 3097 1959 3097 
z
M 1959 3584 
Q 2709 3584 3137 3096 
Q 3566 2609 3566 1747 
Q 3566 888 3137 398 
Q 2709 -91 1959 -91 
Q 1206 -91 779 398 
Q 353 888 353 1747 
Q 353 2609 779 3096 
Q 1206 3584 1959 3584 
z
" transform="scale(0.015625)"/>
       <path id="DejaVuSans-6d" d="M 3328 2828 
Q 3544 3216 3844 3400 
Q 4144 3584 4550 3584 
Q 5097 3584 5394 3201 
Q 5691 2819 5691 2113 
L 5691 0 
L 5113 0 
L 5113 2094 
Q 5113 2597 4934 2840 
Q 4756 3084 4391 3084 
Q 3944 3084 3684 2787 
Q 3425 2491 3425 1978 
L 3425 0 
L 2847 0 
L 2847 2094 
Q 2847 2600 2669 2842 
Q 2491 3084 2119 3084 
Q 1678 3084 1418 2786 
Q 1159 2488 1159 1978 
L 1159 0 
L 581 0 
L 581 3500 
L 1159 3500 
L 1159 2956 
Q 1356 3278 1631 3431 
Q 1906 3584 2284 3584 
Q 2666 3584 2933 3390 
Q 3200 3197 3328 2828 
z
" transform="scale(0.015625)"/>
       <path id="DejaVuSans-52" d="M 2841 2188 
Q 3044 2119 3236 1894 
Q 3428 1669 3622 1275 
L 4263 0 
L 3584 0 
L 2988 1197 
Q 2756 1666 2539 1819 
Q 2322 1972 1947 1972 
L 1259 1972 
L 1259 0 
L 628 0 
L 628 4666 
L 2053 4666 
Q 2853 4666 3247 4331 
Q 3641 3997 3641 3322 
Q 3641 2881 3436 2590 
Q 3231 2300 2841 2188 
z
M 1259 4147 
L 1259 2491 
L 2053 2491 
Q 2509 2491 2742 2702 
Q 2975 2913 2975 3322 
Q 2975 3731 2742 3939 
Q 2509 4147 2053 4147 
L 1259 4147 
z
" transform="scale(0.015625)"/>
       <path id="DejaVuSans-28" d="M 1984 4856 
Q 1566 4138 1362 3434 
Q 1159 2731 1159 2009 
Q 1159 1288 1364 580 
Q 1569 -128 1984 -844 
L 1484 -844 
Q 1016 -109 783 600 
Q 550 1309 550 2009 
Q 550 2706 781 3412 
Q 1013 4119 1484 4856 
L 1984 4856 
z
" transform="scale(0.015625)"/>
       <path id="DejaVuSans-25" d="M 4653 2053 
Q 4381 2053 4226 1822 
Q 4072 1591 4072 1178 
Q 4072 772 4226 539 
Q 4381 306 4653 306 
Q 4919 306 5073 539 
Q 5228 772 5228 1178 
Q 5228 1588 5073 1820 
Q 4919 2053 4653 2053 
z
M 4653 2450 
Q 5147 2450 5437 2106 
Q 5728 1763 5728 1178 
Q 5728 594 5436 251 
Q 5144 -91 4653 -91 
Q 4153 -91 3862 251 
Q 3572 594 3572 1178 
Q 3572 1766 3864 2108 
Q 4156 2450 4653 2450 
z
M 1428 4353 
Q 1159 4353 1004 4120 
Q 850 3888 850 3481 
Q 850 3069 1003 2837 
Q 1156 2606 1428 2606 
Q 1700 2606 1854 2837 
Q 2009 3069 2009 3481 
Q 2009 3884 1853 4118 
Q 1697 4353 1428 4353 
z
M 4250 4750 
L 4750 4750 
L 1831 -91 
L 1331 -91 
L 4250 4750 
z
M 1428 4750 
Q 1922 4750 2215 4408 
Q 2509 4066 2509 3481 
Q 2509 2891 2217 2550 
Q 1925 2209 1428 2209 
Q 931 2209 642 2551 
Q 353 2894 353 3481 
Q 353 4063 643 4406 
Q 934 4750 1428 4750 
z
" transform="scale(0.015625)"/>
       <path id="DejaVuSans-29" d="M 513 4856 
L 1013 4856 
Q 1481 4119 1714 3412 
Q 1947 2706 1947 2009 
Q 1947 1309 1714 600 
Q 1481 -109 1013 -844 
L 513 -844 
Q 928 -128 1133 580 
Q 1338 1288 1338 2009 
Q 1338 2731 1133 3434 
Q 928 4138 513 4856 
z
" transform="scale(0.015625)"/>
      </defs>
      <use xlink:href="#DejaVuSans-49"/>
      <use xlink:href="#DejaVuSans-6e" transform="translate(29.492188 0)"/>
      <use xlink:href="#DejaVuSans-66" transform="translate(92.871094 0)"/>
      <use xlink:href="#DejaVuSans-6f" transform="translate(128.076172 0)"/>
      <use xlink:href="#DejaVuSans-72" transform="translate(189.257812 0)"/>
      <use xlink:href="#DejaVuSans-6d" transform="translate(228.621094 0)"/>
      <use xlink:href="#DejaVuSans-61" transform="translate(326.033203 0)"/>
      <use xlink:href="#DejaVuSans-74" transform="translate(387.3125 0)"/>
      <use xlink:href="#DejaVuSans-69" transform="translate(426.521484 0)"/>
      <use xlink:href="#DejaVuSans-6f" transform="translate(454.304688 0)"/>
      <use xlink:href="#DejaVuSans-6e" transform="translate(515.486328 0)"/>
      <use xlink:href="#DejaVuSans-20" transform="translate(578.865234 0)"/>
      <use xlink:href="#DejaVuSans-52" transform="translate(610.652344 0)"/>
      <use xlink:href="#DejaVuSans-61" transform="translate(677.884766 0)"/>
      <use xlink:href="#DejaVuSans-74" transform="translate(739.164062 0)"/>
      <use xlink:href="#DejaVuSans-69" transform="translate(778.373047 0)"/>
      <use xlink:href="#DejaVuSans-6f" transform="translate(806.15625 0)"/>
      <use xlink:href="#DejaVuSans-20" transform="translate(867.337891 0)"/>
      <use xlink:href="#DejaVuSans-53" transform="translate(899.125 0)"/>
      <use xlink:href="#DejaVuSans-20" transform="translate(962.601562 0)"/>
      <use xlink:href="#DejaVuSans-28" transform="translate(994.388672 0)"/>
      <use xlink:href="#DejaVuSans-25" transform="translate(1033.402344 0)"/>
      <use xlink:href="#DejaVuSans-29" transform="translate(1128.421875 0)"/>
     </g>
    </g>
   </g>
   <g id="line2d_27">
    <path d="M 45.716875 506.574376 
L 849.261875 506.574376 
" clip-path="url(#pf074593a65)" style="fill: none; stroke-dasharray: 5.55,2.4; stroke-dashoffset: 0; stroke: #000000; stroke-opacity: 0.5; stroke-width: 1.5"/>
   </g>
   <g id="line2d_28">
    <path d="M 82.241648 388.897314 
L 84.957244 388.418912 
L 87.672841 388.179947 
L 90.388437 378.691305 
L 93.104034 374.085714 
L 95.81963 383.751353 
L 98.535227 397.38429 
L 101.250823 389.771634 
L 103.96642 384.133965 
L 106.682016 383.906147 
L 109.397613 373.272073 
L 112.113209 390.252713 
L 114.828806 375.916509 
L 117.544402 392.402462 
L 120.259999 379.277612 
L 122.975595 383.945756 
L 125.691191 382.916114 
L 128.406788 390.310789 
L 131.122384 394.727355 
L 133.837981 389.179312 
L 136.553577 399.034822 
L 139.269174 390.017553 
L 141.98477 383.9801 
L 144.700367 395.079214 
L 147.415963 386.9927 
L 150.13156 385.456302 
L 152.847156 386.443942 
L 155.562753 387.229067 
L 158.278349 382.98883 
L 160.993946 391.526553 
L 163.709542 387.916895 
L 166.425139 377.897599 
L 169.140735 388.979076 
L 171.856332 392.800015 
L 174.571928 400.902596 
L 177.287525 384.171024 
L 180.003121 378.91851 
L 182.718718 375.821507 
L 185.434314 393.80745 
L 188.149911 386.314596 
L 190.865507 385.19641 
L 193.581104 396.31517 
L 196.2967 401.264604 
L 199.012297 394.109523 
L 201.727893 392.053649 
L 204.44349 395.771015 
L 207.159086 385.928508 
L 209.874683 371.047507 
L 212.590279 391.084354 
L 215.305876 385.484154 
L 218.021472 386.920476 
L 220.737068 382.061606 
L 223.452665 381.086419 
L 226.168261 382.761496 
L 228.883858 381.054599 
L 231.599454 389.303337 
L 234.315051 383.350369 
L 237.030647 384.642471 
L 239.746244 382.516863 
L 242.46184 395.384931 
L 245.177437 393.476192 
L 247.893033 384.471168 
L 250.60863 384.46703 
L 253.324226 379.490542 
L 256.039823 390.974945 
L 258.755419 385.388064 
L 261.471016 396.425149 
L 264.186612 383.499345 
L 266.902209 381.192856 
L 269.617805 393.348541 
L 272.333402 383.29565 
L 275.048998 389.780867 
L 277.764595 391.905505 
L 280.480191 381.996982 
L 283.195788 392.545403 
L 285.911384 382.53071 
L 288.626981 390.696089 
L 291.342577 397.937828 
L 294.058174 375.974489 
L 296.77377 388.027556 
L 299.489367 390.893154 
L 302.204963 392.430311 
L 304.92056 387.870664 
L 307.636156 383.732645 
L 310.351752 394.854644 
L 313.067349 382.258374 
L 315.782945 388.296178 
L 318.498542 390.580433 
L 321.214138 400.596996 
L 323.929735 393.348215 
L 326.645331 385.521477 
L 329.360928 394.036054 
L 332.076524 383.800225 
L 334.792121 393.733819 
L 337.507717 380.645507 
L 340.223314 386.724254 
L 342.93891 385.003845 
L 345.654507 391.836622 
L 348.370103 400.497946 
L 351.0857 379.085158 
L 353.801296 378.255493 
L 356.516893 390.753655 
L 359.232489 389.341799 
L 364.663682 395.013224 
L 367.379279 383.228315 
L 370.094875 378.923556 
L 372.810472 385.664968 
L 375.526068 399.887464 
L 378.241665 401.541729 
L 380.957261 395.723265 
L 383.672858 384.092359 
L 386.388454 394.07261 
L 389.104051 392.272085 
L 391.819647 391.525975 
L 394.535244 380.716509 
L 397.25084 375.834398 
L 399.966437 386.051368 
L 402.682033 380.420091 
L 405.397629 391.714722 
L 408.113226 392.601012 
L 410.828822 375.728693 
L 413.544419 368.140688 
L 416.260015 398.624095 
L 418.975612 378.614749 
L 421.691208 390.082318 
L 424.406805 393.642966 
L 427.122401 397.623632 
L 429.837998 393.662719 
L 432.553594 387.003993 
L 435.269191 373.080045 
L 437.984787 385.655202 
L 440.700384 383.161025 
L 443.41598 382.975245 
L 446.131577 391.557001 
L 448.847173 389.411175 
L 451.56277 382.831199 
L 454.278366 377.749433 
L 456.993963 400.026284 
L 459.709559 390.770864 
L 462.425156 392.543936 
L 465.140752 384.575659 
L 467.856349 377.556984 
L 470.571945 386.951185 
L 473.287542 385.236601 
L 476.003138 365.984006 
L 478.718735 374.640172 
L 481.434331 385.50508 
L 484.149928 373.106332 
L 486.865524 388.918852 
L 489.581121 389.959019 
L 492.296717 387.340401 
L 495.012313 391.385326 
L 497.72791 384.559956 
L 500.443506 385.069977 
L 503.159103 396.042804 
L 508.590296 382.795288 
L 511.305892 379.792537 
L 514.021489 384.095965 
L 516.737085 386.707115 
L 519.452682 388.190775 
L 522.168278 397.217449 
L 524.883875 386.323886 
L 527.599471 386.254009 
L 530.315068 391.470606 
L 533.030664 388.938697 
L 535.746261 381.013718 
L 538.461857 388.982202 
L 541.177454 386.541432 
L 543.89305 387.683063 
L 546.608647 376.006623 
L 549.324243 391.031979 
L 552.03984 387.807031 
L 554.755436 393.008282 
L 557.471033 386.547527 
L 560.186629 376.530834 
L 562.902226 381.187105 
L 565.617822 387.479309 
L 568.333419 379.051052 
L 571.049015 394.208698 
L 573.764612 380.630378 
L 576.480208 390.254363 
L 579.195805 385.693289 
L 581.911401 381.487551 
L 584.626998 392.287054 
L 587.342594 375.274715 
L 590.05819 382.867826 
L 592.773787 383.440262 
L 595.489383 370.404176 
L 598.20498 386.361673 
L 600.920576 380.887796 
L 603.636173 377.373143 
L 606.351769 383.272218 
L 609.067366 359.65514 
L 611.782962 397.511919 
L 614.498559 384.562119 
L 617.214155 380.152186 
L 619.929752 382.518084 
L 622.645348 385.502574 
L 625.360945 391.839938 
L 628.076541 390.686115 
L 630.792138 383.422131 
L 633.507734 378.414981 
L 636.223331 397.43559 
L 638.938927 386.530624 
L 641.654524 391.092285 
L 644.37012 385.728021 
L 647.085717 381.137506 
L 649.801313 389.826099 
L 652.51691 394.556814 
L 655.232506 386.363504 
L 657.948103 381.343222 
L 660.663699 394.707909 
L 663.379296 380.654875 
L 666.094892 386.896596 
L 668.810489 399.338814 
L 671.526085 377.469294 
L 674.241682 392.932547 
L 676.957278 390.237089 
L 679.672874 380.109534 
L 682.388471 384.889551 
L 685.104067 381.82365 
L 687.819664 389.398072 
L 690.53526 390.80373 
L 693.250857 380.950831 
L 695.966453 372.374692 
L 698.68205 381.173255 
L 701.397646 388.231936 
L 704.113243 380.903101 
L 706.828839 381.894585 
L 709.544436 384.669363 
L 712.260032 381.187316 
L 714.975629 385.864586 
L 717.691225 359.889646 
L 720.406822 386.92029 
L 723.122418 370.344563 
L 725.838015 384.606041 
L 728.553611 386.266387 
L 731.269208 380.919657 
L 733.984804 379.172486 
L 736.700401 380.633204 
L 739.415997 380.095878 
L 742.131594 380.550281 
L 744.84719 377.888055 
L 747.562787 380.556174 
L 750.278383 386.534797 
L 752.99398 378.656368 
L 755.709576 388.176193 
L 758.425173 380.890027 
L 761.140769 370.812636 
L 763.856366 365.55827 
L 766.571962 377.837594 
L 769.287559 397.516512 
L 772.003155 383.818242 
L 774.718751 376.892522 
L 777.434348 377.242155 
L 780.149944 371.177225 
L 782.865541 374.954562 
L 785.581137 387.409128 
L 788.296734 380.935097 
L 791.01233 381.554456 
L 793.727927 376.417761 
L 796.443523 387.940107 
L 799.15912 377.055902 
L 801.874716 382.401688 
L 804.590313 393.018408 
L 807.305909 380.627525 
L 810.021506 382.708572 
L 812.737102 385.909286 
L 812.737102 385.909286 
" clip-path="url(#pf074593a65)" style="fill: none; stroke: #2e86ab; stroke-opacity: 0.9; stroke-width: 2.5; stroke-linecap: square"/>
   </g>
   <g id="line2d_29">
    <path d="M 82.241648 217.209216 
L 84.957244 193.095453 
L 87.672841 211.850602 
L 90.388437 185.057532 
L 93.104034 209.171295 
L 95.81963 191.755799 
L 98.535227 203.812681 
L 101.250823 219.888523 
L 103.96642 213.190256 
L 106.682016 223.907484 
L 109.397613 210.510949 
L 112.113209 197.114413 
L 114.828806 245.34194 
L 117.544402 203.812681 
L 120.259999 189.076492 
L 122.975595 206.491988 
L 125.691191 199.79372 
L 128.406788 158.264461 
L 131.122384 177.019611 
L 133.837981 210.510949 
L 136.553577 215.869563 
L 139.269174 190.416146 
L 141.98477 183.717878 
L 144.700367 93.961092 
L 147.415963 227.926444 
L 150.13156 167.642036 
L 152.847156 166.302382 
L 155.562753 75.205943 
L 158.278349 238.643672 
L 160.993946 203.812681 
" clip-path="url(#pf074593a65)" style="fill: none; stroke: #a23b72; stroke-opacity: 0.7; stroke-width: 1.5; stroke-linecap: square"/>
   </g>
   <g id="line2d_30">
    <path d="M 82.241648 217.209216 
L 84.957244 193.095453 
L 87.672841 211.850602 
L 90.388437 185.057532 
L 93.104034 209.171295 
L 95.81963 191.755799 
L 98.535227 203.812681 
L 101.250823 219.888523 
L 103.96642 213.190256 
L 106.682016 225.247137 
L 109.397613 210.510949 
L 112.113209 197.114413 
L 114.828806 245.34194 
L 117.544402 203.812681 
L 120.259999 189.076492 
L 122.975595 206.491988 
L 125.691191 199.79372 
L 128.406788 156.924808 
L 131.122384 177.019611 
L 133.837981 210.510949 
L 136.553577 215.869563 
L 139.269174 190.416146 
L 141.98477 185.057532 
L 144.700367 93.961092 
L 147.415963 227.926444 
L 150.13156 167.642036 
L 152.847156 164.962729 
L 155.562753 76.545597 
L 158.278349 238.643672 
L 160.993946 203.812681 
" clip-path="url(#pf074593a65)" style="fill: none; stroke: #f18f01; stroke-opacity: 0.7; stroke-width: 1.5; stroke-linecap: square"/>
   </g>
   <g id="line2d_31">
    <path d="M 82.241648 217.209216 
L 84.957244 193.095453 
L 87.672841 211.850602 
L 90.388437 185.057532 
L 93.104034 209.171295 
L 95.81963 191.755799 
L 98.535227 203.812681 
L 101.250823 219.888523 
L 103.96642 213.190256 
L 106.682016 223.907484 
L 109.397613 210.510949 
L 112.113209 197.114413 
L 114.828806 245.34194 
L 117.544402 203.812681 
L 120.259999 189.076492 
L 122.975595 206.491988 
L 125.691191 199.79372 
L 128.406788 158.264461 
L 131.122384 177.019611 
L 133.837981 210.510949 
L 136.553577 215.869563 
L 139.269174 190.416146 
L 141.98477 185.057532 
L 144.700367 93.961092 
L 147.415963 227.926444 
L 150.13156 167.642036 
L 152.847156 166.302382 
L 155.562753 75.205943 
L 158.278349 238.643672 
L 160.993946 203.812681 
" clip-path="url(#pf074593a65)" style="fill: none; stroke: #c73e1d; stroke-opacity: 0.7; stroke-width: 1.5; stroke-linecap: square"/>
   </g>
   <g id="patch_4">
    <path d="M 45.716875 528.424125 
L 45.716875 53.624125 
" style="fill: none; stroke: #000000; stroke-width: 0.8; stroke-linejoin: miter; stroke-linecap: square"/>
   </g>
   <g id="patch_5">
    <path d="M 45.716875 528.424125 
L 849.261875 528.424125 
" style="fill: none; stroke: #000000; stroke-width: 0.8; stroke-linejoin: miter; stroke-linecap: square"/>
   </g>
   <g id="text_16">
    <!-- Ablation Study: S-Tracking Performance -->
    <g transform="translate(290.51875 17.837812) scale(0.14 -0.14)">
     <defs>
      <path id="DejaVuSans-Bold-41" d="M 3419 850 
L 1538 850 
L 1241 0 
L 31 0 
L 1759 4666 
L 3194 4666 
L 4922 0 
L 3713 0 
L 3419 850 
z
M 1838 1716 
L 3116 1716 
L 2478 3572 
L 1838 1716 
z
" transform="scale(0.015625)"/>
      <path id="DejaVuSans-Bold-62" d="M 2400 722 
Q 2759 722 2948 984 
Q 3138 1247 3138 1747 
Q 3138 2247 2948 2509 
Q 2759 2772 2400 2772 
Q 2041 2772 1848 2508 
Q 1656 2244 1656 1747 
Q 1656 1250 1848 986 
Q 2041 722 2400 722 
z
M 1656 2988 
Q 1888 3294 2169 3439 
Q 2450 3584 2816 3584 
Q 3463 3584 3878 3070 
Q 4294 2556 4294 1747 
Q 4294 938 3878 423 
Q 3463 -91 2816 -91 
Q 2450 -91 2169 54 
Q 1888 200 1656 506 
L 1656 0 
L 538 0 
L 538 4863 
L 1656 4863 
L 1656 2988 
z
" transform="scale(0.015625)"/>
      <path id="DejaVuSans-Bold-6c" d="M 538 4863 
L 1656 4863 
L 1656 0 
L 538 0 
L 538 4863 
z
" transform="scale(0.015625)"/>
      <path id="DejaVuSans-Bold-61" d="M 2106 1575 
Q 1756 1575 1579 1456 
Q 1403 1338 1403 1106 
Q 1403 894 1545 773 
Q 1688 653 1941 653 
Q 2256 653 2472 879 
Q 2688 1106 2688 1447 
L 2688 1575 
L 2106 1575 
z
M 3816 1997 
L 3816 0 
L 2688 0 
L 2688 519 
Q 2463 200 2181 54 
Q 1900 -91 1497 -91 
Q 953 -91 614 226 
Q 275 544 275 1050 
Q 275 1666 698 1953 
Q 1122 2241 2028 2241 
L 2688 2241 
L 2688 2328 
Q 2688 2594 2478 2717 
Q 2269 2841 1825 2841 
Q 1466 2841 1156 2769 
Q 847 2697 581 2553 
L 581 3406 
Q 941 3494 1303 3539 
Q 1666 3584 2028 3584 
Q 2975 3584 3395 3211 
Q 3816 2838 3816 1997 
z
" transform="scale(0.015625)"/>
      <path id="DejaVuSans-Bold-74" d="M 1759 4494 
L 1759 3500 
L 2913 3500 
L 2913 2700 
L 1759 2700 
L 1759 1216 
Q 1759 972 1856 886 
Q 1953 800 2241 800 
L 2816 800 
L 2816 0 
L 1856 0 
Q 1194 0 917 276 
Q 641 553 641 1216 
L 641 2700 
L 84 2700 
L 84 3500 
L 641 3500 
L 641 4494 
L 1759 4494 
z
" transform="scale(0.015625)"/>
      <path id="DejaVuSans-Bold-69" d="M 538 3500 
L 1656 3500 
L 1656 0 
L 538 0 
L 538 3500 
z
M 538 4863 
L 1656 4863 
L 1656 3950 
L 538 3950 
L 538 4863 
z
" transform="scale(0.015625)"/>
      <path id="DejaVuSans-Bold-6f" d="M 2203 2784 
Q 1831 2784 1636 2517 
Q 1441 2250 1441 1747 
Q 1441 1244 1636 976 
Q 1831 709 2203 709 
Q 2569 709 2762 976 
Q 2956 1244 2956 1747 
Q 2956 2250 2762 2517 
Q 2569 2784 2203 2784 
z
M 2203 3584 
Q 3106 3584 3614 3096 
Q 4122 2609 4122 1747 
Q 4122 884 3614 396 
Q 3106 -91 2203 -91 
Q 1297 -91 786 396 
Q 275 884 275 1747 
Q 275 2609 786 3096 
Q 1297 3584 2203 3584 
z
" transform="scale(0.015625)"/>
      <path id="DejaVuSans-Bold-6e" d="M 4056 2131 
L 4056 0 
L 2931 0 
L 2931 347 
L 2931 1631 
Q 2931 2084 2911 2256 
Q 2891 2428 2841 2509 
Q 2775 2619 2662 2680 
Q 2550 2741 2406 2741 
Q 2056 2741 1856 2470 
Q 1656 2200 1656 1722 
L 1656 0 
L 538 0 
L 538 3500 
L 1656 3500 
L 1656 2988 
Q 1909 3294 2193 3439 
Q 2478 3584 2822 3584 
Q 3428 3584 3742 3212 
Q 4056 2841 4056 2131 
z
" transform="scale(0.015625)"/>
      <path id="DejaVuSans-Bold-20" transform="scale(0.015625)"/>
      <path id="DejaVuSans-Bold-53" d="M 3834 4519 
L 3834 3531 
Q 3450 3703 3084 3790 
Q 2719 3878 2394 3878 
Q 1963 3878 1756 3759 
Q 1550 3641 1550 3391 
Q 1550 3203 1689 3098 
Q 1828 2994 2194 2919 
L 2706 2816 
Q 3484 2659 3812 2340 
Q 4141 2022 4141 1434 
Q 4141 663 3683 286 
Q 3225 -91 2284 -91 
Q 1841 -91 1394 -6 
Q 947 78 500 244 
L 500 1259 
Q 947 1022 1364 901 
Q 1781 781 2169 781 
Q 2563 781 2772 912 
Q 2981 1044 2981 1288 
Q 2981 1506 2839 1625 
Q 2697 1744 2272 1838 
L 1806 1941 
Q 1106 2091 782 2419 
Q 459 2747 459 3303 
Q 459 4000 909 4375 
Q 1359 4750 2203 4750 
Q 2588 4750 2994 4692 
Q 3400 4634 3834 4519 
z
" transform="scale(0.015625)"/>
      <path id="DejaVuSans-Bold-75" d="M 500 1363 
L 500 3500 
L 1625 3500 
L 1625 3150 
Q 1625 2866 1622 2436 
Q 1619 2006 1619 1863 
Q 1619 1441 1641 1255 
Q 1663 1069 1716 984 
Q 1784 875 1895 815 
Q 2006 756 2150 756 
Q 2500 756 2700 1025 
Q 2900 1294 2900 1772 
L 2900 3500 
L 4019 3500 
L 4019 0 
L 2900 0 
L 2900 506 
Q 2647 200 2364 54 
Q 2081 -91 1741 -91 
Q 1134 -91 817 281 
Q 500 653 500 1363 
z
" transform="scale(0.015625)"/>
      <path id="DejaVuSans-Bold-64" d="M 2919 2988 
L 2919 4863 
L 4044 4863 
L 4044 0 
L 2919 0 
L 2919 506 
Q 2688 197 2409 53 
Q 2131 -91 1766 -91 
Q 1119 -91 703 423 
Q 288 938 288 1747 
Q 288 2556 703 3070 
Q 1119 3584 1766 3584 
Q 2128 3584 2408 3439 
Q 2688 3294 2919 2988 
z
M 2181 722 
Q 2541 722 2730 984 
Q 2919 1247 2919 1747 
Q 2919 2247 2730 2509 
Q 2541 2772 2181 2772 
Q 1825 2772 1636 2509 
Q 1447 2247 1447 1747 
Q 1447 1247 1636 984 
Q 1825 722 2181 722 
z
" transform="scale(0.015625)"/>
      <path id="DejaVuSans-Bold-79" d="M 78 3500 
L 1197 3500 
L 2138 1125 
L 2938 3500 
L 4056 3500 
L 2584 -331 
Q 2363 -916 2067 -1148 
Q 1772 -1381 1288 -1381 
L 641 -1381 
L 641 -647 
L 991 -647 
Q 1275 -647 1404 -556 
Q 1534 -466 1606 -231 
L 1638 -134 
L 78 3500 
z
" transform="scale(0.015625)"/>
      <path id="DejaVuSans-Bold-3a" d="M 716 3500 
L 1844 3500 
L 1844 2291 
L 716 2291 
L 716 3500 
z
M 716 1209 
L 1844 1209 
L 1844 0 
L 716 0 
L 716 1209 
z
" transform="scale(0.015625)"/>
      <path id="DejaVuSans-Bold-2d" d="M 347 2297 
L 2309 2297 
L 2309 1388 
L 347 1388 
L 347 2297 
z
" transform="scale(0.015625)"/>
      <path id="DejaVuSans-Bold-54" d="M 31 4666 
L 4331 4666 
L 4331 3756 
L 2784 3756 
L 2784 0 
L 1581 0 
L 1581 3756 
L 31 3756 
L 31 4666 
z
" transform="scale(0.015625)"/>
      <path id="DejaVuSans-Bold-72" d="M 3138 2547 
Q 2991 2616 2845 2648 
Q 2700 2681 2553 2681 
Q 2122 2681 1889 2404 
Q 1656 2128 1656 1613 
L 1656 0 
L 538 0 
L 538 3500 
L 1656 3500 
L 1656 2925 
Q 1872 3269 2151 3426 
Q 2431 3584 2822 3584 
Q 2878 3584 2943 3579 
Q 3009 3575 3134 3559 
L 3138 2547 
z
" transform="scale(0.015625)"/>
      <path id="DejaVuSans-Bold-63" d="M 3366 3391 
L 3366 2478 
Q 3138 2634 2908 2709 
Q 2678 2784 2431 2784 
Q 1963 2784 1702 2511 
Q 1441 2238 1441 1747 
Q 1441 1256 1702 982 
Q 1963 709 2431 709 
Q 2694 709 2930 787 
Q 3166 866 3366 1019 
L 3366 103 
Q 3103 6 2833 -42 
Q 2563 -91 2291 -91 
Q 1344 -91 809 395 
Q 275 881 275 1747 
Q 275 2613 809 3098 
Q 1344 3584 2291 3584 
Q 2566 3584 2833 3536 
Q 3100 3488 3366 3391 
z
" transform="scale(0.015625)"/>
      <path id="DejaVuSans-Bold-6b" d="M 538 4863 
L 1656 4863 
L 1656 2216 
L 2944 3500 
L 4244 3500 
L 2534 1894 
L 4378 0 
L 3022 0 
L 1656 1459 
L 1656 0 
L 538 0 
L 538 4863 
z
" transform="scale(0.015625)"/>
      <path id="DejaVuSans-Bold-67" d="M 2919 594 
Q 2688 288 2409 144 
Q 2131 0 1766 0 
Q 1125 0 706 504 
Q 288 1009 288 1791 
Q 288 2575 706 3076 
Q 1125 3578 1766 3578 
Q 2131 3578 2409 3434 
Q 2688 3291 2919 2981 
L 2919 3500 
L 4044 3500 
L 4044 353 
Q 4044 -491 3511 -936 
Q 2978 -1381 1966 -1381 
Q 1638 -1381 1331 -1331 
Q 1025 -1281 716 -1178 
L 716 -306 
Q 1009 -475 1290 -558 
Q 1572 -641 1856 -641 
Q 2406 -641 2662 -400 
Q 2919 -159 2919 353 
L 2919 594 
z
M 2181 2772 
Q 1834 2772 1640 2515 
Q 1447 2259 1447 1791 
Q 1447 1309 1634 1061 
Q 1822 813 2181 813 
Q 2531 813 2725 1069 
Q 2919 1325 2919 1791 
Q 2919 2259 2725 2515 
Q 2531 2772 2181 2772 
z
" transform="scale(0.015625)"/>
      <path id="DejaVuSans-Bold-50" d="M 588 4666 
L 2584 4666 
Q 3475 4666 3951 4270 
Q 4428 3875 4428 3144 
Q 4428 2409 3951 2014 
Q 3475 1619 2584 1619 
L 1791 1619 
L 1791 0 
L 588 0 
L 588 4666 
z
M 1791 3794 
L 1791 2491 
L 2456 2491 
Q 2806 2491 2997 2661 
Q 3188 2831 3188 3144 
Q 3188 3456 2997 3625 
Q 2806 3794 2456 3794 
L 1791 3794 
z
" transform="scale(0.015625)"/>
      <path id="DejaVuSans-Bold-65" d="M 4031 1759 
L 4031 1441 
L 1416 1441 
Q 1456 1047 1700 850 
Q 1944 653 2381 653 
Q 2734 653 3104 758 
Q 3475 863 3866 1075 
L 3866 213 
Q 3469 63 3072 -14 
Q 2675 -91 2278 -91 
Q 1328 -91 801 392 
Q 275 875 275 1747 
Q 275 2603 792 3093 
Q 1309 3584 2216 3584 
Q 3041 3584 3536 3087 
Q 4031 2591 4031 1759 
z
M 2881 2131 
Q 2881 2450 2695 2645 
Q 2509 2841 2209 2841 
Q 1884 2841 1681 2658 
Q 1478 2475 1428 2131 
L 2881 2131 
z
" transform="scale(0.015625)"/>
      <path id="DejaVuSans-Bold-66" d="M 2841 4863 
L 2841 4128 
L 2222 4128 
Q 1984 4128 1890 4042 
Q 1797 3956 1797 3744 
L 1797 3500 
L 2753 3500 
L 2753 2700 
L 1797 2700 
L 1797 0 
L 678 0 
L 678 2700 
L 122 2700 
L 122 3500 
L 678 3500 
L 678 3744 
Q 678 4316 997 4589 
Q 1316 4863 1984 4863 
L 2841 4863 
z
" transform="scale(0.015625)"/>
      <path id="DejaVuSans-Bold-6d" d="M 3781 2919 
Q 3994 3244 4286 3414 
Q 4578 3584 4928 3584 
Q 5531 3584 5847 3212 
Q 6163 2841 6163 2131 
L 6163 0 
L 5038 0 
L 5038 1825 
Q 5041 1866 5042 1909 
Q 5044 1953 5044 2034 
Q 5044 2406 4934 2573 
Q 4825 2741 4581 2741 
Q 4263 2741 4089 2478 
Q 3916 2216 3909 1719 
L 3909 0 
L 2784 0 
L 2784 1825 
Q 2784 2406 2684 2573 
Q 2584 2741 2328 2741 
Q 2006 2741 1831 2477 
Q 1656 2213 1656 1722 
L 1656 0 
L 531 0 
L 531 3500 
L 1656 3500 
L 1656 2988 
Q 1863 3284 2130 3434 
Q 2397 3584 2719 3584 
Q 3081 3584 3359 3409 
Q 3638 3234 3781 2919 
z
" transform="scale(0.015625)"/>
     </defs>
     <use xlink:href="#DejaVuSans-Bold-41"/>
     <use xlink:href="#DejaVuSans-Bold-62" transform="translate(77.392578 0)"/>
     <use xlink:href="#DejaVuSans-Bold-6c" transform="translate(148.974609 0)"/>
     <use xlink:href="#DejaVuSans-Bold-61" transform="translate(183.251953 0)"/>
     <use xlink:href="#DejaVuSans-Bold-74" transform="translate(250.732422 0)"/>
     <use xlink:href="#DejaVuSans-Bold-69" transform="translate(298.535156 0)"/>
     <use xlink:href="#DejaVuSans-Bold-6f" transform="translate(332.8125 0)"/>
     <use xlink:href="#DejaVuSans-Bold-6e" transform="translate(401.513672 0)"/>
     <use xlink:href="#DejaVuSans-Bold-20" transform="translate(472.705078 0)"/>
     <use xlink:href="#DejaVuSans-Bold-53" transform="translate(507.519531 0)"/>
     <use xlink:href="#DejaVuSans-Bold-74" transform="translate(579.541016 0)"/>
     <use xlink:href="#DejaVuSans-Bold-75" transform="translate(627.34375 0)"/>
     <use xlink:href="#DejaVuSans-Bold-64" transform="translate(698.535156 0)"/>
     <use xlink:href="#DejaVuSans-Bold-79" transform="translate(770.117188 0)"/>
     <use xlink:href="#DejaVuSans-Bold-3a" transform="translate(835.302734 0)"/>
     <use xlink:href="#DejaVuSans-Bold-20" transform="translate(875.292969 0)"/>
     <use xlink:href="#DejaVuSans-Bold-53" transform="translate(910.107422 0)"/>
     <use xlink:href="#DejaVuSans-Bold-2d" transform="translate(982.128906 0)"/>
     <use xlink:href="#DejaVuSans-Bold-54" transform="translate(1008.882812 0)"/>
     <use xlink:href="#DejaVuSans-Bold-72" transform="translate(1066.095703 0)"/>
     <use xlink:href="#DejaVuSans-Bold-61" transform="translate(1115.412109 0)"/>
     <use xlink:href="#DejaVuSans-Bold-63" transform="translate(1182.892578 0)"/>
     <use xlink:href="#DejaVuSans-Bold-6b" transform="translate(1242.169922 0)"/>
     <use xlink:href="#DejaVuSans-Bold-69" transform="translate(1308.673828 0)"/>
     <use xlink:href="#DejaVuSans-Bold-6e" transform="translate(1342.951172 0)"/>
     <use xlink:href="#DejaVuSans-Bold-67" transform="translate(1414.142578 0)"/>
     <use xlink:href="#DejaVuSans-Bold-20" transform="translate(1485.724609 0)"/>
     <use xlink:href="#DejaVuSans-Bold-50" transform="translate(1520.539062 0)"/>
     <use xlink:href="#DejaVuSans-Bold-65" transform="translate(1593.830078 0)"/>
     <use xlink:href="#DejaVuSans-Bold-72" transform="translate(1661.652344 0)"/>
     <use xlink:href="#DejaVuSans-Bold-66" transform="translate(1710.96875 0)"/>
     <use xlink:href="#DejaVuSans-Bold-6f" transform="translate(1754.474609 0)"/>
     <use xlink:href="#DejaVuSans-Bold-72" transform="translate(1823.175781 0)"/>
     <use xlink:href="#DejaVuSans-Bold-6d" transform="translate(1872.492188 0)"/>
     <use xlink:href="#DejaVuSans-Bold-61" transform="translate(1976.691406 0)"/>
     <use xlink:href="#DejaVuSans-Bold-6e" transform="translate(2044.171875 0)"/>
     <use xlink:href="#DejaVuSans-Bold-63" transform="translate(2115.363281 0)"/>
     <use xlink:href="#DejaVuSans-Bold-65" transform="translate(2174.640625 0)"/>
    </g>
    <!-- (PI Control vs Fixed Lambda) -->
    <g transform="translate(333.264688 33.624125) scale(0.14 -0.14)">
     <defs>
      <path id="DejaVuSans-Bold-28" d="M 2413 -844 
L 1484 -844 
Q 1006 -72 778 623 
Q 550 1319 550 2003 
Q 550 2688 779 3389 
Q 1009 4091 1484 4856 
L 2413 4856 
Q 2013 4116 1813 3408 
Q 1613 2700 1613 2009 
Q 1613 1319 1811 609 
Q 2009 -100 2413 -844 
z
" transform="scale(0.015625)"/>
      <path id="DejaVuSans-Bold-49" d="M 588 4666 
L 1791 4666 
L 1791 0 
L 588 0 
L 588 4666 
z
" transform="scale(0.015625)"/>
      <path id="DejaVuSans-Bold-43" d="M 4288 256 
Q 3956 84 3597 -3 
Q 3238 -91 2847 -91 
Q 1681 -91 1000 561 
Q 319 1213 319 2328 
Q 319 3447 1000 4098 
Q 1681 4750 2847 4750 
Q 3238 4750 3597 4662 
Q 3956 4575 4288 4403 
L 4288 3438 
Q 3953 3666 3628 3772 
Q 3303 3878 2944 3878 
Q 2300 3878 1931 3465 
Q 1563 3053 1563 2328 
Q 1563 1606 1931 1193 
Q 2300 781 2944 781 
Q 3303 781 3628 887 
Q 3953 994 4288 1222 
L 4288 256 
z
" transform="scale(0.015625)"/>
      <path id="DejaVuSans-Bold-76" d="M 97 3500 
L 1216 3500 
L 2088 1081 
L 2956 3500 
L 4078 3500 
L 2700 0 
L 1472 0 
L 97 3500 
z
" transform="scale(0.015625)"/>
      <path id="DejaVuSans-Bold-73" d="M 3272 3391 
L 3272 2541 
Q 2913 2691 2578 2766 
Q 2244 2841 1947 2841 
Q 1628 2841 1473 2761 
Q 1319 2681 1319 2516 
Q 1319 2381 1436 2309 
Q 1553 2238 1856 2203 
L 2053 2175 
Q 2913 2066 3209 1816 
Q 3506 1566 3506 1031 
Q 3506 472 3093 190 
Q 2681 -91 1863 -91 
Q 1516 -91 1145 -36 
Q 775 19 384 128 
L 384 978 
Q 719 816 1070 734 
Q 1422 653 1784 653 
Q 2113 653 2278 743 
Q 2444 834 2444 1013 
Q 2444 1163 2330 1236 
Q 2216 1309 1875 1350 
L 1678 1375 
Q 931 1469 631 1722 
Q 331 1975 331 2491 
Q 331 3047 712 3315 
Q 1094 3584 1881 3584 
Q 2191 3584 2531 3537 
Q 2872 3491 3272 3391 
z
" transform="scale(0.015625)"/>
      <path id="DejaVuSans-Bold-46" d="M 588 4666 
L 3834 4666 
L 3834 3756 
L 1791 3756 
L 1791 2888 
L 3713 2888 
L 3713 1978 
L 1791 1978 
L 1791 0 
L 588 0 
L 588 4666 
z
" transform="scale(0.015625)"/>
      <path id="DejaVuSans-Bold-78" d="M 1422 1791 
L 159 3500 
L 1344 3500 
L 2059 2463 
L 2784 3500 
L 3969 3500 
L 2706 1797 
L 4031 0 
L 2847 0 
L 2059 1106 
L 1281 0 
L 97 0 
L 1422 1791 
z
" transform="scale(0.015625)"/>
      <path id="DejaVuSans-Bold-4c" d="M 588 4666 
L 1791 4666 
L 1791 909 
L 3903 909 
L 3903 0 
L 588 0 
L 588 4666 
z
" transform="scale(0.015625)"/>
      <path id="DejaVuSans-Bold-29" d="M 513 -844 
Q 913 -100 1113 609 
Q 1313 1319 1313 2009 
Q 1313 2700 1113 3408 
Q 913 4116 513 4856 
L 1441 4856 
Q 1916 4091 2145 3389 
Q 2375 2688 2375 2003 
Q 2375 1319 2147 623 
Q 1919 -72 1441 -844 
L 513 -844 
z
" transform="scale(0.015625)"/>
     </defs>
     <use xlink:href="#DejaVuSans-Bold-28"/>
     <use xlink:href="#DejaVuSans-Bold-50" transform="translate(45.703125 0)"/>
     <use xlink:href="#DejaVuSans-Bold-49" transform="translate(118.994141 0)"/>
     <use xlink:href="#DejaVuSans-Bold-20" transform="translate(156.201172 0)"/>
     <use xlink:href="#DejaVuSans-Bold-43" transform="translate(191.015625 0)"/>
     <use xlink:href="#DejaVuSans-Bold-6f" transform="translate(264.404297 0)"/>
     <use xlink:href="#DejaVuSans-Bold-6e" transform="translate(333.105469 0)"/>
     <use xlink:href="#DejaVuSans-Bold-74" transform="translate(404.296875 0)"/>
     <use xlink:href="#DejaVuSans-Bold-72" transform="translate(452.099609 0)"/>
     <use xlink:href="#DejaVuSans-Bold-6f" transform="translate(501.416016 0)"/>
     <use xlink:href="#DejaVuSans-Bold-6c" transform="translate(570.117188 0)"/>
     <use xlink:href="#DejaVuSans-Bold-20" transform="translate(604.394531 0)"/>
     <use xlink:href="#DejaVuSans-Bold-76" transform="translate(639.208984 0)"/>
     <use xlink:href="#DejaVuSans-Bold-73" transform="translate(704.394531 0)"/>
     <use xlink:href="#DejaVuSans-Bold-20" transform="translate(763.916016 0)"/>
     <use xlink:href="#DejaVuSans-Bold-46" transform="translate(798.730469 0)"/>
     <use xlink:href="#DejaVuSans-Bold-69" transform="translate(867.041016 0)"/>
     <use xlink:href="#DejaVuSans-Bold-78" transform="translate(901.318359 0)"/>
     <use xlink:href="#DejaVuSans-Bold-65" transform="translate(965.820312 0)"/>
     <use xlink:href="#DejaVuSans-Bold-64" transform="translate(1033.642578 0)"/>
     <use xlink:href="#DejaVuSans-Bold-20" transform="translate(1105.224609 0)"/>
     <use xlink:href="#DejaVuSans-Bold-4c" transform="translate(1140.039062 0)"/>
     <use xlink:href="#DejaVuSans-Bold-61" transform="translate(1203.759766 0)"/>
     <use xlink:href="#DejaVuSans-Bold-6d" transform="translate(1271.240234 0)"/>
     <use xlink:href="#DejaVuSans-Bold-62" transform="translate(1375.439453 0)"/>
     <use xlink:href="#DejaVuSans-Bold-64" transform="translate(1447.021484 0)"/>
     <use xlink:href="#DejaVuSans-Bold-61" transform="translate(1518.603516 0)"/>
     <use xlink:href="#DejaVuSans-Bold-29" transform="translate(1586.083984 0)"/>
    </g>
   </g>
   <g id="legend_1">
    <g id="patch_6">
     <path d="M 671.255625 135.01475 
L 842.261875 135.01475 
Q 844.261875 135.01475 844.261875 133.01475 
L 844.261875 60.624125 
Q 844.261875 58.624125 842.261875 58.624125 
L 671.255625 58.624125 
Q 669.255625 58.624125 669.255625 60.624125 
L 669.255625 133.01475 
Q 669.255625 135.01475 671.255625 135.01475 
z
" style="fill: #ffffff; opacity: 0.8; stroke: #cccccc; stroke-linejoin: miter"/>
    </g>
    <g id="patch_7">
     <path d="M 673.255625 70.222562 
L 693.255625 70.222562 
L 693.255625 63.222562 
L 673.255625 63.222562 
z
" style="fill: #e8e8e8; opacity: 0.3; stroke: #e8e8e8; stroke-linejoin: miter"/>
    </g>
    <g id="text_17">
     <!-- Target band (1.0%  0.2pp) -->
     <g transform="translate(701.255625 70.222562) scale(0.1 -0.1)">
      <defs>
       <path id="DejaVuSans-62" d="M 3116 1747 
Q 3116 2381 2855 2742 
Q 2594 3103 2138 3103 
Q 1681 3103 1420 2742 
Q 1159 2381 1159 1747 
Q 1159 1113 1420 752 
Q 1681 391 2138 391 
Q 2594 391 2855 752 
Q 3116 1113 3116 1747 
z
M 1159 2969 
Q 1341 3281 1617 3432 
Q 1894 3584 2278 3584 
Q 2916 3584 3314 3078 
Q 3713 2572 3713 1747 
Q 3713 922 3314 415 
Q 2916 -91 2278 -91 
Q 1894 -91 1617 61 
Q 1341 213 1159 525 
L 1159 0 
L 581 0 
L 581 4863 
L 1159 4863 
L 1159 2969 
z
" transform="scale(0.015625)"/>
       <path id="DejaVuSans-64" d="M 2906 2969 
L 2906 4863 
L 3481 4863 
L 3481 0 
L 2906 0 
L 2906 525 
Q 2725 213 2448 61 
Q 2172 -91 1784 -91 
Q 1150 -91 751 415 
Q 353 922 353 1747 
Q 353 2572 751 3078 
Q 1150 3584 1784 3584 
Q 2172 3584 2448 3432 
Q 2725 3281 2906 2969 
z
M 947 1747 
Q 947 1113 1208 752 
Q 1469 391 1925 391 
Q 2381 391 2643 752 
Q 2906 1113 2906 1747 
Q 2906 2381 2643 2742 
Q 2381 3103 1925 3103 
Q 1469 3103 1208 2742 
Q 947 2381 947 1747 
z
" transform="scale(0.015625)"/>
       <path id="DejaVuSans-b1" d="M 2944 4013 
L 2944 2803 
L 4684 2803 
L 4684 2272 
L 2944 2272 
L 2944 1063 
L 2419 1063 
L 2419 2272 
L 678 2272 
L 678 2803 
L 2419 2803 
L 2419 4013 
L 2944 4013 
z
M 678 531 
L 4684 531 
L 4684 0 
L 678 0 
L 678 531 
z
" transform="scale(0.015625)"/>
      </defs>
      <use xlink:href="#DejaVuSans-54"/>
      <use xlink:href="#DejaVuSans-61" transform="translate(44.583984 0)"/>
      <use xlink:href="#DejaVuSans-72" transform="translate(105.863281 0)"/>
      <use xlink:href="#DejaVuSans-67" transform="translate(145.226562 0)"/>
      <use xlink:href="#DejaVuSans-65" transform="translate(208.703125 0)"/>
      <use xlink:href="#DejaVuSans-74" transform="translate(270.226562 0)"/>
      <use xlink:href="#DejaVuSans-20" transform="translate(309.435547 0)"/>
      <use xlink:href="#DejaVuSans-62" transform="translate(341.222656 0)"/>
      <use xlink:href="#DejaVuSans-61" transform="translate(404.699219 0)"/>
      <use xlink:href="#DejaVuSans-6e" transform="translate(465.978516 0)"/>
      <use xlink:href="#DejaVuSans-64" transform="translate(529.357422 0)"/>
      <use xlink:href="#DejaVuSans-20" transform="translate(592.833984 0)"/>
      <use xlink:href="#DejaVuSans-28" transform="translate(624.621094 0)"/>
      <use xlink:href="#DejaVuSans-31" transform="translate(663.634766 0)"/>
      <use xlink:href="#DejaVuSans-2e" transform="translate(727.257812 0)"/>
      <use xlink:href="#DejaVuSans-30" transform="translate(759.044922 0)"/>
      <use xlink:href="#DejaVuSans-25" transform="translate(822.667969 0)"/>
      <use xlink:href="#DejaVuSans-20" transform="translate(917.6875 0)"/>
      <use xlink:href="#DejaVuSans-b1" transform="translate(949.474609 0)"/>
      <use xlink:href="#DejaVuSans-20" transform="translate(1033.263672 0)"/>
      <use xlink:href="#DejaVuSans-30" transform="translate(1065.050781 0)"/>
      <use xlink:href="#DejaVuSans-2e" transform="translate(1128.673828 0)"/>
      <use xlink:href="#DejaVuSans-32" transform="translate(1160.460938 0)"/>
      <use xlink:href="#DejaVuSans-70" transform="translate(1224.083984 0)"/>
      <use xlink:href="#DejaVuSans-70" transform="translate(1287.560547 0)"/>
      <use xlink:href="#DejaVuSans-29" transform="translate(1351.037109 0)"/>
     </g>
    </g>
    <g id="line2d_32">
     <path d="M 673.255625 81.400687 
L 683.255625 81.400687 
L 693.255625 81.400687 
" style="fill: none; stroke: #2e86ab; stroke-opacity: 0.9; stroke-width: 2.5; stroke-linecap: square"/>
    </g>
    <g id="text_18">
     <!-- PI Control (Adaptive) -->
     <g transform="translate(701.255625 84.900687) scale(0.1 -0.1)">
      <defs>
       <path id="DejaVuSans-50" d="M 1259 4147 
L 1259 2394 
L 2053 2394 
Q 2494 2394 2734 2622 
Q 2975 2850 2975 3272 
Q 2975 3691 2734 3919 
Q 2494 4147 2053 4147 
L 1259 4147 
z
M 628 4666 
L 2053 4666 
Q 2838 4666 3239 4311 
Q 3641 3956 3641 3272 
Q 3641 2581 3239 2228 
Q 2838 1875 2053 1875 
L 1259 1875 
L 1259 0 
L 628 0 
L 628 4666 
z
" transform="scale(0.015625)"/>
       <path id="DejaVuSans-43" d="M 4122 4306 
L 4122 3641 
Q 3803 3938 3442 4084 
Q 3081 4231 2675 4231 
Q 1875 4231 1450 3742 
Q 1025 3253 1025 2328 
Q 1025 1406 1450 917 
Q 1875 428 2675 428 
Q 3081 428 3442 575 
Q 3803 722 4122 1019 
L 4122 359 
Q 3791 134 3420 21 
Q 3050 -91 2638 -91 
Q 1578 -91 968 557 
Q 359 1206 359 2328 
Q 359 3453 968 4101 
Q 1578 4750 2638 4750 
Q 3056 4750 3426 4639 
Q 3797 4528 4122 4306 
z
" transform="scale(0.015625)"/>
       <path id="DejaVuSans-6c" d="M 603 4863 
L 1178 4863 
L 1178 0 
L 603 0 
L 603 4863 
z
" transform="scale(0.015625)"/>
       <path id="DejaVuSans-41" d="M 2188 4044 
L 1331 1722 
L 3047 1722 
L 2188 4044 
z
M 1831 4666 
L 2547 4666 
L 4325 0 
L 3669 0 
L 3244 1197 
L 1141 1197 
L 716 0 
L 50 0 
L 1831 4666 
z
" transform="scale(0.015625)"/>
       <path id="DejaVuSans-76" d="M 191 3500 
L 800 3500 
L 1894 563 
L 2988 3500 
L 3597 3500 
L 2284 0 
L 1503 0 
L 191 3500 
z
" transform="scale(0.015625)"/>
      </defs>
      <use xlink:href="#DejaVuSans-50"/>
      <use xlink:href="#DejaVuSans-49" transform="translate(60.302734 0)"/>
      <use xlink:href="#DejaVuSans-20" transform="translate(89.794922 0)"/>
      <use xlink:href="#DejaVuSans-43" transform="translate(121.582031 0)"/>
      <use xlink:href="#DejaVuSans-6f" transform="translate(191.40625 0)"/>
      <use xlink:href="#DejaVuSans-6e" transform="translate(252.587891 0)"/>
      <use xlink:href="#DejaVuSans-74" transform="translate(315.966797 0)"/>
      <use xlink:href="#DejaVuSans-72" transform="translate(355.175781 0)"/>
      <use xlink:href="#DejaVuSans-6f" transform="translate(394.039062 0)"/>
      <use xlink:href="#DejaVuSans-6c" transform="translate(455.220703 0)"/>
      <use xlink:href="#DejaVuSans-20" transform="translate(483.003906 0)"/>
      <use xlink:href="#DejaVuSans-28" transform="translate(514.791016 0)"/>
      <use xlink:href="#DejaVuSans-41" transform="translate(553.804688 0)"/>
      <use xlink:href="#DejaVuSans-64" transform="translate(620.462891 0)"/>
      <use xlink:href="#DejaVuSans-61" transform="translate(683.939453 0)"/>
      <use xlink:href="#DejaVuSans-70" transform="translate(745.21875 0)"/>
      <use xlink:href="#DejaVuSans-74" transform="translate(808.695312 0)"/>
      <use xlink:href="#DejaVuSans-69" transform="translate(847.904297 0)"/>
      <use xlink:href="#DejaVuSans-76" transform="translate(875.6875 0)"/>
      <use xlink:href="#DejaVuSans-65" transform="translate(934.867188 0)"/>
      <use xlink:href="#DejaVuSans-29" transform="translate(996.390625 0)"/>
     </g>
    </g>
    <g id="line2d_33">
     <path d="M 673.255625 96.078812 
L 683.255625 96.078812 
L 693.255625 96.078812 
" style="fill: none; stroke: #a23b72; stroke-opacity: 0.7; stroke-width: 1.5; stroke-linecap: square"/>
    </g>
    <g id="text_19">
     <!-- Fixed =0.5 -->
     <g transform="translate(701.255625 99.578812) scale(0.1 -0.1)">
      <defs>
       <path id="DejaVuSans-46" d="M 628 4666 
L 3309 4666 
L 3309 4134 
L 1259 4134 
L 1259 2759 
L 3109 2759 
L 3109 2228 
L 1259 2228 
L 1259 0 
L 628 0 
L 628 4666 
z
" transform="scale(0.015625)"/>
       <path id="DejaVuSans-78" d="M 3513 3500 
L 2247 1797 
L 3578 0 
L 2900 0 
L 1881 1375 
L 863 0 
L 184 0 
L 1544 1831 
L 300 3500 
L 978 3500 
L 1906 2253 
L 2834 3500 
L 3513 3500 
z
" transform="scale(0.015625)"/>
       <path id="DejaVuSans-3bb" d="M 1981 4316 
L 3597 0 
L 2988 0 
L 2006 2588 
L 800 0 
L 191 0 
L 1725 3356 
L 1494 3975 
Q 1347 4369 1013 4369 
L 713 4369 
L 713 4863 
L 1078 4856 
Q 1784 4847 1981 4316 
z
" transform="scale(0.015625)"/>
       <path id="DejaVuSans-3d" d="M 678 2906 
L 4684 2906 
L 4684 2381 
L 678 2381 
L 678 2906 
z
M 678 1631 
L 4684 1631 
L 4684 1100 
L 678 1100 
L 678 1631 
z
" transform="scale(0.015625)"/>
      </defs>
      <use xlink:href="#DejaVuSans-46"/>
      <use xlink:href="#DejaVuSans-69" transform="translate(50.269531 0)"/>
      <use xlink:href="#DejaVuSans-78" transform="translate(78.052734 0)"/>
      <use xlink:href="#DejaVuSans-65" transform="translate(134.107422 0)"/>
      <use xlink:href="#DejaVuSans-64" transform="translate(195.630859 0)"/>
      <use xlink:href="#DejaVuSans-20" transform="translate(259.107422 0)"/>
      <use xlink:href="#DejaVuSans-3bb" transform="translate(290.894531 0)"/>
      <use xlink:href="#DejaVuSans-3d" transform="translate(350.074219 0)"/>
      <use xlink:href="#DejaVuSans-30" transform="translate(433.863281 0)"/>
      <use xlink:href="#DejaVuSans-2e" transform="translate(497.486328 0)"/>
      <use xlink:href="#DejaVuSans-35" transform="translate(529.273438 0)"/>
     </g>
    </g>
    <g id="line2d_34">
     <path d="M 673.255625 110.756937 
L 683.255625 110.756937 
L 693.255625 110.756937 
" style="fill: none; stroke: #f18f01; stroke-opacity: 0.7; stroke-width: 1.5; stroke-linecap: square"/>
    </g>
    <g id="text_20">
     <!-- Fixed =1.0 -->
     <g transform="translate(701.255625 114.256937) scale(0.1 -0.1)">
      <use xlink:href="#DejaVuSans-46"/>
      <use xlink:href="#DejaVuSans-69" transform="translate(50.269531 0)"/>
      <use xlink:href="#DejaVuSans-78" transform="translate(78.052734 0)"/>
      <use xlink:href="#DejaVuSans-65" transform="translate(134.107422 0)"/>
      <use xlink:href="#DejaVuSans-64" transform="translate(195.630859 0)"/>
      <use xlink:href="#DejaVuSans-20" transform="translate(259.107422 0)"/>
      <use xlink:href="#DejaVuSans-3bb" transform="translate(290.894531 0)"/>
      <use xlink:href="#DejaVuSans-3d" transform="translate(350.074219 0)"/>
      <use xlink:href="#DejaVuSans-31" transform="translate(433.863281 0)"/>
      <use xlink:href="#DejaVuSans-2e" transform="translate(497.486328 0)"/>
      <use xlink:href="#DejaVuSans-30" transform="translate(529.273438 0)"/>
     </g>
    </g>
    <g id="line2d_35">
     <path d="M 673.255625 125.435062 
L 683.255625 125.435062 
L 693.255625 125.435062 
" style="fill: none; stroke: #c73e1d; stroke-opacity: 0.7; stroke-width: 1.5; stroke-linecap: square"/>
    </g>
    <g id="text_21">
     <!-- Fixed =2.0 -->
     <g transform="translate(701.255625 128.935062) scale(0.1 -0.1)">
      <use xlink:href="#DejaVuSans-46"/>
      <use xlink:href="#DejaVuSans-69" transform="translate(50.269531 0)"/>
      <use xlink:href="#DejaVuSans-78" transform="translate(78.052734 0)"/>
      <use xlink:href="#DejaVuSans-65" transform="translate(134.107422 0)"/>
      <use xlink:href="#DejaVuSans-64" transform="translate(195.630859 0)"/>
      <use xlink:href="#DejaVuSans-20" transform="translate(259.107422 0)"/>
      <use xlink:href="#DejaVuSans-3bb" transform="translate(290.894531 0)"/>
      <use xlink:href="#DejaVuSans-3d" transform="translate(350.074219 0)"/>
      <use xlink:href="#DejaVuSans-32" transform="translate(433.863281 0)"/>
      <use xlink:href="#DejaVuSans-2e" transform="translate(497.486328 0)"/>
      <use xlink:href="#DejaVuSans-30" transform="translate(529.273438 0)"/>
     </g>
    </g>
   </g>
  </g>
 </g>
 <defs>
  <clipPath id="pf074593a65">
   <rect x="45.716875" y="53.624125" width="803.545" height="474.8"/>
  </clipPath>
 </defs>
</svg>
