<?xml version="1.0" encoding="utf-8" standalone="no"?>
<!DOCTYPE svg PUBLIC "-//W3C//DTD SVG 1.1//EN"
  "http://www.w3.org/Graphics/SVG/1.1/DTD/svg11.dtd">
<svg xmlns:xlink="http://www.w3.org/1999/xlink" width="614.442813pt" height="400.392812pt" viewBox="0 0 614.442813 400.392812" xmlns="http://www.w3.org/2000/svg" version="1.1">
 <metadata>
  <rdf:RDF xmlns:dc="http://purl.org/dc/elements/1.1/" xmlns:cc="http://creativecommons.org/ns#" xmlns:rdf="http://www.w3.org/1999/02/22-rdf-syntax-ns#">
   <cc:Work>
    <dc:type rdf:resource="http://purl.org/dc/dcmitype/StillImage"/>
    <dc:date>2025-09-04T00:06:09.441694</dc:date>
    <dc:format>image/svg+xml</dc:format>
    <dc:creator>
     <cc:Agent>
      <dc:title>Matplotlib v3.10.5, https://matplotlib.org/</dc:title>
     </cc:Agent>
    </dc:creator>
   </cc:Work>
  </rdf:RDF>
 </metadata>
 <defs>
  <style type="text/css">*{stroke-linejoin: round; stroke-linecap: butt}</style>
 </defs>
 <g id="figure_1">
  <g id="patch_1">
   <path d="M 0 400.392812 
L 614.442813 400.392812 
L 614.442813 0 
L 0 0 
z
" style="fill: #ffffff"/>
  </g>
  <g id="axes_1">
   <g id="patch_2">
    <path d="M 49.242813 357.9975 
L 607.242813 357.9975 
L 607.242813 25.3575 
L 49.242813 25.3575 
z
" style="fill: #ffffff"/>
   </g>
   <g id="matplotlib.axis_1">
    <g id="xtick_1">
     <g id="line2d_1">
      <path d="M 74.606449 357.9975 
L 74.606449 25.3575 
" clip-path="url(#p21b1e09d7c)" style="fill: none; stroke-dasharray: 2.96,1.28; stroke-dashoffset: 0; stroke: #b0b0b0; stroke-opacity: 0.3; stroke-width: 0.8"/>
     </g>
     <g id="line2d_2">
      <defs>
       <path id="mada92c5425" d="M 0 0 
L 0 3.5 
" style="stroke: #000000; stroke-width: 0.8"/>
      </defs>
      <g>
       <use xlink:href="#mada92c5425" x="74.606449" y="357.9975" style="stroke: #000000; stroke-width: 0.8"/>
      </g>
     </g>
     <g id="text_1">
      <!-- 0 -->
      <g transform="translate(71.107074 373.355781) scale(0.11 -0.11)">
       <defs>
        <path id="DejaVuSans-30" d="M 2034 4250 
Q 1547 4250 1301 3770 
Q 1056 3291 1056 2328 
Q 1056 1369 1301 889 
Q 1547 409 2034 409 
Q 2525 409 2770 889 
Q 3016 1369 3016 2328 
Q 3016 3291 2770 3770 
Q 2525 4250 2034 4250 
z
M 2034 4750 
Q 2819 4750 3233 4129 
Q 3647 3509 3647 2328 
Q 3647 1150 3233 529 
Q 2819 -91 2034 -91 
Q 1250 -91 836 529 
Q 422 1150 422 2328 
Q 422 3509 836 4129 
Q 1250 4750 2034 4750 
z
" transform="scale(0.015625)"/>
       </defs>
       <use xlink:href="#DejaVuSans-30"/>
      </g>
     </g>
    </g>
    <g id="xtick_2">
     <g id="line2d_3">
      <path d="M 168.89506 357.9975 
L 168.89506 25.3575 
" clip-path="url(#p21b1e09d7c)" style="fill: none; stroke-dasharray: 2.96,1.28; stroke-dashoffset: 0; stroke: #b0b0b0; stroke-opacity: 0.3; stroke-width: 0.8"/>
     </g>
     <g id="line2d_4">
      <g>
       <use xlink:href="#mada92c5425" x="168.89506" y="357.9975" style="stroke: #000000; stroke-width: 0.8"/>
      </g>
     </g>
     <g id="text_2">
      <!-- 50 -->
      <g transform="translate(161.89631 373.355781) scale(0.11 -0.11)">
       <defs>
        <path id="DejaVuSans-35" d="M 691 4666 
L 3169 4666 
L 3169 4134 
L 1269 4134 
L 1269 2991 
Q 1406 3038 1543 3061 
Q 1681 3084 1819 3084 
Q 2600 3084 3056 2656 
Q 3513 2228 3513 1497 
Q 3513 744 3044 326 
Q 2575 -91 1722 -91 
Q 1428 -91 1123 -41 
Q 819 9 494 109 
L 494 744 
Q 775 591 1075 516 
Q 1375 441 1709 441 
Q 2250 441 2565 725 
Q 2881 1009 2881 1497 
Q 2881 1984 2565 2268 
Q 2250 2553 1709 2553 
Q 1456 2553 1204 2497 
Q 953 2441 691 2322 
L 691 4666 
z
" transform="scale(0.015625)"/>
       </defs>
       <use xlink:href="#DejaVuSans-35"/>
       <use xlink:href="#DejaVuSans-30" transform="translate(63.623047 0)"/>
      </g>
     </g>
    </g>
    <g id="xtick_3">
     <g id="line2d_5">
      <path d="M 263.183671 357.9975 
L 263.183671 25.3575 
" clip-path="url(#p21b1e09d7c)" style="fill: none; stroke-dasharray: 2.96,1.28; stroke-dashoffset: 0; stroke: #b0b0b0; stroke-opacity: 0.3; stroke-width: 0.8"/>
     </g>
     <g id="line2d_6">
      <g>
       <use xlink:href="#mada92c5425" x="263.183671" y="357.9975" style="stroke: #000000; stroke-width: 0.8"/>
      </g>
     </g>
     <g id="text_3">
      <!-- 100 -->
      <g transform="translate(252.685546 373.355781) scale(0.11 -0.11)">
       <defs>
        <path id="DejaVuSans-31" d="M 794 531 
L 1825 531 
L 1825 4091 
L 703 3866 
L 703 4441 
L 1819 4666 
L 2450 4666 
L 2450 531 
L 3481 531 
L 3481 0 
L 794 0 
L 794 531 
z
" transform="scale(0.015625)"/>
       </defs>
       <use xlink:href="#DejaVuSans-31"/>
       <use xlink:href="#DejaVuSans-30" transform="translate(63.623047 0)"/>
       <use xlink:href="#DejaVuSans-30" transform="translate(127.246094 0)"/>
      </g>
     </g>
    </g>
    <g id="xtick_4">
     <g id="line2d_7">
      <path d="M 357.472282 357.9975 
L 357.472282 25.3575 
" clip-path="url(#p21b1e09d7c)" style="fill: none; stroke-dasharray: 2.96,1.28; stroke-dashoffset: 0; stroke: #b0b0b0; stroke-opacity: 0.3; stroke-width: 0.8"/>
     </g>
     <g id="line2d_8">
      <g>
       <use xlink:href="#mada92c5425" x="357.472282" y="357.9975" style="stroke: #000000; stroke-width: 0.8"/>
      </g>
     </g>
     <g id="text_4">
      <!-- 150 -->
      <g transform="translate(346.974157 373.355781) scale(0.11 -0.11)">
       <use xlink:href="#DejaVuSans-31"/>
       <use xlink:href="#DejaVuSans-35" transform="translate(63.623047 0)"/>
       <use xlink:href="#DejaVuSans-30" transform="translate(127.246094 0)"/>
      </g>
     </g>
    </g>
    <g id="xtick_5">
     <g id="line2d_9">
      <path d="M 451.760893 357.9975 
L 451.760893 25.3575 
" clip-path="url(#p21b1e09d7c)" style="fill: none; stroke-dasharray: 2.96,1.28; stroke-dashoffset: 0; stroke: #b0b0b0; stroke-opacity: 0.3; stroke-width: 0.8"/>
     </g>
     <g id="line2d_10">
      <g>
       <use xlink:href="#mada92c5425" x="451.760893" y="357.9975" style="stroke: #000000; stroke-width: 0.8"/>
      </g>
     </g>
     <g id="text_5">
      <!-- 200 -->
      <g transform="translate(441.262768 373.355781) scale(0.11 -0.11)">
       <defs>
        <path id="DejaVuSans-32" d="M 1228 531 
L 3431 531 
L 3431 0 
L 469 0 
L 469 531 
Q 828 903 1448 1529 
Q 2069 2156 2228 2338 
Q 2531 2678 2651 2914 
Q 2772 3150 2772 3378 
Q 2772 3750 2511 3984 
Q 2250 4219 1831 4219 
Q 1534 4219 1204 4116 
Q 875 4013 500 3803 
L 500 4441 
Q 881 4594 1212 4672 
Q 1544 4750 1819 4750 
Q 2544 4750 2975 4387 
Q 3406 4025 3406 3419 
Q 3406 3131 3298 2873 
Q 3191 2616 2906 2266 
Q 2828 2175 2409 1742 
Q 1991 1309 1228 531 
z
" transform="scale(0.015625)"/>
       </defs>
       <use xlink:href="#DejaVuSans-32"/>
       <use xlink:href="#DejaVuSans-30" transform="translate(63.623047 0)"/>
       <use xlink:href="#DejaVuSans-30" transform="translate(127.246094 0)"/>
      </g>
     </g>
    </g>
    <g id="xtick_6">
     <g id="line2d_11">
      <path d="M 546.049504 357.9975 
L 546.049504 25.3575 
" clip-path="url(#p21b1e09d7c)" style="fill: none; stroke-dasharray: 2.96,1.28; stroke-dashoffset: 0; stroke: #b0b0b0; stroke-opacity: 0.3; stroke-width: 0.8"/>
     </g>
     <g id="line2d_12">
      <g>
       <use xlink:href="#mada92c5425" x="546.049504" y="357.9975" style="stroke: #000000; stroke-width: 0.8"/>
      </g>
     </g>
     <g id="text_6">
      <!-- 250 -->
      <g transform="translate(535.551379 373.355781) scale(0.11 -0.11)">
       <use xlink:href="#DejaVuSans-32"/>
       <use xlink:href="#DejaVuSans-35" transform="translate(63.623047 0)"/>
       <use xlink:href="#DejaVuSans-30" transform="translate(127.246094 0)"/>
      </g>
     </g>
    </g>
    <g id="text_7">
     <!-- Training Step -->
     <g transform="translate(282.462813 390.28125) scale(0.14 -0.14)">
      <defs>
       <path id="DejaVuSans-54" d="M -19 4666 
L 3928 4666 
L 3928 4134 
L 2272 4134 
L 2272 0 
L 1638 0 
L 1638 4134 
L -19 4134 
L -19 4666 
z
" transform="scale(0.015625)"/>
       <path id="DejaVuSans-72" d="M 2631 2963 
Q 2534 3019 2420 3045 
Q 2306 3072 2169 3072 
Q 1681 3072 1420 2755 
Q 1159 2438 1159 1844 
L 1159 0 
L 581 0 
L 581 3500 
L 1159 3500 
L 1159 2956 
Q 1341 3275 1631 3429 
Q 1922 3584 2338 3584 
Q 2397 3584 2469 3576 
Q 2541 3569 2628 3553 
L 2631 2963 
z
" transform="scale(0.015625)"/>
       <path id="DejaVuSans-61" d="M 2194 1759 
Q 1497 1759 1228 1600 
Q 959 1441 959 1056 
Q 959 750 1161 570 
Q 1363 391 1709 391 
Q 2188 391 2477 730 
Q 2766 1069 2766 1631 
L 2766 1759 
L 2194 1759 
z
M 3341 1997 
L 3341 0 
L 2766 0 
L 2766 531 
Q 2569 213 2275 61 
Q 1981 -91 1556 -91 
Q 1019 -91 701 211 
Q 384 513 384 1019 
Q 384 1609 779 1909 
Q 1175 2209 1959 2209 
L 2766 2209 
L 2766 2266 
Q 2766 2663 2505 2880 
Q 2244 3097 1772 3097 
Q 1472 3097 1187 3025 
Q 903 2953 641 2809 
L 641 3341 
Q 956 3463 1253 3523 
Q 1550 3584 1831 3584 
Q 2591 3584 2966 3190 
Q 3341 2797 3341 1997 
z
" transform="scale(0.015625)"/>
       <path id="DejaVuSans-69" d="M 603 3500 
L 1178 3500 
L 1178 0 
L 603 0 
L 603 3500 
z
M 603 4863 
L 1178 4863 
L 1178 4134 
L 603 4134 
L 603 4863 
z
" transform="scale(0.015625)"/>
       <path id="DejaVuSans-6e" d="M 3513 2113 
L 3513 0 
L 2938 0 
L 2938 2094 
Q 2938 2591 2744 2837 
Q 2550 3084 2163 3084 
Q 1697 3084 1428 2787 
Q 1159 2491 1159 1978 
L 1159 0 
L 581 0 
L 581 3500 
L 1159 3500 
L 1159 2956 
Q 1366 3272 1645 3428 
Q 1925 3584 2291 3584 
Q 2894 3584 3203 3211 
Q 3513 2838 3513 2113 
z
" transform="scale(0.015625)"/>
       <path id="DejaVuSans-67" d="M 2906 1791 
Q 2906 2416 2648 2759 
Q 2391 3103 1925 3103 
Q 1463 3103 1205 2759 
Q 947 2416 947 1791 
Q 947 1169 1205 825 
Q 1463 481 1925 481 
Q 2391 481 2648 825 
Q 2906 1169 2906 1791 
z
M 3481 434 
Q 3481 -459 3084 -895 
Q 2688 -1331 1869 -1331 
Q 1566 -1331 1297 -1286 
Q 1028 -1241 775 -1147 
L 775 -588 
Q 1028 -725 1275 -790 
Q 1522 -856 1778 -856 
Q 2344 -856 2625 -561 
Q 2906 -266 2906 331 
L 2906 616 
Q 2728 306 2450 153 
Q 2172 0 1784 0 
Q 1141 0 747 490 
Q 353 981 353 1791 
Q 353 2603 747 3093 
Q 1141 3584 1784 3584 
Q 2172 3584 2450 3431 
Q 2728 3278 2906 2969 
L 2906 3500 
L 3481 3500 
L 3481 434 
z
" transform="scale(0.015625)"/>
       <path id="DejaVuSans-20" transform="scale(0.015625)"/>
       <path id="DejaVuSans-53" d="M 3425 4513 
L 3425 3897 
Q 3066 4069 2747 4153 
Q 2428 4238 2131 4238 
Q 1616 4238 1336 4038 
Q 1056 3838 1056 3469 
Q 1056 3159 1242 3001 
Q 1428 2844 1947 2747 
L 2328 2669 
Q 3034 2534 3370 2195 
Q 3706 1856 3706 1288 
Q 3706 609 3251 259 
Q 2797 -91 1919 -91 
Q 1588 -91 1214 -16 
Q 841 59 441 206 
L 441 856 
Q 825 641 1194 531 
Q 1563 422 1919 422 
Q 2459 422 2753 634 
Q 3047 847 3047 1241 
Q 3047 1584 2836 1778 
Q 2625 1972 2144 2069 
L 1759 2144 
Q 1053 2284 737 2584 
Q 422 2884 422 3419 
Q 422 4038 858 4394 
Q 1294 4750 2059 4750 
Q 2388 4750 2728 4690 
Q 3069 4631 3425 4513 
z
" transform="scale(0.015625)"/>
       <path id="DejaVuSans-74" d="M 1172 4494 
L 1172 3500 
L 2356 3500 
L 2356 3053 
L 1172 3053 
L 1172 1153 
Q 1172 725 1289 603 
Q 1406 481 1766 481 
L 2356 481 
L 2356 0 
L 1766 0 
Q 1100 0 847 248 
Q 594 497 594 1153 
L 594 3053 
L 172 3053 
L 172 3500 
L 594 3500 
L 594 4494 
L 1172 4494 
z
" transform="scale(0.015625)"/>
       <path id="DejaVuSans-65" d="M 3597 1894 
L 3597 1613 
L 953 1613 
Q 991 1019 1311 708 
Q 1631 397 2203 397 
Q 2534 397 2845 478 
Q 3156 559 3463 722 
L 3463 178 
Q 3153 47 2828 -22 
Q 2503 -91 2169 -91 
Q 1331 -91 842 396 
Q 353 884 353 1716 
Q 353 2575 817 3079 
Q 1281 3584 2069 3584 
Q 2775 3584 3186 3129 
Q 3597 2675 3597 1894 
z
M 3022 2063 
Q 3016 2534 2758 2815 
Q 2500 3097 2075 3097 
Q 1594 3097 1305 2825 
Q 1016 2553 972 2059 
L 3022 2063 
z
" transform="scale(0.015625)"/>
       <path id="DejaVuSans-70" d="M 1159 525 
L 1159 -1331 
L 581 -1331 
L 581 3500 
L 1159 3500 
L 1159 2969 
Q 1341 3281 1617 3432 
Q 1894 3584 2278 3584 
Q 2916 3584 3314 3078 
Q 3713 2572 3713 1747 
Q 3713 922 3314 415 
Q 2916 -91 2278 -91 
Q 1894 -91 1617 61 
Q 1341 213 1159 525 
z
M 3116 1747 
Q 3116 2381 2855 2742 
Q 2594 3103 2138 3103 
Q 1681 3103 1420 2742 
Q 1159 2381 1159 1747 
Q 1159 1113 1420 752 
Q 1681 391 2138 391 
Q 2594 391 2855 752 
Q 3116 1113 3116 1747 
z
" transform="scale(0.015625)"/>
      </defs>
      <use xlink:href="#DejaVuSans-54"/>
      <use xlink:href="#DejaVuSans-72" transform="translate(46.333984 0)"/>
      <use xlink:href="#DejaVuSans-61" transform="translate(87.447266 0)"/>
      <use xlink:href="#DejaVuSans-69" transform="translate(148.726562 0)"/>
      <use xlink:href="#DejaVuSans-6e" transform="translate(176.509766 0)"/>
      <use xlink:href="#DejaVuSans-69" transform="translate(239.888672 0)"/>
      <use xlink:href="#DejaVuSans-6e" transform="translate(267.671875 0)"/>
      <use xlink:href="#DejaVuSans-67" transform="translate(331.050781 0)"/>
      <use xlink:href="#DejaVuSans-20" transform="translate(394.527344 0)"/>
      <use xlink:href="#DejaVuSans-53" transform="translate(426.314453 0)"/>
      <use xlink:href="#DejaVuSans-74" transform="translate(489.791016 0)"/>
      <use xlink:href="#DejaVuSans-65" transform="translate(529 0)"/>
      <use xlink:href="#DejaVuSans-70" transform="translate(590.523438 0)"/>
     </g>
    </g>
   </g>
   <g id="matplotlib.axis_2">
    <g id="ytick_1">
     <g id="line2d_13">
      <path d="M 49.242813 344.611075 
L 607.242813 344.611075 
" clip-path="url(#p21b1e09d7c)" style="fill: none; stroke-dasharray: 2.96,1.28; stroke-dashoffset: 0; stroke: #b0b0b0; stroke-opacity: 0.3; stroke-width: 0.8"/>
     </g>
     <g id="line2d_14">
      <defs>
       <path id="m48f1019ecd" d="M 0 0 
L -3.5 0 
" style="stroke: #000000; stroke-width: 0.8"/>
      </defs>
      <g>
       <use xlink:href="#m48f1019ecd" x="49.242813" y="344.611075" style="stroke: #000000; stroke-width: 0.8"/>
      </g>
     </g>
     <g id="text_8">
      <!-- 3.6 -->
      <g transform="translate(24.749375 348.790215) scale(0.11 -0.11)">
       <defs>
        <path id="DejaVuSans-33" d="M 2597 2516 
Q 3050 2419 3304 2112 
Q 3559 1806 3559 1356 
Q 3559 666 3084 287 
Q 2609 -91 1734 -91 
Q 1441 -91 1130 -33 
Q 819 25 488 141 
L 488 750 
Q 750 597 1062 519 
Q 1375 441 1716 441 
Q 2309 441 2620 675 
Q 2931 909 2931 1356 
Q 2931 1769 2642 2001 
Q 2353 2234 1838 2234 
L 1294 2234 
L 1294 2753 
L 1863 2753 
Q 2328 2753 2575 2939 
Q 2822 3125 2822 3475 
Q 2822 3834 2567 4026 
Q 2313 4219 1838 4219 
Q 1578 4219 1281 4162 
Q 984 4106 628 3988 
L 628 4550 
Q 988 4650 1302 4700 
Q 1616 4750 1894 4750 
Q 2613 4750 3031 4423 
Q 3450 4097 3450 3541 
Q 3450 3153 3228 2886 
Q 3006 2619 2597 2516 
z
" transform="scale(0.015625)"/>
        <path id="DejaVuSans-2e" d="M 684 794 
L 1344 794 
L 1344 0 
L 684 0 
L 684 794 
z
" transform="scale(0.015625)"/>
        <path id="DejaVuSans-36" d="M 2113 2584 
Q 1688 2584 1439 2293 
Q 1191 2003 1191 1497 
Q 1191 994 1439 701 
Q 1688 409 2113 409 
Q 2538 409 2786 701 
Q 3034 994 3034 1497 
Q 3034 2003 2786 2293 
Q 2538 2584 2113 2584 
z
M 3366 4563 
L 3366 3988 
Q 3128 4100 2886 4159 
Q 2644 4219 2406 4219 
Q 1781 4219 1451 3797 
Q 1122 3375 1075 2522 
Q 1259 2794 1537 2939 
Q 1816 3084 2150 3084 
Q 2853 3084 3261 2657 
Q 3669 2231 3669 1497 
Q 3669 778 3244 343 
Q 2819 -91 2113 -91 
Q 1303 -91 875 529 
Q 447 1150 447 2328 
Q 447 3434 972 4092 
Q 1497 4750 2381 4750 
Q 2619 4750 2861 4703 
Q 3103 4656 3366 4563 
z
" transform="scale(0.015625)"/>
       </defs>
       <use xlink:href="#DejaVuSans-33"/>
       <use xlink:href="#DejaVuSans-2e" transform="translate(63.623047 0)"/>
       <use xlink:href="#DejaVuSans-36" transform="translate(95.410156 0)"/>
      </g>
     </g>
    </g>
    <g id="ytick_2">
     <g id="line2d_15">
      <path d="M 49.242813 273.517021 
L 607.242813 273.517021 
" clip-path="url(#p21b1e09d7c)" style="fill: none; stroke-dasharray: 2.96,1.28; stroke-dashoffset: 0; stroke: #b0b0b0; stroke-opacity: 0.3; stroke-width: 0.8"/>
     </g>
     <g id="line2d_16">
      <g>
       <use xlink:href="#m48f1019ecd" x="49.242813" y="273.517021" style="stroke: #000000; stroke-width: 0.8"/>
      </g>
     </g>
     <g id="text_9">
      <!-- 3.7 -->
      <g transform="translate(24.749375 277.696162) scale(0.11 -0.11)">
       <defs>
        <path id="DejaVuSans-37" d="M 525 4666 
L 3525 4666 
L 3525 4397 
L 1831 0 
L 1172 0 
L 2766 4134 
L 525 4134 
L 525 4666 
z
" transform="scale(0.015625)"/>
       </defs>
       <use xlink:href="#DejaVuSans-33"/>
       <use xlink:href="#DejaVuSans-2e" transform="translate(63.623047 0)"/>
       <use xlink:href="#DejaVuSans-37" transform="translate(95.410156 0)"/>
      </g>
     </g>
    </g>
    <g id="ytick_3">
     <g id="line2d_17">
      <path d="M 49.242813 202.422967 
L 607.242813 202.422967 
" clip-path="url(#p21b1e09d7c)" style="fill: none; stroke-dasharray: 2.96,1.28; stroke-dashoffset: 0; stroke: #b0b0b0; stroke-opacity: 0.3; stroke-width: 0.8"/>
     </g>
     <g id="line2d_18">
      <g>
       <use xlink:href="#m48f1019ecd" x="49.242813" y="202.422967" style="stroke: #000000; stroke-width: 0.8"/>
      </g>
     </g>
     <g id="text_10">
      <!-- 3.8 -->
      <g transform="translate(24.749375 206.602108) scale(0.11 -0.11)">
       <defs>
        <path id="DejaVuSans-38" d="M 2034 2216 
Q 1584 2216 1326 1975 
Q 1069 1734 1069 1313 
Q 1069 891 1326 650 
Q 1584 409 2034 409 
Q 2484 409 2743 651 
Q 3003 894 3003 1313 
Q 3003 1734 2745 1975 
Q 2488 2216 2034 2216 
z
M 1403 2484 
Q 997 2584 770 2862 
Q 544 3141 544 3541 
Q 544 4100 942 4425 
Q 1341 4750 2034 4750 
Q 2731 4750 3128 4425 
Q 3525 4100 3525 3541 
Q 3525 3141 3298 2862 
Q 3072 2584 2669 2484 
Q 3125 2378 3379 2068 
Q 3634 1759 3634 1313 
Q 3634 634 3220 271 
Q 2806 -91 2034 -91 
Q 1263 -91 848 271 
Q 434 634 434 1313 
Q 434 1759 690 2068 
Q 947 2378 1403 2484 
z
M 1172 3481 
Q 1172 3119 1398 2916 
Q 1625 2713 2034 2713 
Q 2441 2713 2670 2916 
Q 2900 3119 2900 3481 
Q 2900 3844 2670 4047 
Q 2441 4250 2034 4250 
Q 1625 4250 1398 4047 
Q 1172 3844 1172 3481 
z
" transform="scale(0.015625)"/>
       </defs>
       <use xlink:href="#DejaVuSans-33"/>
       <use xlink:href="#DejaVuSans-2e" transform="translate(63.623047 0)"/>
       <use xlink:href="#DejaVuSans-38" transform="translate(95.410156 0)"/>
      </g>
     </g>
    </g>
    <g id="ytick_4">
     <g id="line2d_19">
      <path d="M 49.242813 131.328914 
L 607.242813 131.328914 
" clip-path="url(#p21b1e09d7c)" style="fill: none; stroke-dasharray: 2.96,1.28; stroke-dashoffset: 0; stroke: #b0b0b0; stroke-opacity: 0.3; stroke-width: 0.8"/>
     </g>
     <g id="line2d_20">
      <g>
       <use xlink:href="#m48f1019ecd" x="49.242813" y="131.328914" style="stroke: #000000; stroke-width: 0.8"/>
      </g>
     </g>
     <g id="text_11">
      <!-- 3.9 -->
      <g transform="translate(24.749375 135.508054) scale(0.11 -0.11)">
       <defs>
        <path id="DejaVuSans-39" d="M 703 97 
L 703 672 
Q 941 559 1184 500 
Q 1428 441 1663 441 
Q 2288 441 2617 861 
Q 2947 1281 2994 2138 
Q 2813 1869 2534 1725 
Q 2256 1581 1919 1581 
Q 1219 1581 811 2004 
Q 403 2428 403 3163 
Q 403 3881 828 4315 
Q 1253 4750 1959 4750 
Q 2769 4750 3195 4129 
Q 3622 3509 3622 2328 
Q 3622 1225 3098 567 
Q 2575 -91 1691 -91 
Q 1453 -91 1209 -44 
Q 966 3 703 97 
z
M 1959 2075 
Q 2384 2075 2632 2365 
Q 2881 2656 2881 3163 
Q 2881 3666 2632 3958 
Q 2384 4250 1959 4250 
Q 1534 4250 1286 3958 
Q 1038 3666 1038 3163 
Q 1038 2656 1286 2365 
Q 1534 2075 1959 2075 
z
" transform="scale(0.015625)"/>
       </defs>
       <use xlink:href="#DejaVuSans-33"/>
       <use xlink:href="#DejaVuSans-2e" transform="translate(63.623047 0)"/>
       <use xlink:href="#DejaVuSans-39" transform="translate(95.410156 0)"/>
      </g>
     </g>
    </g>
    <g id="ytick_5">
     <g id="line2d_21">
      <path d="M 49.242813 60.23486 
L 607.242813 60.23486 
" clip-path="url(#p21b1e09d7c)" style="fill: none; stroke-dasharray: 2.96,1.28; stroke-dashoffset: 0; stroke: #b0b0b0; stroke-opacity: 0.3; stroke-width: 0.8"/>
     </g>
     <g id="line2d_22">
      <g>
       <use xlink:href="#m48f1019ecd" x="49.242813" y="60.23486" style="stroke: #000000; stroke-width: 0.8"/>
      </g>
     </g>
     <g id="text_12">
      <!-- 4.0 -->
      <g transform="translate(24.749375 64.414001) scale(0.11 -0.11)">
       <defs>
        <path id="DejaVuSans-34" d="M 2419 4116 
L 825 1625 
L 2419 1625 
L 2419 4116 
z
M 2253 4666 
L 3047 4666 
L 3047 1625 
L 3713 1625 
L 3713 1100 
L 3047 1100 
L 3047 0 
L 2419 0 
L 2419 1100 
L 313 1100 
L 313 1709 
L 2253 4666 
z
" transform="scale(0.015625)"/>
       </defs>
       <use xlink:href="#DejaVuSans-34"/>
       <use xlink:href="#DejaVuSans-2e" transform="translate(63.623047 0)"/>
       <use xlink:href="#DejaVuSans-30" transform="translate(95.410156 0)"/>
      </g>
     </g>
    </g>
    <g id="text_13">
     <!-- Data BPT -->
     <g transform="translate(17.837813 223.914687) rotate(-90) scale(0.14 -0.14)">
      <defs>
       <path id="DejaVuSans-44" d="M 1259 4147 
L 1259 519 
L 2022 519 
Q 2988 519 3436 956 
Q 3884 1394 3884 2338 
Q 3884 3275 3436 3711 
Q 2988 4147 2022 4147 
L 1259 4147 
z
M 628 4666 
L 1925 4666 
Q 3281 4666 3915 4102 
Q 4550 3538 4550 2338 
Q 4550 1131 3912 565 
Q 3275 0 1925 0 
L 628 0 
L 628 4666 
z
" transform="scale(0.015625)"/>
       <path id="DejaVuSans-42" d="M 1259 2228 
L 1259 519 
L 2272 519 
Q 2781 519 3026 730 
Q 3272 941 3272 1375 
Q 3272 1813 3026 2020 
Q 2781 2228 2272 2228 
L 1259 2228 
z
M 1259 4147 
L 1259 2741 
L 2194 2741 
Q 2656 2741 2882 2914 
Q 3109 3088 3109 3444 
Q 3109 3797 2882 3972 
Q 2656 4147 2194 4147 
L 1259 4147 
z
M 628 4666 
L 2241 4666 
Q 2963 4666 3353 4366 
Q 3744 4066 3744 3513 
Q 3744 3084 3544 2831 
Q 3344 2578 2956 2516 
Q 3422 2416 3680 2098 
Q 3938 1781 3938 1306 
Q 3938 681 3513 340 
Q 3088 0 2303 0 
L 628 0 
L 628 4666 
z
" transform="scale(0.015625)"/>
       <path id="DejaVuSans-50" d="M 1259 4147 
L 1259 2394 
L 2053 2394 
Q 2494 2394 2734 2622 
Q 2975 2850 2975 3272 
Q 2975 3691 2734 3919 
Q 2494 4147 2053 4147 
L 1259 4147 
z
M 628 4666 
L 2053 4666 
Q 2838 4666 3239 4311 
Q 3641 3956 3641 3272 
Q 3641 2581 3239 2228 
Q 2838 1875 2053 1875 
L 1259 1875 
L 1259 0 
L 628 0 
L 628 4666 
z
" transform="scale(0.015625)"/>
      </defs>
      <use xlink:href="#DejaVuSans-44"/>
      <use xlink:href="#DejaVuSans-61" transform="translate(77.001953 0)"/>
      <use xlink:href="#DejaVuSans-74" transform="translate(138.28125 0)"/>
      <use xlink:href="#DejaVuSans-61" transform="translate(177.490234 0)"/>
      <use xlink:href="#DejaVuSans-20" transform="translate(238.769531 0)"/>
      <use xlink:href="#DejaVuSans-42" transform="translate(270.556641 0)"/>
      <use xlink:href="#DejaVuSans-50" transform="translate(339.160156 0)"/>
      <use xlink:href="#DejaVuSans-54" transform="translate(399.462891 0)"/>
     </g>
    </g>
   </g>
   <g id="line2d_23">
    <path d="M 74.606449 161.985629 
L 76.492221 85.726056 
L 78.377993 92.431064 
L 80.263766 48.604557 
L 82.149538 43.591598 
L 84.03531 155.072752 
L 85.921082 154.953611 
L 87.806854 125.689056 
L 89.692627 123.885014 
L 91.578399 139.464457 
L 93.464171 143.556032 
L 95.349943 108.39322 
L 97.235716 163.398321 
L 99.121488 121.602225 
L 101.00726 139.767719 
L 102.893032 132.802094 
L 104.778804 190.15678 
L 106.664577 40.4775 
L 108.550349 157.332113 
L 110.436121 198.966214 
L 112.321893 88.08424 
L 114.207665 151.492518 
L 116.093438 167.799781 
L 117.97921 97.469182 
L 119.864982 166.735446 
L 121.750754 125.384628 
L 123.636527 108.907142 
L 125.522299 144.252787 
L 127.408071 189.460332 
L 129.293843 128.528995 
L 131.179615 128.914007 
L 133.065388 128.769458 
L 134.95116 66.431043 
L 136.836932 125.778468 
L 138.722704 51.944948 
L 140.608477 148.51915 
L 144.380021 199.191334 
L 146.265793 144.413689 
L 148.151565 143.061858 
L 150.037338 166.229015 
L 151.92311 203.663808 
L 153.808882 162.377713 
L 155.694654 136.925527 
L 157.580427 133.255068 
L 159.466199 157.246133 
L 161.351971 148.466196 
L 163.237743 217.502975 
L 165.123515 158.613555 
L 167.009288 156.807729 
L 168.89506 160.232367 
L 170.780832 160.720301 
L 172.666604 144.617217 
L 174.552377 197.066667 
L 176.438149 124.675757 
L 178.323921 150.364525 
L 180.209693 145.402417 
L 182.095465 172.363766 
L 183.981238 158.477395 
L 185.86701 159.525117 
L 187.752782 137.013136 
L 189.638554 192.710559 
L 191.524327 146.597991 
L 193.410099 158.56479 
L 195.295871 200.335353 
L 197.181643 171.626435 
L 199.067415 107.428297 
L 200.953188 152.42391 
L 202.83896 165.48034 
L 204.724732 106.062338 
L 206.610504 144.986478 
L 208.496277 101.696607 
L 210.382049 173.287646 
L 212.267821 181.279695 
L 214.153593 107.501414 
L 216.039365 202.542299 
L 217.925138 193.009103 
L 219.81091 151.363076 
L 221.696682 246.598109 
L 223.582454 167.250597 
L 225.468226 227.004148 
L 227.353999 157.384826 
L 229.239771 179.100559 
L 231.125543 220.145479 
L 233.011315 167.342506 
L 234.897088 184.595365 
L 236.78286 243.75383 
L 238.668632 125.539072 
L 240.554404 132.274626 
L 242.440176 156.954338 
L 244.325949 143.532026 
L 246.211721 187.933688 
L 248.097493 217.678308 
L 249.983265 108.351874 
L 251.869038 205.947818 
L 253.75481 199.820681 
L 255.640582 164.51515 
L 257.526354 236.060902 
L 259.412126 181.844173 
L 261.297899 199.317511 
L 263.183671 151.131281 
L 265.069443 155.715882 
L 266.955215 236.483941 
L 268.840988 150.266264 
L 270.72676 165.733028 
L 272.612532 190.423795 
L 274.498304 220.098523 
L 276.384076 149.493677 
L 278.269849 154.428626 
L 280.155621 186.507308 
L 282.041393 166.449694 
L 283.927165 195.49322 
L 285.812938 207.076762 
L 287.69871 251.381568 
L 289.584482 114.052083 
L 291.470254 203.316186 
L 293.356026 225.152952 
L 295.241799 240.1092 
L 297.127571 232.66469 
L 299.013343 227.292109 
L 300.899115 202.750013 
L 302.784888 225.932389 
L 304.67066 221.901611 
L 306.556432 206.13855 
L 308.442204 196.308049 
L 310.327976 181.311939 
L 312.213749 120.341998 
L 314.099521 187.423196 
L 315.985293 216.20617 
L 317.871065 148.971095 
L 319.756838 295.116381 
L 321.64261 182.833413 
L 323.528382 89.695408 
L 325.414154 184.871327 
L 327.299926 230.718838 
L 329.185699 177.09297 
L 331.071471 252.386779 
L 332.957243 284.741518 
L 334.843015 176.262038 
L 336.728787 233.483564 
L 338.61456 149.568385 
L 340.500332 204.710472 
L 342.386104 208.974686 
L 344.271876 231.588329 
L 346.157649 140.061163 
L 348.043421 266.946163 
L 349.929193 261.040612 
L 351.814965 225.951759 
L 353.700737 173.24145 
L 355.58651 202.524953 
L 357.472282 208.020266 
L 359.358054 271.986137 
L 361.243826 187.711792 
L 363.129599 159.921985 
L 365.015371 260.732905 
L 366.901143 142.045343 
L 368.786915 212.158026 
L 372.55846 261.720437 
L 374.444232 229.100288 
L 376.330004 164.218989 
L 378.215776 176.429881 
L 380.101549 245.538301 
L 381.987321 205.813878 
L 383.873093 200.807365 
L 385.758865 134.777745 
L 387.644637 184.655761 
L 389.53041 293.140951 
L 391.416182 274.248144 
L 393.301954 228.594182 
L 395.187726 173.985462 
L 397.073499 250.921633 
L 398.959271 226.831093 
L 400.845043 227.595482 
L 402.730815 239.686141 
L 404.616587 256.275132 
L 406.50236 209.898937 
L 408.388132 247.839754 
L 410.273904 229.707563 
L 412.159676 240.585172 
L 414.045449 182.672969 
L 415.931221 233.486156 
L 417.816993 204.239347 
L 419.702765 264.084017 
L 421.588537 249.824693 
L 423.47431 250.167779 
L 425.360082 285.394744 
L 427.245854 267.339334 
L 429.131626 192.559265 
L 431.017399 228.765738 
L 432.903171 235.490466 
L 434.788943 290.645932 
L 436.674715 294.975324 
L 438.560487 229.001444 
L 440.44626 227.388987 
L 442.332032 187.264691 
L 444.217804 236.916499 
L 446.103576 207.604793 
L 447.989348 234.990565 
L 449.875121 232.735768 
L 451.760893 278.661481 
L 453.646665 219.817927 
L 455.532437 300.568352 
L 457.41821 177.994439 
L 459.303982 175.687129 
L 461.189754 208.966304 
L 463.075526 264.499659 
L 464.961298 324.337751 
L 466.847071 261.439808 
L 468.732843 239.034269 
L 470.618615 255.214504 
L 472.504387 259.34412 
L 474.39016 279.764833 
L 476.275932 207.851003 
L 478.161704 216.779448 
L 480.047476 181.332885 
L 481.933248 253.502123 
L 483.819021 279.351613 
L 485.704793 272.367676 
L 487.590565 241.835855 
L 489.476337 277.990067 
L 491.36211 296.337927 
L 493.247882 258.093924 
L 495.133654 278.263578 
L 497.019426 286.263465 
L 498.905198 302.234551 
L 500.790971 279.116408 
L 502.676743 247.005278 
L 504.562515 282.096459 
L 506.448287 261.187737 
L 508.33406 214.957623 
L 510.219832 197.861808 
L 512.105604 291.437054 
L 513.991376 227.191022 
L 515.877148 318.365978 
L 517.762921 293.915811 
L 519.648693 258.487126 
L 521.534465 289.035478 
L 523.420237 322.97072 
L 525.30601 265.551401 
L 527.191782 342.8775 
L 529.077554 235.874803 
L 530.963326 244.609263 
L 532.849098 249.497868 
L 534.734871 275.358698 
L 536.620643 248.702675 
L 538.506415 301.006834 
L 540.392187 251.191485 
L 542.27796 308.931194 
L 544.163732 309.652255 
L 546.049504 294.362512 
L 547.935276 268.060208 
L 549.821048 254.362212 
L 551.706821 257.461176 
L 553.592593 280.577061 
L 555.478365 323.620539 
L 557.364137 289.011161 
L 559.249909 294.979662 
L 561.135682 305.076048 
L 563.021454 284.353379 
L 564.907226 258.420514 
L 566.792998 307.482978 
L 568.678771 249.687809 
L 570.564543 286.90583 
L 572.450315 311.346019 
L 574.336087 221.695499 
L 576.221859 266.780431 
L 578.107632 327.585106 
L 579.993404 262.814156 
L 581.879176 311.416497 
L 581.879176 311.416497 
" clip-path="url(#p21b1e09d7c)" style="fill: none; stroke: #666666; stroke-opacity: 0.3; stroke-width: 1.5; stroke-linecap: square"/>
   </g>
   <g id="line2d_24">
    <path d="M 74.606449 161.985629 
L 76.492221 154.359671 
L 78.377993 148.166811 
L 82.149538 128.748687 
L 84.03531 131.381093 
L 85.921082 133.738345 
L 89.692627 132.028576 
L 91.578399 132.772164 
L 93.464171 133.850551 
L 95.349943 131.304818 
L 97.235716 134.514168 
L 99.121488 133.222974 
L 101.00726 133.877448 
L 102.893032 133.769913 
L 104.778804 139.4086 
L 106.664577 129.51549 
L 108.550349 132.297152 
L 110.436121 138.964058 
L 112.321893 133.876076 
L 114.207665 135.637721 
L 116.093438 138.853927 
L 117.97921 134.715452 
L 119.864982 137.917452 
L 121.750754 136.664169 
L 123.636527 133.888466 
L 125.522299 134.924899 
L 127.408071 140.378442 
L 129.293843 139.193497 
L 133.065388 137.225939 
L 134.95116 130.14645 
L 136.836932 129.709651 
L 138.722704 121.933181 
L 140.608477 124.591778 
L 142.494249 129.58735 
L 144.380021 136.547748 
L 146.265793 137.334342 
L 148.151565 137.907094 
L 150.037338 140.739286 
L 151.92311 147.031738 
L 153.808882 148.566336 
L 155.694654 147.402255 
L 157.580427 145.987536 
L 159.466199 147.113396 
L 161.351971 147.248676 
L 163.237743 154.274106 
L 165.123515 154.708051 
L 167.009288 154.918018 
L 170.780832 155.976538 
L 172.666604 154.840606 
L 174.552377 159.063212 
L 176.438149 155.624467 
L 178.323921 155.098472 
L 180.209693 154.128867 
L 182.095465 155.952357 
L 185.86701 156.536886 
L 187.752782 154.584511 
L 189.638554 158.397116 
L 191.524327 157.217203 
L 193.410099 157.351962 
L 195.295871 161.650301 
L 197.181643 162.647915 
L 199.067415 157.125953 
L 200.953188 156.655748 
L 202.83896 157.538208 
L 204.724732 152.390621 
L 206.610504 151.650206 
L 208.496277 146.654846 
L 210.382049 149.318126 
L 212.267821 152.514283 
L 214.153593 148.012996 
L 216.039365 153.465927 
L 217.925138 157.420244 
L 219.81091 156.814527 
L 221.696682 165.792886 
L 223.582454 165.938657 
L 225.468226 172.045206 
L 227.353999 170.579168 
L 229.239771 171.431307 
L 231.125543 176.302724 
L 233.011315 175.406702 
L 234.897088 176.325569 
L 236.78286 183.068395 
L 238.668632 177.315463 
L 240.554404 172.811379 
L 242.440176 171.225675 
L 244.325949 168.45631 
L 246.211721 170.404048 
L 248.097493 175.131474 
L 249.983265 168.453514 
L 251.869038 172.202944 
L 253.75481 174.964718 
L 255.640582 173.919761 
L 257.526354 180.133875 
L 259.412126 180.304905 
L 261.297899 182.206166 
L 263.183671 179.098677 
L 265.069443 176.760398 
L 266.955215 182.732752 
L 268.840988 179.486103 
L 270.72676 178.110796 
L 272.612532 179.342096 
L 274.498304 183.417738 
L 276.384076 180.025332 
L 278.269849 177.465662 
L 280.155621 178.369826 
L 282.041393 177.177813 
L 283.927165 179.009354 
L 285.812938 181.816095 
L 287.69871 188.772642 
L 289.584482 181.300586 
L 291.470254 183.502146 
L 293.356026 187.667227 
L 295.241799 192.911424 
L 297.127571 196.88675 
L 299.013343 199.927286 
L 300.899115 200.209559 
L 302.784888 202.781842 
L 304.67066 204.693819 
L 306.556432 204.838292 
L 308.442204 203.985268 
L 310.327976 201.717935 
L 312.213749 193.580341 
L 314.099521 192.964627 
L 315.985293 195.288781 
L 317.871065 190.657012 
L 319.756838 201.102949 
L 321.64261 199.275996 
L 323.528382 188.317937 
L 325.414154 187.973276 
L 327.299926 192.247832 
L 329.185699 190.732346 
L 331.071471 196.897789 
L 332.957243 205.682162 
L 334.843015 202.74015 
L 336.728787 205.814491 
L 338.61456 200.18988 
L 340.500332 200.64194 
L 342.386104 201.475214 
L 344.271876 204.486526 
L 346.157649 198.043989 
L 348.043421 204.934207 
L 349.929193 210.544847 
L 351.814965 212.085538 
L 353.700737 208.20113 
L 355.58651 207.633512 
L 357.472282 207.672187 
L 359.358054 214.103582 
L 361.243826 211.464403 
L 363.129599 206.310161 
L 365.015371 211.752436 
L 366.901143 204.781727 
L 368.786915 205.519357 
L 370.672687 208.688728 
L 372.55846 213.991898 
L 374.444232 215.502737 
L 376.330004 210.374363 
L 378.215776 206.979914 
L 380.101549 210.835753 
L 381.987321 210.333566 
L 383.873093 209.380945 
L 385.758865 201.920625 
L 387.644637 200.194139 
L 389.53041 209.48882 
L 391.416182 215.964753 
L 393.301954 217.227695 
L 395.187726 212.903472 
L 397.073499 216.705288 
L 400.845043 218.70563 
L 402.730815 220.803681 
L 404.616587 224.350826 
L 406.50236 222.905637 
L 408.388132 225.399049 
L 410.273904 225.8299 
L 412.159676 227.305428 
L 414.045449 222.842182 
L 415.931221 223.906579 
L 417.816993 221.939856 
L 419.702765 226.154272 
L 421.588537 228.521314 
L 423.47431 230.685961 
L 425.360082 236.156839 
L 427.245854 239.275088 
L 429.131626 234.603506 
L 431.017399 234.019729 
L 432.903171 234.166803 
L 436.674715 245.330777 
L 440.44626 242.066958 
L 442.332032 236.586731 
L 444.217804 236.619708 
L 446.103576 233.718216 
L 447.989348 233.845451 
L 449.875121 233.734483 
L 451.760893 238.227183 
L 453.646665 236.386257 
L 455.532437 242.804467 
L 457.41821 236.323464 
L 459.303982 230.25983 
L 461.189754 228.130478 
L 463.075526 231.767396 
L 464.961298 241.024431 
L 466.847071 243.065969 
L 468.732843 242.662799 
L 470.618615 243.91797 
L 472.504387 245.460585 
L 474.39016 248.891009 
L 476.275932 244.787009 
L 478.161704 241.986253 
L 480.047476 235.920916 
L 481.933248 237.679037 
L 483.819021 241.846294 
L 485.704793 244.898432 
L 487.590565 244.592175 
L 489.476337 247.931964 
L 491.36211 252.77256 
L 493.247882 253.304697 
L 495.133654 255.800585 
L 497.019426 258.846873 
L 498.905198 263.185641 
L 500.790971 264.778717 
L 502.676743 263.001373 
L 504.562515 264.910882 
L 506.448287 264.538567 
L 508.33406 259.580473 
L 510.219832 253.408606 
L 512.105604 257.211451 
L 513.991376 254.209408 
L 515.877148 260.625065 
L 517.762921 263.95414 
L 519.648693 263.407438 
L 521.534465 265.970242 
L 523.420237 271.67029 
L 525.30601 271.058401 
L 527.191782 278.240311 
L 529.077554 274.00376 
L 530.963326 271.064311 
L 532.849098 268.907666 
L 534.734871 269.552769 
L 536.620643 267.46776 
L 538.506415 270.821667 
L 540.392187 268.858649 
L 542.27796 272.865904 
L 544.163732 276.544539 
L 546.049504 278.326336 
L 547.935276 277.299723 
L 549.821048 275.005972 
L 551.706821 273.251493 
L 553.592593 273.984049 
L 555.478365 278.947698 
L 557.364137 279.954045 
L 559.249909 281.456606 
L 561.135682 283.818551 
L 563.021454 283.872033 
L 564.907226 281.326881 
L 566.792998 283.942491 
L 568.678771 280.517023 
L 570.564543 281.155904 
L 572.450315 284.174915 
L 574.336087 277.926973 
L 576.221859 276.812319 
L 578.107632 281.889598 
L 579.993404 279.982054 
L 581.879176 283.125498 
L 581.879176 283.125498 
" clip-path="url(#p21b1e09d7c)" style="fill: none; stroke: #0052e0; stroke-width: 2; stroke-linecap: square"/>
   </g>
   <g id="patch_3">
    <path d="M 49.242813 357.9975 
L 49.242813 25.3575 
" style="fill: none; stroke: #000000; stroke-width: 0.8; stroke-linejoin: miter; stroke-linecap: square"/>
   </g>
   <g id="patch_4">
    <path d="M 49.242812 357.9975 
L 607.242813 357.9975 
" style="fill: none; stroke: #000000; stroke-width: 0.8; stroke-linejoin: miter; stroke-linecap: square"/>
   </g>
   <g id="text_14">
    <g id="patch_5">
     <path d="M 526.214688 357.440325 
L 596.082813 357.440325 
Q 599.682813 357.440325 599.682813 353.840325 
L 599.682813 342.226575 
Q 599.682813 338.626575 596.082813 338.626575 
L 526.214688 338.626575 
Q 522.614688 338.626575 522.614688 342.226575 
L 522.614688 353.840325 
Q 522.614688 357.440325 526.214688 357.440325 
z
" style="fill: #ffffff; opacity: 0.8; stroke: #000000; stroke-linejoin: miter"/>
    </g>
    <!-- Final: 3.647 -->
    <g transform="translate(526.214688 351.3447) scale(0.12 -0.12)">
     <defs>
      <path id="DejaVuSans-46" d="M 628 4666 
L 3309 4666 
L 3309 4134 
L 1259 4134 
L 1259 2759 
L 3109 2759 
L 3109 2228 
L 1259 2228 
L 1259 0 
L 628 0 
L 628 4666 
z
" transform="scale(0.015625)"/>
      <path id="DejaVuSans-6c" d="M 603 4863 
L 1178 4863 
L 1178 0 
L 603 0 
L 603 4863 
z
" transform="scale(0.015625)"/>
      <path id="DejaVuSans-3a" d="M 750 794 
L 1409 794 
L 1409 0 
L 750 0 
L 750 794 
z
M 750 3309 
L 1409 3309 
L 1409 2516 
L 750 2516 
L 750 3309 
z
" transform="scale(0.015625)"/>
     </defs>
     <use xlink:href="#DejaVuSans-46"/>
     <use xlink:href="#DejaVuSans-69" transform="translate(50.269531 0)"/>
     <use xlink:href="#DejaVuSans-6e" transform="translate(78.052734 0)"/>
     <use xlink:href="#DejaVuSans-61" transform="translate(141.431641 0)"/>
     <use xlink:href="#DejaVuSans-6c" transform="translate(202.710938 0)"/>
     <use xlink:href="#DejaVuSans-3a" transform="translate(230.494141 0)"/>
     <use xlink:href="#DejaVuSans-20" transform="translate(264.185547 0)"/>
     <use xlink:href="#DejaVuSans-33" transform="translate(295.972656 0)"/>
     <use xlink:href="#DejaVuSans-2e" transform="translate(359.595703 0)"/>
     <use xlink:href="#DejaVuSans-36" transform="translate(391.382812 0)"/>
     <use xlink:href="#DejaVuSans-34" transform="translate(455.005859 0)"/>
     <use xlink:href="#DejaVuSans-37" transform="translate(518.628906 0)"/>
    </g>
   </g>
   <g id="text_15">
    <!-- Data Loss (Bits Per Token) -->
    <g transform="translate(209.626563 19.3575) scale(0.16 -0.16)">
     <defs>
      <path id="DejaVuSans-Bold-44" d="M 1791 3756 
L 1791 909 
L 2222 909 
Q 2959 909 3348 1275 
Q 3738 1641 3738 2338 
Q 3738 3031 3350 3393 
Q 2963 3756 2222 3756 
L 1791 3756 
z
M 588 4666 
L 1856 4666 
Q 2919 4666 3439 4514 
Q 3959 4363 4331 4000 
Q 4659 3684 4818 3271 
Q 4978 2859 4978 2338 
Q 4978 1809 4818 1395 
Q 4659 981 4331 666 
Q 3956 303 3431 151 
Q 2906 0 1856 0 
L 588 0 
L 588 4666 
z
" transform="scale(0.015625)"/>
      <path id="DejaVuSans-Bold-61" d="M 2106 1575 
Q 1756 1575 1579 1456 
Q 1403 1338 1403 1106 
Q 1403 894 1545 773 
Q 1688 653 1941 653 
Q 2256 653 2472 879 
Q 2688 1106 2688 1447 
L 2688 1575 
L 2106 1575 
z
M 3816 1997 
L 3816 0 
L 2688 0 
L 2688 519 
Q 2463 200 2181 54 
Q 1900 -91 1497 -91 
Q 953 -91 614 226 
Q 275 544 275 1050 
Q 275 1666 698 1953 
Q 1122 2241 2028 2241 
L 2688 2241 
L 2688 2328 
Q 2688 2594 2478 2717 
Q 2269 2841 1825 2841 
Q 1466 2841 1156 2769 
Q 847 2697 581 2553 
L 581 3406 
Q 941 3494 1303 3539 
Q 1666 3584 2028 3584 
Q 2975 3584 3395 3211 
Q 3816 2838 3816 1997 
z
" transform="scale(0.015625)"/>
      <path id="DejaVuSans-Bold-74" d="M 1759 4494 
L 1759 3500 
L 2913 3500 
L 2913 2700 
L 1759 2700 
L 1759 1216 
Q 1759 972 1856 886 
Q 1953 800 2241 800 
L 2816 800 
L 2816 0 
L 1856 0 
Q 1194 0 917 276 
Q 641 553 641 1216 
L 641 2700 
L 84 2700 
L 84 3500 
L 641 3500 
L 641 4494 
L 1759 4494 
z
" transform="scale(0.015625)"/>
      <path id="DejaVuSans-Bold-20" transform="scale(0.015625)"/>
      <path id="DejaVuSans-Bold-4c" d="M 588 4666 
L 1791 4666 
L 1791 909 
L 3903 909 
L 3903 0 
L 588 0 
L 588 4666 
z
" transform="scale(0.015625)"/>
      <path id="DejaVuSans-Bold-6f" d="M 2203 2784 
Q 1831 2784 1636 2517 
Q 1441 2250 1441 1747 
Q 1441 1244 1636 976 
Q 1831 709 2203 709 
Q 2569 709 2762 976 
Q 2956 1244 2956 1747 
Q 2956 2250 2762 2517 
Q 2569 2784 2203 2784 
z
M 2203 3584 
Q 3106 3584 3614 3096 
Q 4122 2609 4122 1747 
Q 4122 884 3614 396 
Q 3106 -91 2203 -91 
Q 1297 -91 786 396 
Q 275 884 275 1747 
Q 275 2609 786 3096 
Q 1297 3584 2203 3584 
z
" transform="scale(0.015625)"/>
      <path id="DejaVuSans-Bold-73" d="M 3272 3391 
L 3272 2541 
Q 2913 2691 2578 2766 
Q 2244 2841 1947 2841 
Q 1628 2841 1473 2761 
Q 1319 2681 1319 2516 
Q 1319 2381 1436 2309 
Q 1553 2238 1856 2203 
L 2053 2175 
Q 2913 2066 3209 1816 
Q 3506 1566 3506 1031 
Q 3506 472 3093 190 
Q 2681 -91 1863 -91 
Q 1516 -91 1145 -36 
Q 775 19 384 128 
L 384 978 
Q 719 816 1070 734 
Q 1422 653 1784 653 
Q 2113 653 2278 743 
Q 2444 834 2444 1013 
Q 2444 1163 2330 1236 
Q 2216 1309 1875 1350 
L 1678 1375 
Q 931 1469 631 1722 
Q 331 1975 331 2491 
Q 331 3047 712 3315 
Q 1094 3584 1881 3584 
Q 2191 3584 2531 3537 
Q 2872 3491 3272 3391 
z
" transform="scale(0.015625)"/>
      <path id="DejaVuSans-Bold-28" d="M 2413 -844 
L 1484 -844 
Q 1006 -72 778 623 
Q 550 1319 550 2003 
Q 550 2688 779 3389 
Q 1009 4091 1484 4856 
L 2413 4856 
Q 2013 4116 1813 3408 
Q 1613 2700 1613 2009 
Q 1613 1319 1811 609 
Q 2009 -100 2413 -844 
z
" transform="scale(0.015625)"/>
      <path id="DejaVuSans-Bold-42" d="M 2456 2859 
Q 2741 2859 2887 2984 
Q 3034 3109 3034 3353 
Q 3034 3594 2887 3720 
Q 2741 3847 2456 3847 
L 1791 3847 
L 1791 2859 
L 2456 2859 
z
M 2497 819 
Q 2859 819 3042 972 
Q 3225 1125 3225 1434 
Q 3225 1738 3044 1889 
Q 2863 2041 2497 2041 
L 1791 2041 
L 1791 819 
L 2497 819 
z
M 3616 2497 
Q 4003 2384 4215 2081 
Q 4428 1778 4428 1338 
Q 4428 663 3972 331 
Q 3516 0 2584 0 
L 588 0 
L 588 4666 
L 2394 4666 
Q 3366 4666 3802 4372 
Q 4238 4078 4238 3431 
Q 4238 3091 4078 2852 
Q 3919 2613 3616 2497 
z
" transform="scale(0.015625)"/>
      <path id="DejaVuSans-Bold-69" d="M 538 3500 
L 1656 3500 
L 1656 0 
L 538 0 
L 538 3500 
z
M 538 4863 
L 1656 4863 
L 1656 3950 
L 538 3950 
L 538 4863 
z
" transform="scale(0.015625)"/>
      <path id="DejaVuSans-Bold-50" d="M 588 4666 
L 2584 4666 
Q 3475 4666 3951 4270 
Q 4428 3875 4428 3144 
Q 4428 2409 3951 2014 
Q 3475 1619 2584 1619 
L 1791 1619 
L 1791 0 
L 588 0 
L 588 4666 
z
M 1791 3794 
L 1791 2491 
L 2456 2491 
Q 2806 2491 2997 2661 
Q 3188 2831 3188 3144 
Q 3188 3456 2997 3625 
Q 2806 3794 2456 3794 
L 1791 3794 
z
" transform="scale(0.015625)"/>
      <path id="DejaVuSans-Bold-65" d="M 4031 1759 
L 4031 1441 
L 1416 1441 
Q 1456 1047 1700 850 
Q 1944 653 2381 653 
Q 2734 653 3104 758 
Q 3475 863 3866 1075 
L 3866 213 
Q 3469 63 3072 -14 
Q 2675 -91 2278 -91 
Q 1328 -91 801 392 
Q 275 875 275 1747 
Q 275 2603 792 3093 
Q 1309 3584 2216 3584 
Q 3041 3584 3536 3087 
Q 4031 2591 4031 1759 
z
M 2881 2131 
Q 2881 2450 2695 2645 
Q 2509 2841 2209 2841 
Q 1884 2841 1681 2658 
Q 1478 2475 1428 2131 
L 2881 2131 
z
" transform="scale(0.015625)"/>
      <path id="DejaVuSans-Bold-72" d="M 3138 2547 
Q 2991 2616 2845 2648 
Q 2700 2681 2553 2681 
Q 2122 2681 1889 2404 
Q 1656 2128 1656 1613 
L 1656 0 
L 538 0 
L 538 3500 
L 1656 3500 
L 1656 2925 
Q 1872 3269 2151 3426 
Q 2431 3584 2822 3584 
Q 2878 3584 2943 3579 
Q 3009 3575 3134 3559 
L 3138 2547 
z
" transform="scale(0.015625)"/>
      <path id="DejaVuSans-Bold-54" d="M 31 4666 
L 4331 4666 
L 4331 3756 
L 2784 3756 
L 2784 0 
L 1581 0 
L 1581 3756 
L 31 3756 
L 31 4666 
z
" transform="scale(0.015625)"/>
      <path id="DejaVuSans-Bold-6b" d="M 538 4863 
L 1656 4863 
L 1656 2216 
L 2944 3500 
L 4244 3500 
L 2534 1894 
L 4378 0 
L 3022 0 
L 1656 1459 
L 1656 0 
L 538 0 
L 538 4863 
z
" transform="scale(0.015625)"/>
      <path id="DejaVuSans-Bold-6e" d="M 4056 2131 
L 4056 0 
L 2931 0 
L 2931 347 
L 2931 1631 
Q 2931 2084 2911 2256 
Q 2891 2428 2841 2509 
Q 2775 2619 2662 2680 
Q 2550 2741 2406 2741 
Q 2056 2741 1856 2470 
Q 1656 2200 1656 1722 
L 1656 0 
L 538 0 
L 538 3500 
L 1656 3500 
L 1656 2988 
Q 1909 3294 2193 3439 
Q 2478 3584 2822 3584 
Q 3428 3584 3742 3212 
Q 4056 2841 4056 2131 
z
" transform="scale(0.015625)"/>
      <path id="DejaVuSans-Bold-29" d="M 513 -844 
Q 913 -100 1113 609 
Q 1313 1319 1313 2009 
Q 1313 2700 1113 3408 
Q 913 4116 513 4856 
L 1441 4856 
Q 1916 4091 2145 3389 
Q 2375 2688 2375 2003 
Q 2375 1319 2147 623 
Q 1919 -72 1441 -844 
L 513 -844 
z
" transform="scale(0.015625)"/>
     </defs>
     <use xlink:href="#DejaVuSans-Bold-44"/>
     <use xlink:href="#DejaVuSans-Bold-61" transform="translate(83.007812 0)"/>
     <use xlink:href="#DejaVuSans-Bold-74" transform="translate(150.488281 0)"/>
     <use xlink:href="#DejaVuSans-Bold-61" transform="translate(198.291016 0)"/>
     <use xlink:href="#DejaVuSans-Bold-20" transform="translate(265.771484 0)"/>
     <use xlink:href="#DejaVuSans-Bold-4c" transform="translate(300.585938 0)"/>
     <use xlink:href="#DejaVuSans-Bold-6f" transform="translate(364.306641 0)"/>
     <use xlink:href="#DejaVuSans-Bold-73" transform="translate(433.007812 0)"/>
     <use xlink:href="#DejaVuSans-Bold-73" transform="translate(492.529297 0)"/>
     <use xlink:href="#DejaVuSans-Bold-20" transform="translate(552.050781 0)"/>
     <use xlink:href="#DejaVuSans-Bold-28" transform="translate(586.865234 0)"/>
     <use xlink:href="#DejaVuSans-Bold-42" transform="translate(632.568359 0)"/>
     <use xlink:href="#DejaVuSans-Bold-69" transform="translate(708.789062 0)"/>
     <use xlink:href="#DejaVuSans-Bold-74" transform="translate(743.066406 0)"/>
     <use xlink:href="#DejaVuSans-Bold-73" transform="translate(790.869141 0)"/>
     <use xlink:href="#DejaVuSans-Bold-20" transform="translate(850.390625 0)"/>
     <use xlink:href="#DejaVuSans-Bold-50" transform="translate(885.205078 0)"/>
     <use xlink:href="#DejaVuSans-Bold-65" transform="translate(958.496094 0)"/>
     <use xlink:href="#DejaVuSans-Bold-72" transform="translate(1026.318359 0)"/>
     <use xlink:href="#DejaVuSans-Bold-20" transform="translate(1075.634766 0)"/>
     <use xlink:href="#DejaVuSans-Bold-54" transform="translate(1110.449219 0)"/>
     <use xlink:href="#DejaVuSans-Bold-6f" transform="translate(1165.412109 0)"/>
     <use xlink:href="#DejaVuSans-Bold-6b" transform="translate(1234.113281 0)"/>
     <use xlink:href="#DejaVuSans-Bold-65" transform="translate(1297.992188 0)"/>
     <use xlink:href="#DejaVuSans-Bold-6e" transform="translate(1365.814453 0)"/>
     <use xlink:href="#DejaVuSans-Bold-29" transform="translate(1437.005859 0)"/>
    </g>
   </g>
   <g id="legend_1">
    <g id="patch_6">
     <path d="M 494.334687 66.449375 
L 599.542812 66.449375 
Q 601.742813 66.449375 601.742813 64.249375 
L 601.742813 33.0575 
Q 601.742813 30.8575 599.542812 30.8575 
L 494.334687 30.8575 
Q 492.134687 30.8575 492.134687 33.0575 
L 492.134687 64.249375 
Q 492.134687 66.449375 494.334687 66.449375 
z
" style="fill: #ffffff; opacity: 0.8; stroke: #cccccc; stroke-linejoin: miter"/>
    </g>
    <g id="line2d_25">
     <path d="M 496.534687 39.765781 
L 507.534687 39.765781 
L 518.534688 39.765781 
" style="fill: none; stroke: #666666; stroke-opacity: 0.3; stroke-width: 1.5; stroke-linecap: square"/>
    </g>
    <g id="text_16">
     <!-- Raw -->
     <g transform="translate(527.334687 43.615781) scale(0.11 -0.11)">
      <defs>
       <path id="DejaVuSans-52" d="M 2841 2188 
Q 3044 2119 3236 1894 
Q 3428 1669 3622 1275 
L 4263 0 
L 3584 0 
L 2988 1197 
Q 2756 1666 2539 1819 
Q 2322 1972 1947 1972 
L 1259 1972 
L 1259 0 
L 628 0 
L 628 4666 
L 2053 4666 
Q 2853 4666 3247 4331 
Q 3641 3997 3641 3322 
Q 3641 2881 3436 2590 
Q 3231 2300 2841 2188 
z
M 1259 4147 
L 1259 2491 
L 2053 2491 
Q 2509 2491 2742 2702 
Q 2975 2913 2975 3322 
Q 2975 3731 2742 3939 
Q 2509 4147 2053 4147 
L 1259 4147 
z
" transform="scale(0.015625)"/>
       <path id="DejaVuSans-77" d="M 269 3500 
L 844 3500 
L 1563 769 
L 2278 3500 
L 2956 3500 
L 3675 769 
L 4391 3500 
L 4966 3500 
L 4050 0 
L 3372 0 
L 2619 2869 
L 1863 0 
L 1184 0 
L 269 3500 
z
" transform="scale(0.015625)"/>
      </defs>
      <use xlink:href="#DejaVuSans-52"/>
      <use xlink:href="#DejaVuSans-61" transform="translate(67.232422 0)"/>
      <use xlink:href="#DejaVuSans-77" transform="translate(128.511719 0)"/>
     </g>
    </g>
    <g id="line2d_26">
     <path d="M 496.534687 55.911719 
L 507.534687 55.911719 
L 518.534688 55.911719 
" style="fill: none; stroke: #0052e0; stroke-width: 2; stroke-linecap: square"/>
    </g>
    <g id="text_17">
     <!-- EMA (α=0.1) -->
     <g transform="translate(527.334687 59.761719) scale(0.11 -0.11)">
      <defs>
       <path id="DejaVuSans-45" d="M 628 4666 
L 3578 4666 
L 3578 4134 
L 1259 4134 
L 1259 2753 
L 3481 2753 
L 3481 2222 
L 1259 2222 
L 1259 531 
L 3634 531 
L 3634 0 
L 628 0 
L 628 4666 
z
" transform="scale(0.015625)"/>
       <path id="DejaVuSans-4d" d="M 628 4666 
L 1569 4666 
L 2759 1491 
L 3956 4666 
L 4897 4666 
L 4897 0 
L 4281 0 
L 4281 4097 
L 3078 897 
L 2444 897 
L 1241 4097 
L 1241 0 
L 628 0 
L 628 4666 
z
" transform="scale(0.015625)"/>
       <path id="DejaVuSans-41" d="M 2188 4044 
L 1331 1722 
L 3047 1722 
L 2188 4044 
z
M 1831 4666 
L 2547 4666 
L 4325 0 
L 3669 0 
L 3244 1197 
L 1141 1197 
L 716 0 
L 50 0 
L 1831 4666 
z
" transform="scale(0.015625)"/>
       <path id="DejaVuSans-28" d="M 1984 4856 
Q 1566 4138 1362 3434 
Q 1159 2731 1159 2009 
Q 1159 1288 1364 580 
Q 1569 -128 1984 -844 
L 1484 -844 
Q 1016 -109 783 600 
Q 550 1309 550 2009 
Q 550 2706 781 3412 
Q 1013 4119 1484 4856 
L 1984 4856 
z
" transform="scale(0.015625)"/>
       <path id="DejaVuSans-3b1" d="M 2644 1628 
L 2506 2350 
Q 2366 3091 1809 3091 
Q 1391 3091 1200 2747 
Q 959 2316 959 1747 
Q 959 1059 1194 731 
Q 1431 397 1809 397 
Q 2228 397 2453 1063 
L 2644 1628 
z
M 2966 2584 
L 3275 3500 
L 3788 3500 
L 3147 1603 
L 3272 919 
Q 3300 766 3409 638 
Q 3538 488 3638 488 
L 3913 488 
L 3913 0 
L 3569 0 
Q 3275 0 3013 263 
Q 2884 394 2831 669 
Q 2688 322 2394 50 
Q 2256 -78 1809 -78 
Q 1075 -78 719 397 
Q 353 888 353 1747 
Q 353 2666 750 3097 
Q 1191 3578 1809 3578 
Q 2781 3578 2966 2584 
z
" transform="scale(0.015625)"/>
       <path id="DejaVuSans-3d" d="M 678 2906 
L 4684 2906 
L 4684 2381 
L 678 2381 
L 678 2906 
z
M 678 1631 
L 4684 1631 
L 4684 1100 
L 678 1100 
L 678 1631 
z
" transform="scale(0.015625)"/>
       <path id="DejaVuSans-29" d="M 513 4856 
L 1013 4856 
Q 1481 4119 1714 3412 
Q 1947 2706 1947 2009 
Q 1947 1309 1714 600 
Q 1481 -109 1013 -844 
L 513 -844 
Q 928 -128 1133 580 
Q 1338 1288 1338 2009 
Q 1338 2731 1133 3434 
Q 928 4138 513 4856 
z
" transform="scale(0.015625)"/>
      </defs>
      <use xlink:href="#DejaVuSans-45"/>
      <use xlink:href="#DejaVuSans-4d" transform="translate(63.183594 0)"/>
      <use xlink:href="#DejaVuSans-41" transform="translate(149.462891 0)"/>
      <use xlink:href="#DejaVuSans-20" transform="translate(217.871094 0)"/>
      <use xlink:href="#DejaVuSans-28" transform="translate(249.658203 0)"/>
      <use xlink:href="#DejaVuSans-3b1" transform="translate(288.671875 0)"/>
      <use xlink:href="#DejaVuSans-3d" transform="translate(354.589844 0)"/>
      <use xlink:href="#DejaVuSans-30" transform="translate(438.378906 0)"/>
      <use xlink:href="#DejaVuSans-2e" transform="translate(502.001953 0)"/>
      <use xlink:href="#DejaVuSans-31" transform="translate(533.789062 0)"/>
      <use xlink:href="#DejaVuSans-29" transform="translate(597.412109 0)"/>
     </g>
    </g>
   </g>
  </g>
 </g>
 <defs>
  <clipPath id="p21b1e09d7c">
   <rect x="49.242813" y="25.3575" width="558" height="332.64"/>
  </clipPath>
 </defs>
</svg>
